<?xml version="1.0" standalone="no"?>
<!DOCTYPE svg PUBLIC "-//W3C//DTD SVG 1.1//EN" "http://www.w3.org/Graphics/SVG/1.1/DTD/svg11.dtd" >
<svg xmlns="http://www.w3.org/2000/svg" xmlns:xlink="http://www.w3.org/1999/xlink" version="1.1">
<metadata></metadata>
<defs>
<font id="beyond_infinityregular" horiz-adv-x="1245" >
<font-face units-per-em="2048" ascent="1536" descent="-512" />
<missing-glyph horiz-adv-x="485" />
<glyph unicode="ll" horiz-adv-x="1107" d="M596 369q0 16 1 12t1 12t5 30.5t9 31.5q0 16 2 29.5t7 27.5l3 15t2 9.5t3 9.5t6 17v6q6 31 14 54l-43 -54q-53 -66 -124.5 -117t-149.5 -92q-6 -4 -12.5 -7t-12.5 -5q-16 -6 -34.5 -11t-34.5 -9q-49 -8 -99.5 -3t-89.5 33q-23 16 -33 37t-16 45q-6 12 -8 26.5t-4 25.5 q-2 6 -2 18q-2 16 0 31.5t2 25.5q2 18 2 32.5v29.5q0 2 2 3t2 3q2 14 7 29.5t5 31.5t4 29.5t8 28.5q2 18 10.5 33.5t8.5 33.5q6 12 8 19.5t4 13.5t4 14.5t8 20.5q10 25 18.5 51.5t18.5 52.5l47 123q23 45 37.5 90t30.5 92q4 14 10 27.5t10 28.5q18 43 25 88q0 10 5 19t9 20 q2 10 11.5 15t17.5 1t10 -8t13 -8q10 -4 12 -14.5t2 -20.5q-6 -25 -12.5 -51.5t-16.5 -51.5q-12 -29 -23.5 -57.5t-21.5 -58.5q-14 -39 -28.5 -76t-30.5 -74q-4 -6 -6 -11t-4 -11q-12 -39 -27.5 -75t-26.5 -73q-4 -6 -5 -13t-7 -13q-10 -16 -16 -47q0 -4 -3.5 -9.5 t-3.5 -9.5q-6 -10 -8 -15t-3 -9.5t-2 -10.5l-3 -18q-2 -14 -6 -25.5t-8 -23.5q2 -12 -1 -22.5t-7 -22.5q-16 -68 -20.5 -130.5t13.5 -115.5q16 -35 54 -53q4 -4 19.5 -6.5t21.5 -2.5q25 -2 48 4.5t46 16.5q18 4 38.5 14.5t41.5 20.5q70 37 137.5 92t122.5 115 q12 12 28.5 32.5t28.5 34.5l31 47q10 33 21.5 63.5t21.5 61.5q10 25 15 47.5t16 46.5l18 56q12 23 17.5 47t15.5 47q2 2 2 4q16 41 27.5 78t25.5 74q14 33 24.5 64.5t18.5 66.5q2 6 2 20q0 8 2 14.5t0 12.5q0 10 7.5 14t17.5 8q14 2 24.5 -3t20.5 -15q4 -4 6 -10.5t-2 -14.5 q-10 -45 -24.5 -88t-30.5 -90q-12 -29 -23.5 -61.5t-28.5 -67.5q-2 -4 -2 -7t-4 -7q-6 -23 -11 -43.5t-13 -42.5q-14 -33 -24.5 -65t-24.5 -66q-4 -16 -9.5 -33t-9.5 -33q-8 -25 -15 -49.5t-18 -46.5l-20 -80q-4 -16 -10 -32.5t-9 -33.5q-4 -18 -9 -37.5t-7 -35.5 q0 -10 -1 -13.5t-2 -4.5t-2 -4t-3 -11q-10 -41 -17.5 -71.5t-5.5 -57.5q-2 -23 -6 -43.5t-6 -42.5q2 -8 0 -13.5t-2 -11.5q-6 -18 0 -39.5t10 -44.5l4 -4q0 -4 3.5 -5t5.5 1q8 4 14 -3t5 -17.5t-10 -19.5t-30 -9q-14 0 -20.5 5t-14.5 15q-12 14 -14 29t-6 33q-8 57 -2 98.5 t10 102.5z" />
<glyph unicode="&#xfb00;" horiz-adv-x="858" d="M856 799q4 -10 1 -25.5t-26 -9.5q-4 0 -8 3t-8 -1q-14 -2 -45 1t-47 3h-43q-20 0 -47 1t-55 1v-4q-6 -6 -5 -8l-12 -31q-8 -4 -7 -12t-5 -17l-4 -14q-16 -39 -29.5 -78t-26.5 -78q-6 -20 -9 -31.5t-6 -21.5t-6 -22.5t-9 -32.5q-2 -10 -3 -18.5t-5 -18.5 q-4 -16 -7.5 -33.5t-9.5 -34.5q-4 -16 -7 -31.5t-5 -31.5q0 -4 -1 -8t-1 -8t1 -9.5t-3 -9.5q-4 -16 -5 -34.5t-1 -37.5v-14q2 -14 1 -28.5t-3 -36.5q2 0 2 -2q2 -4 -1 -8.5t-8 -4.5q-6 -2 -16 -2q-20 0 -29 15q-4 10 -4 18t-4 18q-2 4 0 6.5t0 6.5q4 18 0 35q2 16 1 31.5 t1 31.5q2 23 4 36t4 23.5t5.5 19.5t5.5 21v12.5t4 12.5q0 14 5 26.5t1 28.5q0 4 3 6t3 7l5 15t2 4t2 3t5 14q2 12 4.5 24.5t6.5 25.5q0 10 4 17t6 17t4 16.5t6 12.5q4 16 10.5 35.5t10.5 38.5q4 20 14 39v2q8 31 13 40t8.5 11t4.5 5t5 22l4 4q0 4 4 20q-49 0 -101.5 -2 t-98.5 -4t-85 -7t-61 -11q-8 -2 -11.5 -8.5t-9.5 -14.5l-4 -14q-16 -39 -28.5 -78t-22.5 -78q-10 -41 -21.5 -83t-21.5 -85q-2 -10 -3 -18.5t-5 -18.5q-4 -16 -7 -33.5t-10 -33.5q-2 -16 -5 -31.5t-5 -32.5v-16v-9.5t-4 -9.5q-4 -16 -3 -34.5t1 -36.5v-15q2 -16 5 -32.5 t11 -32.5q2 0 2 -2q2 -4 -1 -8.5t-7 -4.5q-6 -2 -22 -2q-20 0 -29 15l-18 37l-4 12q2 14 -3 35q2 16 2.5 31.5t0.5 31.5q4 27 7 50.5t7 50.5q0 16 6 24q0 14 5 26.5t1 28.5q0 4 3 6.5t3 6.5l25 96q2 25 12 49q0 10 1 17.5t3 17.5t6 16t9 13q4 16 10 35.5t10 37.5 q2 10 4 19.5t8 19.5v2q4 4 6.5 20.5t-0.5 16.5q-2 0 -9 -1t-9 -3q-25 -4 -51.5 -11t-52.5 -14q-23 -4 -25 -4t-22 -8q-8 -4 -15.5 -4t-15.5 -4q-14 -4 -23 6q-8 8 -14 13.5t-10 19.5q-4 20 14 27q2 0 2 1t2 1q27 4 50.5 9t52.5 13q8 0 11 1t6 1t8 1l15 3q37 12 78 13 q10 4 16.5 5t14.5 1q4 4 8 4t4 8l4 4q2 10 4.5 21.5t10.5 21.5q4 10 8 20.5t6 20.5q4 4 4 7t2 7q4 6 9.5 15.5t9.5 19.5l16 35q4 14 10 27.5t11 25.5q12 23 22 46.5t23 47.5q10 16 18 33t16 35q12 23 25.5 45.5t30.5 42.5l12 25q25 37 53 65l23 15q23 16 47 10h2 q72 -14 100 -86q10 -27 10 -47q6 -16 -6 -31q-12 -12 -26 -8q-16 8 -26.5 17t-10.5 30q-2 20 -17 45q-4 8 -14 12q-23 0 -35 -16q-20 -14 -34 -37q-59 -78 -99 -160q-14 -29 -29.5 -57.5t-27.5 -59.5q-4 -14 -11.5 -30.5t-15.5 -30.5q-6 -16 -14 -35.5t-16 -36.5l-13 -39 l-5 -10t1 -10q18 6 56 9t87.5 4t103.5 2t105 1q0 2 1 4t1 7q4 4 4.5 7t2.5 7q4 6 9 15t11 20l16 35q4 14 10.5 27.5t10.5 25.5q14 23 24.5 46t22.5 48q10 16 19.5 32.5t17.5 35.5q12 23 26.5 45t30.5 43l13 24q25 37 53 66l22 14q10 6 22.5 10t26.5 0h2q37 -8 58.5 -30.5 t34.5 -57.5q6 -16 -9 -30q-12 -12 -26 -9q-8 4 -10 4t-4.5 1.5t-3.5 4.5l-5 15q-2 12 -4 12t-8 10q-4 8 -14 13q-23 0 -35 -17q-12 -8 -20.5 -17t-16.5 -19q-29 -39 -53.5 -79t-46.5 -81q-14 -29 -30.5 -57.5t-29.5 -59.5q-4 -14 -11 -30.5t-17 -30.5q-4 -14 -10.5 -27.5 t-12.5 -28.5q41 0 67.5 -1t30.5 -1q23 0 60 -4t57 -6q10 -2 20.5 -5t20.5 -7z" />
<glyph unicode="bb" horiz-adv-x="1449" d="M846 582q-4 -16 -8 -25v-10q6 4 17 10t23.5 12t23.5 12.5t16 8.5v2q23 12 43 19t38 14q43 12 84 16q16 4 42 1t49 -15q18 -6 34.5 -18.5t30.5 -28.5q8 -10 10 -20.5t4 -20.5q2 -16 -1 -30.5t-7 -31.5q-20 -37 -49 -65l-43 -35q-25 -20 -47 -31q-16 -12 -32.5 -20.5 t-35.5 -16.5q-12 -6 -15 -8t-5 -3t-7 -2t-22 -3q-16 -4 -32.5 -5t-30.5 3q-18 2 -15.5 5t-9.5 9q-10 4 -12 8q-2 0 -2 6v9q2 0 4 1t6 -1q18 -2 20.5 0t22.5 6l12 4q18 4 19.5 3t17.5 5q25 10 35 16.5t33 20.5l20 14q23 10 41.5 28.5t34.5 35.5q12 10 20.5 24.5t14.5 26.5 q10 23 8 39v18q0 18 -22 27q-10 4 -18.5 4h-16.5q-39 -2 -76 -14.5t-72 -28.5q-16 -6 -30.5 -13t-28.5 -20l-27 -18q-29 -27 -54.5 -54.5t-43.5 -66.5l-19 -45q0 -4 -4 -8q-10 -20 -24 -8q-27 10 -47 28q-6 6 -2 13l10 34q16 39 25.5 77t17.5 79l4 14h2v9q2 8 2 15t4 13 q8 8 9 16.5t3 18.5q2 16 7.5 30.5t9.5 30.5v15q-66 -55 -151 -96t-158 -64q-4 0 -7.5 -12.5t-13.5 -28.5q-10 -25 -16 -39t-12.5 -24.5t-15.5 -21.5t-21 -32q-10 -12 -24.5 -23t-25.5 -22q-18 -18 -26 -26.5t-16.5 -15.5t-22.5 -17t-45 -29q-16 -6 -31.5 -16t-28.5 -19 l-46 -16t-50 -12q-57 -12 -106 20q-4 2 -13 15q-25 20 -4 65q4 4 5 8t6 8q-6 0 -17.5 10.5t-27.5 37.5q10 39 13 77.5t13 75.5q10 39 19.5 74t13.5 74q4 10 6 20t6 21q8 29 17.5 52t15.5 50q16 57 32.5 113.5t35.5 115.5q39 100 73 213q8 27 16.5 53.5t6.5 53.5q4 27 31 26 q41 -6 45 -43q6 -29 -9 -69q-16 -59 -36 -115q-4 -10 -6.5 -17t-6.5 -18q-4 -8 -5 -14t-5 -16q-6 -23 -12 -37.5t-11.5 -25.5t-9.5 -23.5t-6 -32.5q-4 -16 -6 -28.5t-10 -24.5q-6 -14 -11.5 -27.5t-7.5 -26.5q2 -16 -6 -35.5t-12 -39.5q-4 -18 -13.5 -37t-15.5 -39 q-2 -10 -3 -18.5t-9 -14.5q-12 -29 -10 -59q2 -8 -7.5 -15.5t-5.5 -13.5q2 -4 -1 -12.5t-6 -17.5l-6 -18t-1 -11v-5q12 8 33.5 30t32.5 32q35 29 70.5 54.5t78.5 39.5q16 6 33.5 12.5t36.5 8.5q25 4 49 5t47 -14q8 -4 14 -10t11 -10l16 -23q6 -8 10 -24.5t8 -26.5 q45 14 89 30.5t87 37t84 47.5t80 65q2 12 8 23l11 18q4 33 18 66q0 4 2 6q10 16 10 39t11 43q4 20 11 40.5t13 41.5q4 4 4 6q-4 4 4.5 20.5t10.5 26.5l26 133q4 10 4 23.5t2 23.5t2.5 20.5t-4.5 22.5q0 29 35 23q12 -4 21 -4q10 -6 16 -17q12 -12 14 -20q0 -4 -1 -8t-1 -8 q-2 -23 -6 -42.5t-10 -41.5l-14 -52l-4 -18q-2 -12 -1 -13t1 -2t-3.5 -7.5t-9.5 -24.5l-4 -14q-23 -72 -43 -144t-39 -147q-16 -49 -30.5 -100.5t-28.5 -102.5l-4 -14h2zM41 250q8 -2 14 0q18 4 38 8t36 12q23 12 45.5 20.5t38.5 22.5q23 12 44.5 25.5t37.5 28.5l59 51 q10 12 31 33.5t25 35.5q2 4 11 20.5t5 20.5t-20.5 -3t-20.5 -11q-35 -12 -72 -26.5t-69 -32.5q-37 -16 -75 -42t-73 -48q-39 -37 -69 -89q-4 -4 -4 -6q-2 -4 0 -9t4 -9q6 -2 14 -2zM344 666q-41 -14 -78 -28.5t-71 -41.5q-37 -29 -61.5 -49.5t-40 -35.5t-24 -27.5 t-16.5 -26.5q-4 -6 -17 -24.5t-18 -24.5q-12 -45 -8 -40t45 40q33 27 70 47t74 39q47 27 99 45t101 34q6 2 18.5 6.5t18.5 8.5q0 2 1 3t1 3q2 6 -1 18.5t-10 24.5t-15.5 21.5t-14.5 9.5q-6 2 -20 2z" />
<glyph unicode="cc" horiz-adv-x="1144" d="M649 367q-10 2 -21.5 2h-23.5q-8 0 -24 4q-29 6 -47.5 23.5t-34.5 39.5q-12 14 -19 35q-4 10 -4 33q-31 -18 -65 -33q-6 -2 -9.5 -5t-9.5 -7q-10 -6 -23.5 -10.5t-23.5 -10.5q-12 -6 -23.5 -12t-25.5 -10q-10 -2 -20.5 -7.5t-20.5 -9.5q-18 -6 -35.5 -10t-36.5 -6 q-33 -10 -78 -14q-10 0 -21 2t-24 2q-8 -2 -26 2q-29 4 -50.5 21.5t-37.5 39.5q-12 14 -19 35q-6 27 -2 47q6 18 13.5 35.5t19.5 34.5q12 14 23.5 27.5t27.5 25.5q8 6 27.5 22.5t36.5 26.5q14 12 46 28.5t52 24.5q10 4 31 9q14 0 32.5 -4.5t28.5 -18.5q8 -10 11 -14t10 -17 q6 -10 2 -24q-4 -16 -17 -19q-12 -4 -22 7l-17 26q-6 6 -16 6l-23 -8q-8 -4 -16 -7t-16 -7q-10 -6 -24.5 -17.5t-30 -22.5t-30 -22.5t-22.5 -19.5l-16 -19q-16 -14 -26.5 -30.5t-20.5 -34.5q-4 -10 -6 -19.5t-7 -19.5q-4 -20 23 -29q10 -2 19.5 -4t19.5 -2q23 2 45 1t45 3 q16 4 34.5 7t35.5 8q4 0 10 2t10 4q35 16 72 26.5t67 28.5q4 0 6.5 3t6.5 3q10 2 22 9.5t23 13.5q23 16 44 28.5t46 28.5q8 4 15 11t18 12l14 12l10 8q8 6 15.5 10t13.5 15q23 20 47.5 34.5t52.5 24.5q16 6 35 10q35 6 47 -8t9 -30.5t-17 -27t-33 6.5q-4 4 -9 0t-11 -6 l-33 -21q-18 -14 -37.5 -28.5t-36.5 -30.5l-16 -19q-16 -14 -26.5 -30.5t-20.5 -34.5q-4 -10 -4 -13.5t-5 -13.5q-2 -10 1.5 -23.5t13.5 -17.5t19 -6t20 -2q23 0 45 -2t45 2l69 10q4 0 10.5 2t10.5 4q35 12 73 21.5t70 26.5q4 0 6.5 3t6.5 3q10 2 22 8t23 12l94 53 q8 4 15 10.5t18 10.5q12 8 17 11l10 6t10.5 7.5t15.5 14.5q6 6 18 14q2 2 6.5 3t2.5 1q4 0 15 -1t13 -21q0 -2 1 -6.5t-1 -6.5q-12 -25 -33 -36q-8 -6 -9 -8l-1 -3l-2 -1t-10 -7q-2 0 -3 -2t-3 -2q-35 -23 -78 -52.5t-102 -51.5q-6 -2 -12.5 -5.5t-12.5 -7.5 q-10 -4 -21.5 -8t-21.5 -8q-29 -14 -50.5 -20.5t-41.5 -12.5q-33 -10 -72 -14q-20 -4 -40 -6z" />
<glyph unicode="dd" horiz-adv-x="1830" d="M1417 291q4 2 14.5 4t16.5 6q8 2 18.5 5t18.5 7q20 6 38.5 18.5t37.5 24.5q33 27 66.5 57.5t66.5 59.5q41 39 73.5 77t65.5 81q8 10 9 8t5 6q20 16 27 -4q4 -4 5 -1t3 -5q0 -10 -4 -14q-10 -18 -13 -29.5t-20 -28.5q-12 -16 -27.5 -36.5t-35.5 -39.5l-58 -61 q-10 -8 -20 -19.5t-18 -19.5q-10 -6 -15.5 -11t-11.5 -11q-53 -51 -113 -80q-27 -16 -69 -31q-8 -4 -13 -4q-35 -2 -66.5 -3t-60.5 19q-18 12 -33.5 25.5t-31.5 32.5l-12 34q-14 31 -21 70q-4 4 -4 10t-2 11q4 23 3 43t1 43q-4 18 0 37.5t6 39.5q0 8 -2 9h-2q-4 -4 -11 -8.5 t-11 -10.5q-10 -16 -23.5 -30.5t-26.5 -30.5q-14 -12 -25.5 -27.5t-21.5 -30.5q-27 -27 -52.5 -51t-55.5 -47q-6 -8 -19 -14q-53 -41 -125 -41q-27 -4 -51 6q-23 10 -32 30.5t-9 49.5q0 12 2 18l-18 -16q-25 -20 -49.5 -36.5t-53.5 -31.5q-12 -10 -29.5 -16t-35.5 -12 q-8 -4 -12 -5q-33 -2 -64 -3t-59 18l-60 53q-4 8 -7 14.5t-7 12.5q-8 16 -10 33.5t-6 33.5q-4 4 -4.5 9.5t-2.5 9.5q4 29 0 55.5t0 52.5q0 8 -4 8h-2q-4 -4 -9 -8t-9 -10q-10 -14 -22.5 -26.5t-22.5 -26.5q-12 -10 -23.5 -25.5t-21.5 -25.5q-23 -25 -46.5 -48.5t-49.5 -44.5 q-6 -10 -17 -14q-29 -18 -58.5 -30.5t-62.5 -12.5q-20 -4 -43 6q-23 8 -38 30.5t-15 49.5q2 10 2 17.5t4 15.5q8 18 15.5 36.5t19.5 34.5q8 10 12 19.5t11 17.5q25 41 60.5 75t72.5 63l53 24q12 8 38.5 11t37.5 -1q20 -6 31.5 -23.5t17.5 -41.5q4 -4 4 -12.5t2 -10.5l16 19 l11 10q10 14 16 17t16 20l11 18q2 2 9 18.5t15 36t14.5 38t6.5 24.5q10 29 17 51.5t11 48.5q2 14 5.5 20.5t15.5 37.5q4 8 4 14q14 43 34.5 86t43.5 82q6 23 18 41t23 37q10 14 20 29.5t23 31.5q33 49 71 6q12 -8 19.5 -21t-0.5 -46q-10 -27 -16.5 -47.5t-18.5 -42.5 q-37 -96 -88 -184.5t-105 -180.5q-20 -23 -31.5 -43t-17.5 -41.5t-9 -43t-7 -48.5q0 -6 -2 -8q4 -25 1 -46.5t-5 -43.5q2 -4 2 -11v-21t1 -14.5t3 -14.5t4 -21q4 -12 9 -24.5t7 -24.5q8 -16 21.5 -27.5t28.5 -22.5q6 -4 12 -3t10 -1q4 2 9 1t10 1q4 2 14 1t14 4l35 10 q18 6 36.5 16t35.5 21q29 25 59.5 52.5t61.5 55.5l34 33q2 6 11 18q37 49 77 88q0 2 2 5q4 4 5.5 5t3.5 3q2 0 6 4l2 2l51 43q27 18 55 31q10 4 33 4q10 -4 21.5 -6t27.5 -9q41 -12 60 -55l8 -10h4l12 12q12 16 22.5 32.5t20.5 33.5q2 4 5 4t5 4q2 2 7.5 17.5t11.5 32.5 t10 33.5t4 22.5q8 29 17.5 56.5t15.5 58.5q0 8 1 12t3 9.5t6 13.5t10 24q2 4 2.5 8.5t0.5 8.5q12 51 35.5 100t45.5 96q6 25 20.5 47.5t25.5 47.5q10 16 21 33.5t28 33.5q33 55 92 13q16 -8 25.5 -20.5t2.5 -47.5q-10 -29 -17 -54.5t-17 -52.5q-45 -111 -101.5 -214 t-117.5 -207q-12 -20 -23.5 -34t-20 -26t-14.5 -26.5t-8 -36.5q-2 -16 -6 -30.5t-8 -31.5q0 -6 -2 -8q4 -27 1 -51.5t-8 -48.5q2 -4 3 -13q0 -29 1 -59.5t5 -58.5q4 -14 9 -26.5t9 -29.5q8 -18 20.5 -31.5t26.5 -25.5q6 -4 12.5 -5t10.5 -3q4 2 9 1t11 1zM860 369q8 4 17 4 q23 8 42 17t37 26q16 14 33 26.5t33 28.5q33 29 61.5 63.5t57.5 69.5q4 4 9 10.5t9 12.5q2 10 -1 11t-7 7q-8 16 -15.5 23.5t-9.5 17.5q-2 4 -5 7t-5 7q-4 4 -12 8.5t-17 0.5q-31 -10 -55 -27q-47 -41 -90 -89t-78 -101l-20 -35q-4 -10 -6 -20.5t-7 -20.5q-4 -10 -3 -18.5 t3 -16.5q4 -14 17 -10q2 0 12 -2zM4 383q8 4 14 4q45 16 76 41q16 12 31.5 24.5t30.5 26.5q29 27 54.5 57.5t53.5 61.5q4 4 9.5 10t7.5 13q-6 -4 -16.5 -7.5t-18.5 9.5q-6 10 -5 31.5t-5 31.5q-4 4 -11.5 8t-15.5 0q-23 -8 -47 -22q-96 -80 -158 -174q-4 -8 -7 -15.5 t-5 -17.5q-4 -10 -6 -18.5t-6 -18.5q-4 -8 -2 -16.5t4 -16.5q4 -16 14 -10q2 0 8 -2zM1425 991q4 10 7.5 21.5t11.5 15.5q2 2 8 11.5t12 21.5t11.5 22.5t5.5 14.5q16 33 30.5 67.5t28.5 71.5q8 20 19.5 54t15.5 57q6 12 2 32l-2 2h-2h-2q-8 -8 -15 -24q-10 -14 -22 -41 t-23 -43q-23 -47 -42 -92t-39 -92q-4 -8 -9.5 -17.5t-5.5 -19.5q-12 -29 -23.5 -63t-21.5 -66v-11q14 18 27.5 36.5t27.5 41.5zM520 969q2 6 5 10t7 8q8 10 19.5 31.5t22 43t17.5 41t11 27.5q6 12 13.5 36t11.5 36q2 14 0 25q2 2 0 2h-2l-9 -17q-4 -10 -15 -26.5t-15 -26.5 l-56 -123q-4 -4 -7 -11t-3 -11l-33 -82q0 -2 2 -4q10 10 15.5 17.5t15.5 23.5z" />
<glyph unicode="ee" horiz-adv-x="1144" d="M676 375q-20 4 -43 7t-39 15q-6 8 -14.5 15.5t-14.5 17.5q-31 41 -24 92q-20 -14 -33.5 -18t-40.5 -21q-47 -23 -82 -37q-41 -16 -83 -30.5t-87 -24.5q-16 -4 -30.5 -7t-30.5 -7q-23 -6 -39.5 -9t-40.5 -1q-23 4 -40.5 4t-33.5 14q-8 8 -16.5 15.5t-14.5 19.5 q-16 20 -23 47t-3 49q0 2 6 12l4 13q10 25 14 33t19 30q35 53 90 98q16 14 36.5 27.5t45.5 26.5q6 0 16 6q16 6 33.5 -2t28.5 -19l8 -20q6 -49 -25 -80q-23 -27 -48.5 -51.5t-53.5 -46.5q-4 -4 -11.5 -8.5t-11.5 -8.5q-6 -6 -15 -7t-20 -3q-16 -10 -28 6l-8 6h-5q-2 0 -2 -2 q-10 -14 -11 -32.5t-1 -32.5q2 -10 14 -23q8 -10 18.5 -12t20.5 -2q8 -2 23 -2q16 0 35.5 2t40.5 10q76 16 138 40t128 50q33 14 60.5 28.5t56.5 27.5q12 4 10 4l8 6q10 8 11 10t16 6q33 49 82 90q16 14 35.5 24.5t41.5 22.5q8 0 15 7q16 4 32.5 -1.5t26.5 -15.5q4 -6 4 -10 t2 -8q4 -23 -2 -30t-22 -23q-23 -25 -40.5 -36.5t-45.5 -31.5q-4 -4 -10.5 -5t-10.5 -5q-16 -12 -26 -15q-8 -8 -16.5 -11t-24.5 -5h-4q-2 0 -3 -2q-10 -12 -15 -40t-5 -42q2 -8 14 -20q6 -10 17.5 -14.5t21.5 -4.5q6 -2 21 -2q16 2 34.5 2t36.5 8q72 16 129.5 42t116.5 52 q31 16 56.5 31t54.5 29q16 10 25.5 14t29.5 19q10 8 10 7t17 5q4 4 8 1t6 -9t4 -17.5t-6 -17.5q-12 -12 -16 -13t-19 -14q-29 -23 -61.5 -39t-63.5 -36q-20 -10 -38.5 -19.5t-37.5 -15.5q-39 -16 -78.5 -32.5t-80.5 -27.5q-12 -4 -26.5 -7t-29.5 -7q-23 -6 -33.5 -7 t-33.5 -1zM59 580q35 20 66 48.5t59 63.5q-6 0 -8 -2q-31 -23 -59.5 -45t-50.5 -51q-3 0 -7 -14zM653 608q29 16 52.5 35t46.5 47q-4 0 -7 -2q-29 -18 -48 -31.5t-40 -38.5q-2 -2 -4 -10z" />
<glyph unicode="gg" horiz-adv-x="1492" d="M1044 725q-14 2 -15 0t-11 -6q-6 -4 -13.5 -7t-17.5 -5q-6 0 -6 -5q-29 -16 -55.5 -33.5t-48.5 -41.5l-54 -52q-14 -16 -25.5 -31.5t-21.5 -31.5l-14 -27q-6 -8 -2 -24q0 -4 4 -4q10 0 17 1t16 5q18 8 35.5 16t33.5 21q12 6 22.5 14t22.5 16q4 2 17 15q20 14 39 33 q14 10 28.5 22t28.5 27q10 10 19.5 19t19.5 16q8 8 15 16t18 16q2 0 4 5.5t8 9.5t17.5 5t35.5 -7q10 -6 18.5 -12.5t18.5 -14.5q14 -16 16 -35q0 -23 -2 -33q-2 -8 -6 -24.5t-8 -34.5t-7 -34.5t-5 -24.5v-5q4 2 6 2.5t4 2.5q20 10 39.5 20t40.5 18q12 8 26.5 13.5t28.5 11.5 q29 12 42 16.5t44 14.5q6 2 7 2h1l1 1t10 3q16 4 33.5 8t33.5 4q8 -2 15.5 -4t15.5 -6l8 -10q6 -6 -2 -6q-4 -4 -16 -9q-10 -2 -29.5 -9t-41 -15t-40 -16.5t-29.5 -12.5q-10 -4 -14 -5t-6 -3t-6 -3t-15 -5l-18 -10q-39 -18 -78 -39t-76 -43q-8 -6 -12 -23q-4 -16 -7 -28.5 t-5 -28.5q-4 -10 -6 -21.5t-4 -23.5l-21 -82l-8 -39q-2 -10 -6 -18.5t-6 -18.5q-6 -29 -19 -55q-6 -12 -11 -24.5t-7 -29.5q0 -4 -4 -12q-16 -33 -28.5 -65.5t-29.5 -65.5l-4 -6q-12 -41 -37 -72q-10 -27 -24 -48t-29 -44q-10 -16 -20.5 -31.5t-24.5 -29.5q-4 0 -4 -4 q-25 -35 -55.5 -63t-65.5 -54q-35 -29 -80 -51l-43 -19q-12 -6 -25.5 -11t-27.5 -5h-4q-16 -6 -33.5 -5t-34.5 5q-55 12 -94 59l-10 19q-8 20 -12 39.5t0 39.5q-4 27 1 51.5t13 47.5q10 35 25.5 67.5t33.5 65.5q20 33 43 63.5t45 61.5q20 27 45 51q4 6 11.5 10t11.5 11 l16 24q4 2 5.5 5t5.5 5q16 12 29.5 27.5t27.5 30.5q16 12 29.5 26.5t27.5 28.5l19 16q10 10 23.5 19.5t23.5 21.5q4 4 12 9q16 12 25 20q14 18 32 27q27 12 39 30l9 6l114 80q16 8 31.5 18.5t32.5 20.5q10 6 10 19q0 10 4 26q2 10 7 28.5t10.5 38t9.5 38t6 28.5q2 8 0 21 q0 2 -1 9t-3 5q-12 -6 -22.5 -13t-20.5 -17q-8 -10 -16.5 -16.5t-18.5 -16.5q-10 -6 -18.5 -14.5t-18.5 -16.5q-6 -4 -11 -10t-11 -12l-45 -41q-18 -12 -36 -26.5t-34 -25.5q-35 -23 -68 -36q-10 -6 -23.5 -6.5t-25.5 -4.5q-10 4 -18 5t-15 8l-22 24q-23 29 -12 60 q6 31 22 55q10 14 19.5 27.5t19.5 27.5l14.5 14.5t12.5 16.5q-33 -16 -60.5 -29.5t-38.5 -17.5q-18 -10 -34.5 -20.5t-36.5 -16.5q-2 -4 -9.5 -7t-9.5 -5q-16 -10 -48 -29t-66.5 -38t-66.5 -37.5t-48 -31.5q-6 -4 -15.5 -13t-11.5 -17q-4 -14 -7 -25.5t-3 -28.5 q-4 -10 -6 -20t-4 -23l-19 -79l-8 -35q-2 -10 -7 -18.5t-7 -18.5q-2 -23 -17 -53q-4 -12 -10 -23.5t-10 -23.5q0 -2 -4 -11q-12 -31 -23.5 -64.5t-27.5 -64.5q-2 -2 -2 -6q-16 -37 -37 -65q-10 -25 -23.5 -45.5t-23.5 -42.5q-18 -33 -45 -54q-2 0 -3 -4q-23 -35 -49 -61.5 t-57 -53.5q-35 -29 -74 -43l-39 -16q-10 -6 -21 -11t-26 -3h-2q-16 -6 -30.5 -5t-30.5 5q-23 10 -43.5 24.5t-32.5 36.5q-4 4 -5 8t-5 9q-6 18 -10.5 37.5t0.5 37.5q-4 27 1 49.5t15 45.5q10 35 24.5 65.5t30.5 63.5q18 27 39 56.5t41 59.5q10 14 19.5 24.5t21.5 22.5 q4 6 9 10.5t9 8.5l19 22q2 2 3 5.5t5 5.5q16 12 26.5 26.5t24.5 24.5q27 25 51 55q12 8 19 14l43 39l10 9q14 6 23 18q8 10 14 14t14 9q25 14 37 28q0 2 2 3t2 3l103 74q16 4 28.5 14.5t28.5 18.5q10 6 10 18q0 6 1 17.5t3 17.5q2 8 6.5 25.5t8.5 37t8 37t6 27.5q2 8 0 18 q0 2 -1 9.5t-3 5.5q-12 -6 -20.5 -12.5t-18.5 -16.5q-8 -10 -16.5 -16t-18.5 -17q-10 -6 -17 -13t-18 -15q-6 -4 -11 -10.5t-11 -12.5q-10 -10 -20.5 -18t-22.5 -19q-16 -12 -32.5 -26.5t-33.5 -24.5q-16 -10 -32.5 -18t-32.5 -17q-10 -6 -22.5 -6t-22.5 -4q-10 4 -18.5 5 t-14.5 7q-12 12 -20 25q-23 27 -13 57q4 12 9.5 25.5t11.5 25.5l39 54l24 30q2 6 8 9q25 23 47.5 43t51.5 39l63 41q14 6 27.5 11t27.5 9q27 8 56 -10q16 -10 28 -27q4 -8 5 -14q4 -4 5 -10.5t5 -10.5q8 -10 18 -12q10 -4 21.5 -9t21.5 -13q14 -16 17 -35q0 -20 -2 -31 l-27 -113v-4l12 6q10 6 34 18.5t49.5 26t49 24.5t33.5 15q10 10 23.5 15.5t25.5 13.5q27 12 40.5 20.5t41.5 18.5q10 4 7 3t3 3q-6 -2 40 19.5t130 46.5l2 -2q8 6 15.5 12t17.5 10l68 39l47 18q14 6 30.5 3t26.5 -17q0 2 2 -5t1 -16.5t-8.5 -17.5t-27.5 -8zM508 -508 q12 0 36.5 4t35.5 8l10 7q18 10 36.5 19t32.5 19q8 2 23 13q4 2 7 3t7 5l47 41q12 10 21.5 21.5t19.5 23.5q10 14 20.5 26.5t20.5 22.5q10 12 18.5 24.5t18.5 28.5q12 23 23 37q8 14 14 30.5t16 33.5q4 4 4.5 6t2.5 6t3 10t5 13q10 20 19 41.5t20 44.5q6 12 10 25t10 24 q6 10 8 22t9 25l8 30l10 35q8 18 12 39t11 39q4 12 4 21q2 20 10 47l10 45v8l-4 4q-4 -4 -8 -4q-12 -10 -24.5 -18.5t-24.5 -16.5q-29 -18 -57.5 -38.5t-55.5 -45.5l-41 -33q-25 -20 -46.5 -37.5t-41.5 -37.5l-41 -41q-12 -10 -22.5 -19.5t-20.5 -19.5t-19.5 -20.5 t-19.5 -20.5q-18 -23 -37.5 -44.5t-36.5 -43.5q-16 -23 -31.5 -45.5t-29.5 -44.5q-20 -27 -33.5 -55.5t-27.5 -59.5l-5 -12q-4 -14 -6 -28.5t-4 -29.5q-8 -33 -2 -55q2 -4 2 -14q-6 -10 4 -21q6 -10 14.5 -19t18.5 -20q12 -8 23 -8h14zM-240 -469q12 0 34 3t32 7l8 6 q16 6 31.5 15.5t28.5 19.5q10 0 20 8q2 2 5 3t7 6l41 39q12 10 20.5 21t18.5 22q10 14 18.5 25t18.5 22q10 10 17.5 22t17.5 29q6 14 20 31q6 14 13.5 30.5t17.5 28.5q4 4 4 12q2 4 3 10.5t5 12.5q10 18 17.5 40.5t15.5 43.5q6 10 10 22.5t9 22.5q8 10 10 21.5t8 23.5l8 31 l10 32q8 18 12.5 37t10.5 37q6 8 6 21q0 20 8 40q4 10 5 21.5t3 21.5q0 2 2.5 4.5t2.5 4.5t-3 4q-4 -4 -8 -4l-47 -29q-25 -18 -50.5 -37.5t-49.5 -42.5l-39 -29q-23 -16 -42.5 -33.5t-35.5 -37.5l-37 -39q-10 -10 -20 -19.5t-21 -17.5q-18 -16 -35 -35q-16 -23 -32.5 -43 t-30.5 -43q-14 -20 -30.5 -40.5t-28.5 -43.5q-18 -25 -31.5 -51.5t-24.5 -54.5q0 -8 -2 -13q-10 -23 -14 -53q-8 -33 -2 -53q2 -4 2 -14q-6 -10 4 -21q6 -10 12 -19.5t15 -19.5q12 -8 20 -8h12zM262 702q-12 2 -21.5 0t-19.5 -6q-6 -4 -13 -7t-18 -5l-2 -2q-2 0 -2 -2 q-27 -12 -52 -29.5t-48 -40.5q-16 -14 -26.5 -25.5t-24.5 -25.5q-27 -27 -43 -59l-15 -25q-6 -8 -2 -24q0 -4 5 -5q20 0 28 7q18 8 34.5 16t33.5 20q12 4 22.5 12.5t22.5 14.5q4 2 7 6t7 8q10 8 18.5 15.5t18.5 15.5q27 20 55 49q10 8 18.5 17.5t18.5 15.5q8 8 15.5 16.5 t17.5 14.5q2 0 2 2t-2 2q-4 8 -10 12t-13 8l-8 4h-4z" />
<glyph unicode="nn" horiz-adv-x="1476" d="M1247 426q18 10 31.5 16.5t32.5 18.5q57 39 110 88q10 10 18.5 16t16.5 17l19 20q4 8 8 9t8 16v4q4 4 5 3t5 1q10 8 23.5 -2t3.5 -23q-2 -12 -4 -13t-8 -13t-8.5 -13.5t-12.5 -15.5q-25 -29 -50.5 -53.5t-53.5 -46.5q-12 -10 -26.5 -19.5t-27.5 -19.5q-23 -14 -46 -25.5 t-50 -15.5q-12 -4 -25.5 -5t-25.5 -3q-37 -4 -70 7t-53 27q-20 20 -36.5 39t-31.5 43q-16 29 -24 66t-8 65q2 4 1 8.5t-1 8.5q0 14 -2 27.5t-7.5 18.5t-16.5 0t-32 -26q-25 -25 -50 -49t-48 -55q-8 -10 -16.5 -20.5t-14.5 -20.5q-10 -10 -19 -22.5t-20 -26.5 q-4 -6 -10 -11.5t-12 -11.5q-6 -8 -19 -8q-16 0 -24 8q-8 4 -10 8t-9 9q-10 14 -4 24q0 12 4 17q25 41 41 77q-8 -8 -34 -28q-12 -10 -26.5 -19.5t-27.5 -19.5q-23 -14 -46 -26.5t-50 -16.5q-12 -4 -25.5 -5t-25.5 -3q-37 -4 -70 8t-53 28q-20 20 -36.5 39t-31.5 43 q-14 23 -19 52.5t-9 52.5q0 2 -2 4t-4 0q-18 -8 -37 -27q-27 -23 -51.5 -48t-47.5 -56q-8 -10 -16 -20.5t-14 -20.5q-10 -10 -19.5 -22.5t-19.5 -26.5q-4 -6 -10.5 -11.5t-12.5 -11.5q-6 -8 -18 -8q-16 0 -25 8l-26 17q-10 14 -4 24q0 12 4 17q16 31 32.5 62.5t32.5 63.5 l8 23q2 4 6.5 14.5t8.5 22.5t8 22.5t4 16.5q-2 8 5 13t17 7q14 4 22.5 -1t18.5 -13q2 -2 0 -11.5t-4 -19.5t-4 -19t0 -11q4 -4 8 0l60 57q16 10 31.5 14t31.5 6h11q29 -2 52 -20.5t19 -44.5q0 -12 -1 -9t1 -12q0 -4 1 -6t1 -6q0 -23 4 -27t9 -24q4 -8 8 -17.5t10 -13.5 q10 -10 16.5 -19.5t16.5 -17.5q29 -25 68.5 -24.5t80.5 15.5t77 40t56 45q10 10 18.5 17.5t16.5 17.5l19 20q4 8 8 9.5t8 15.5v4q4 4 5 3t5 1l4 2q2 4 17 8q27 6 47 -10q4 -4 4 -12t4 -12t8 0l60 57q16 10 31.5 14t31.5 6h10q16 -2 29.5 -8t26.5 -16q10 -4 12 -19 q4 -14 7 -26.5t1 -24.5q0 -12 -1 -22.5t1 -26.5q0 -4 1 -6t1 -6q0 -23 7.5 -41.5t11.5 -38.5q4 -8 8 -17.5t10 -13.5q10 -10 16.5 -19.5t16.5 -17.5q31 -29 71.5 -26.5t73.5 16.5z" />
<glyph unicode="mm" horiz-adv-x="2113" d="M1280 709q8 6 18 6q4 -2 17 -2q12 -4 12 -5t10 -6q23 -12 25 -30q6 -14 6 -24.5t-2 -33.5q-4 -16 -5 -32.5t-5 -32.5q-4 -14 -2 -18.5t-6 -20.5q-10 -29 -6 -36t17 -2t31.5 20.5l37 31t34 29.5t21.5 20q8 6 13 14.5t13 14.5l60 53q4 6 13 11.5t13 13.5q12 12 24.5 21.5 t29.5 15.5q12 6 19 8t20 0q10 -4 16 -3t14 -3q16 -4 28.5 -21.5t14.5 -33.5q4 -16 6 -33t2 -33t4.5 -33.5t4.5 -36.5q4 -16 12 -31.5t18 -29.5q12 -16 31 -16q14 0 31.5 1t30.5 5q18 4 23 7t24 11q12 4 26.5 11.5t24.5 17.5l39 31l12 10l12 10l11 10q6 4 13 12.5t19 18.5 q2 2 9.5 9t16.5 11.5t19.5 3t18.5 -13.5v-10q-10 -12 -14.5 -18.5t-7.5 -11.5t-7 -10t-16 -17q-16 -14 -24.5 -22.5t-15.5 -14.5t-16.5 -12.5t-25.5 -18.5q-20 -16 -40 -25.5t-40 -19.5q-23 -10 -53.5 -17.5t-63.5 -2.5q-12 2 -21 5t-22 7q-10 4 -15 10t-13 10 q-14 8 -20.5 16.5t-12.5 18.5q-10 16 -17.5 36.5t-9.5 43.5q0 14 -3 37.5t-5 40.5q-2 33 -13.5 40t-26.5 -2.5t-33.5 -26.5t-33.5 -30l-28 -30q-14 -12 -41 -37t-39 -39q-12 -10 -21.5 -18.5t-19.5 -18.5q-12 -12 -22.5 -16t-22.5 -15q-10 -10 -26.5 -17t-30.5 -13 q-8 -4 -19 -2q-10 4 -13 2t-13 2q-12 8 -17.5 14t-9.5 16q-2 6 -2 19v18t2 19l10 47q4 25 10.5 47t3.5 49l-2 4v2q-8 0 -10 -2q-47 -33 -86 -77t-74 -93q-23 -29 -30.5 -49.5t-24.5 -54.5q0 -4 -2 -7.5t-4 -7.5q-6 -6 -16 -6q-14 2 -23.5 4t-21.5 10q-14 14 -9 33l7 21 q12 20 15 32.5t9 34.5q4 16 10 29.5t11 30.5q-16 -18 -30.5 -33.5t-41.5 -32.5q-20 -16 -39.5 -26.5t-40.5 -20.5q-23 -10 -47.5 -17t-56.5 -3q-12 2 -22.5 5t-22.5 7q-10 4 -16.5 9t-14.5 9q-16 8 -23.5 16.5t-13.5 18.5q-12 16 -22.5 35.5t-14.5 42.5l-18 78l-9 39 q0 8 -8 6t-17 -7t-17.5 -12.5t-10.5 -7.5q-18 -18 -43 -37q-8 -6 -14 -14l-12 -16q-12 -12 -35 -40t-33 -42q-10 -10 -19.5 -22.5t-17.5 -22.5l-49 -52q-18 -18 -43 -30q-10 -4 -25 -2l-36 14q-23 14 -31 35q-4 12 -4 16v18.5t2 18.5l14 70q4 25 8 47t2 49l-2 4v2 q-8 0 -10 -2l-20 -20q-66 -70 -125 -156q-23 -29 -37.5 -59.5t-30.5 -65.5q0 -4 -2 -7t-4 -7q-6 -6 -16 -6q-23 2 -52 20q-14 14 -8 33l6 20q12 20 21.5 43t15.5 45q8 25 15.5 43.5t17.5 53.5q4 4 3 6t1 6q10 29 12 43t11 35q6 23 10 46t6 48q4 25 8 37q0 6 8 8t13 0 q12 -2 18 -1t16 -9q2 -2 8.5 -13.5t6.5 -15.5q0 -10 1 -22.5t-3 -22.5q-2 -39 -19 -76q-4 -6 -5 -13t-3 -13l-4 -9q-2 -2 -2 -6v-2q2 2 9 8.5t9 6.5q6 8 11.5 15t11.5 13q23 23 37 35t30 29q12 6 23 6q4 -2 16 -2q29 -8 43 -15q23 -12 25 -30q12 -31 4 -58q-4 -16 -5 -32.5 t-5 -32.5q-4 -14 -7 -29.5t-8 -32.5l-4 -38h2q4 0 9 2l26 22q18 18 34.5 33.5t37.5 38.5l12 12t13 16l24 29q2 2 10.5 9t16.5 16.5t15 16.5l9 9q4 6 11.5 11.5t11.5 13.5q10 12 20.5 21.5t26.5 15.5q23 10 43 8q10 -4 21.5 -5t21.5 -5q35 -10 41 -39q4 -16 9 -38t7 -38 q4 -16 9.5 -33.5t9.5 -36.5q8 -33 35 -61q16 -16 32 -16q14 0 28.5 1t27.5 5q18 4 23 7t24 11q27 10 51 31l39 29l12 10l12 10l11 10q2 2 11 10.5t19.5 20.5t21.5 23.5t19 19.5l19 66q0 6 10 9t14 1q12 -2 16.5 -2t14.5 -11q2 -2 7 -15t5 -17q-4 -23 -4 -26t0 -1t-1 1 t-7 -21q-2 -8 -4 -15q-2 -4 -2 -10v-4q29 29 60.5 57.5t72.5 57.5z" />
<glyph unicode="rr" horiz-adv-x="894" d="M330 680q-10 4 -19.5 4t-19.5 -4q-20 -8 -47 -25q-20 -14 -34.5 -29.5t-35.5 -31.5q-14 -12 -30.5 -34.5t-39.5 -53.5l-32 -53q-4 -10 -9 -15q-12 -20 -18 -42.5t-12 -45.5q0 -4 -1 -9t-1 -9q-4 -8 -13.5 -12.5t-17.5 -0.5q-25 6 -41 21q-14 10 -8 25l16 43q12 27 19 59 q10 39 16 78t14 78l4 43q6 37 5 65q0 12 14 17q12 4 20 -3q8 -4 15.5 -8t15.5 -8q16 -10 14 -24l-8 -89v-4h2h2q10 16 17.5 20.5t17.5 14.5q25 23 50.5 41.5t54.5 30.5q16 6 32.5 10t32.5 0t23.5 -5t19.5 -13q16 -16 5 -23.5t-23 -7.5zM541 664q0 -10 -6 -29l-7 -33v-14 q4 -4 2 -4q2 0 5 2q10 0 10 4q4 8 9 13l11 11l66 64q4 4 10 7t10 7q14 12 23.5 18.5t19.5 12.5q25 14 46.5 15t33.5 -4t11 -14t-23 -15q-10 -6 -14.5 -8.5t-7.5 -4.5t-7 -5t-14 -9q-20 -14 -35.5 -30.5t-34.5 -33.5l-18 -18q-12 -12 -16.5 -18.5t-12.5 -14.5 q-20 -29 -40.5 -52.5t-37.5 -53.5q-4 -12 -11 -23.5t-11 -21.5q-4 -12 -7 -17.5t-4.5 -8.5t-2.5 -8t-3 -16q0 -6 -2 -10q-4 -8 -10 -8q-16 -6 -33 4q-12 6 -22 17q-10 6 -4 16l8 29q4 10 10 33.5t8 33.5l9 49q4 23 5 35t5 29q0 4 1 9t1 9t1 7t1 8q2 14 2 13t0 13 q2 12 2 24.5t4 26.5q2 8 2 23q4 8 10 8t12.5 2t12.5 0q4 -4 9 -6t9 -6q8 -4 12.5 -12.5t4.5 -18.5q0 -4 -1 -10t-1 -16z" />
<glyph unicode="oo" horiz-adv-x="1112" d="M815 649q0 -27 -4 -39t-10 -28q-8 -23 -14.5 -35t-12.5 -29q0 -2 -4 -7t-2 -7q70 10 132.5 25.5t113.5 43.5q31 20 58.5 35t68.5 47q2 0 3 3.5t3 3.5q4 4 8 6t10 0q2 -4 1 -4t3 -2q-2 -2 1.5 -6.5t0.5 -6.5q-2 -14 -3 -19t-11 -12l-37 -26q-53 -41 -95 -60.5t-83 -35.5 q-31 -14 -80 -21.5t-90 -11.5q-4 0 -5 1t-5 -1q-18 0 -25 -17q-10 -16 -20 -24t-21 -25q-6 -4 -9 -8t-7 -8q-16 -16 -40 -26.5t-46 -10.5q-10 -2 -24.5 2t-18.5 8q-23 10 -33 32t-10 44q0 29 3 55.5t15 49.5q4 10 8.5 19t8.5 19q-45 -31 -83 -46t-73 -29q-31 -14 -79 -22.5 t-89 -12.5q-4 0 -5 1t-5 -1q-18 0 -25 -17q-10 -16 -20 -24t-21 -25q-6 -4 -9 -8t-7 -8q-16 -16 -40 -26.5t-46 -10.5q-10 -2 -24.5 2t-18.5 8q-23 10 -35 32t-12 44q0 29 5 55.5t17 49.5q4 16 11.5 28t13.5 27q4 8 5 13t5 9q16 16 23 33q14 23 27.5 32t33.5 30l21 14 q16 6 27.5 10t23.5 6q35 4 47 -2q20 -4 33 -22q10 -10 13 -21.5t5 -21.5q2 -8 0 -21q0 -27 -4 -39t-10 -28q-6 -12 -10.5 -26.5t-14.5 -37.5q0 -2 -4 -6t-2 -6q59 8 127 24.5t115 42.5q31 20 59.5 35t69.5 47q2 0 0 3.5t0 3.5l10 6q10 14 37 8l8 9t20.5 20.5t27 20.5t26.5 9 q16 2 28.5 3t18.5 -3q20 -4 33 -22q10 -10 13 -21.5t5 -21.5q2 -9 0 -21zM211 676q6 16 -13.5 22.5t-27.5 -2.5q-6 -4 -10 -6t-10 -4q-27 -16 -45.5 -39.5t-28.5 -46.5q-10 -16 -10 -37q-4 -18 16 -28q0 -2 6 -5.5t8 -7.5q6 -4 24.5 -11t22.5 -5q16 23 30.5 54.5t29.5 62.5 q10 28 8 53zM764 676q6 16 -13.5 22.5t-27.5 -2.5q-6 -4 -8 -6t-8 -4q-23 -16 -33 -39.5t-17 -46.5q-2 -8 -3 -18.5t3 -26.5q0 -2 4.5 -15.5t6.5 -17.5q6 -4 15 -11t13 -5q16 23 30.5 57.5t29.5 59.5q10 28 8 53zM561 408q2 -16 11.5 -22.5t37.5 11.5q16 16 34 32.5t32 41.5 q-2 -2 -11.5 5t-21.5 16q-10 10 -22.5 41.5t-4.5 74.5q0 2 -6 -11t-13 -30.5t-13 -33t-6 -17.5q-12 -37 -14.5 -48t-2.5 -32v-28zM14 408q-2 -20 6.5 -24.5t36.5 13.5q16 16 30.5 28.5t29.5 37.5q-2 -2 5 6t-9 4q-10 4 -33 15.5t-35 27.5q-2 4 -6 -3t-6 -11 q-12 -20 -15.5 -44t-3.5 -44v-6z" />
<glyph unicode="tt" horiz-adv-x="1103" d="M551 25q0 16 -1 31.5t3 31.5q0 6 1 12t-1 13q0 12 1 25.5t3 27.5q4 23 6 46.5t6 45.5q4 23 11.5 46.5t11.5 45.5q0 4 -1 6t1 6q12 16 11 31t9 47q4 4 3 8.5t3 10.5q8 12 9.5 27.5t3.5 31.5q2 8 3 15.5t5 13.5q8 8 9 16t5 19v6q-10 -16 -22.5 -29.5t-24.5 -30.5 q-53 -66 -124.5 -117t-149.5 -92q-6 -4 -12.5 -7t-12.5 -5q-16 -6 -34.5 -11t-34.5 -9q-49 -8 -99.5 -3t-89.5 33q-23 16 -33 37t-16 45q-6 12 -8 26.5t-4 25.5q-2 6 -2 18q-2 16 0 31.5t2 25.5q2 18 2 32.5v29.5q0 2 2 3t2 3q2 14 7 29.5t5 31.5t4 29.5t8 28.5 q2 18 10.5 33.5t8.5 33.5q6 12 8 19.5t4 13.5t4 14.5t8 20.5q10 25 18.5 51.5t18.5 52.5l23 62l-135 -31q-23 -8 -46.5 -18.5t-50.5 -16.5l-8 -4q-35 -6 -53 29q-4 12 -8 16q-4 10 4 22.5t18 8.5q14 -4 24.5 0t20.5 6q25 8 59 17.5t68.5 16.5t65.5 13t51 10l21 4 q18 41 31.5 83t29.5 87q4 14 10 27.5t10 28.5q18 43 25 88q0 10 5 19.5t9 19.5q2 10 11.5 15t17.5 1t10 -8t13 -8q10 -4 12 -14.5t2 -20.5q-6 -25 -12.5 -51.5t-16.5 -50.5q-12 -29 -23.5 -57.5t-21.5 -59.5l-31 -80l598 123q4 2 10.5 2t10.5 2q4 0 6 2q10 31 17.5 62.5 t15.5 62.5q4 10 4 23.5t2 23.5t3 20.5t-3 22.5q0 29 35 23l9 -4.5t11 -2.5q12 -6 17 -14q12 -12 12 -20q0 -4 -1 -8.5t-1 -8.5q-2 -23 -7 -42t-11 -42l-15 -51q0 -4 -2 -12t-2 -13q0 -4 4 -1t6 3q4 0 7.5 1.5t7.5 1.5q12 2 15 3t4 1h4h14q23 6 30.5 8t12 2t10.5 1t22 3 q37 4 72 6t70 6q10 -2 20 -2h21q10 2 17 -1t15 -5q6 0 6 -6l7 -6q4 -4 2 -6q0 -4 -12.5 -10.5t-16.5 -6.5q-25 -6 -45.5 -8t-42.5 -6q-25 0 -49.5 -5t-46.5 -7q-18 -8 -37 -11.5t-39 -7.5q-18 -6 -40 -10t-42 -8q-4 -4 -9 -4t-9 -2t-5.5 -7.5t-3.5 -9.5q-12 -35 -30.5 -91 t-38 -117.5t-38 -119t-28.5 -94.5q-18 -49 -33.5 -100t-31.5 -102q-10 -41 -20.5 -78t-18.5 -78q-14 -57 -25.5 -116.5t-17.5 -121.5l-8 -75v-41t8 -39q12 0 21 -7.5t11.5 -16.5t-6 -18t-30.5 -14q-4 0 -6.5 1t-4.5 1q-29 8 -35 14.5t-16 28.5q-6 10 -4 17q-4 21 -8 31z M195 1014q-12 -39 -27.5 -75t-26.5 -73q-4 -6 -5 -13t-7 -13q-10 -16 -16 -47q0 -4 -3.5 -9.5t-3.5 -9.5q-6 -10 -8 -15t-3 -9.5t-2 -10.5l-3 -18q-2 -14 -6 -25.5t-8 -23.5q2 -12 -1 -22.5t-7 -22.5q-16 -68 -20.5 -130.5t13.5 -115.5q16 -35 54 -53q4 -4 19.5 -6.5 t21.5 -2.5q25 -2 48 4.5t46 16.5q18 4 38.5 14.5t41.5 20.5q70 37 137.5 92t122.5 115q12 12 28.5 32.5t28.5 34.5q8 14 18.5 29.5t24.5 38.5q4 6 7 9t10 13q0 2 3 -1t7 1q0 4 4 4t8 -4q2 0 2 -6t2 -6t6 -4q0 -6 -5 -12t-5 -11q-16 -29 -34.5 -56.5t-41.5 -55.5 q2 14 5.5 27.5t7.5 27.5q2 6 4 11l4 10q4 8 9 17t3 19q2 14 6 26.5t8 23.5l7 18q4 16 8 32.5t12 33.5q0 4 2 6q10 16 14.5 38.5t14.5 43.5q2 10 11 39.5t19.5 63.5t19.5 63.5t13 39.5q2 2 6 16.5t2 14.5q-6 0 -70.5 -12t-157.5 -31.5t-200.5 -42t-199.5 -43.5z" />
<glyph unicode="ss" horiz-adv-x="1116" d="M836 694q0 -4 -1 -6t-1 -6t-4.5 -6t-6.5 0q-2 0 -4 2q-10 8 -22.5 9t-26.5 -1q-31 -8 -62.5 -18.5t-60.5 -26.5q-18 -8 -41 -27q-12 -10 4 -16q8 -4 13 -4q12 -4 24 -7t27 -7q18 -4 35.5 -10.5t35.5 -12.5q14 -6 22.5 -7t23.5 -11q14 -8 24 -7q33 8 70 15q12 4 23.5 6 t25.5 4q6 0 24.5 4t39 9t39 9.5t24.5 4.5t12 2t12 2q10 6 13 2q12 2 32.5 5t24.5 -7q12 -10 8 -17.5t-14 -11.5t-23.5 -6t-21.5 -2q-14 0 -27.5 -4t-25.5 -8l-117 -27q-18 -4 -49 -13.5t-37 -15.5q-6 -4 1 -13t9 -15q4 -10 3 -15.5t-1 -13.5q-2 -23 -7 -36t-26 -36 q-18 -23 -39.5 -39t-44.5 -32q-25 -16 -50 -29.5t-52 -24.5q-4 -4 -8 -4q-23 -4 -42.5 -10t-39.5 -6q-6 0 -10 -2t-9 -2q-16 -2 -32.5 1t-30.5 13q-14 8 -25 31l-6 31q0 6 4 10q10 31 29 49q23 20 44.5 37.5t45.5 32.5q12 6 22.5 14t24.5 12q4 2 6 2t4 2q29 16 59 30.5 t58 25.5q4 0 4 4q-2 2 -2 -1t-2 -1q-18 6 -37.5 13t-38.5 11l-38 10q-14 2 -29 11q-41 14 -45 63q0 2 -1 3t-1 3l-137 -51q-8 -2 -28 -11t-40.5 -19.5t-36.5 -20.5t-18 -12q4 -4 10 -12.5t8 -14.5q4 -10 6 -17.5t2 -13.5q-2 -23 -12 -40t-29 -38q-35 -41 -80 -67 q-23 -16 -47 -28.5t-49 -22.5q-2 -2 -4 -2t-2 -2q-23 -4 -41 -9.5t-37 -5.5q-6 0 -10 -2t-8 -2q-16 -2 -30.5 1t-29.5 14q-10 4 -14 11t-8 17q-2 6 -2 16.5t-2 18.5q0 6 4 10q4 12 10 23.5t17 21.5q20 18 36.5 36t40.5 30q10 6 20.5 14t22.5 10q4 2 6.5 2t4.5 3 q27 16 54.5 29.5t55.5 23.5q4 0 4 4q-2 2 -2 -1t-2 -1l-65 16l-37 10q-8 2 -15.5 4.5t-11.5 4.5q-39 14 -43 61q-6 31 17 51q6 6 12 11.5t12 9.5q47 31 92 45l22.5 9t22.5 5h17q23 4 30 -14q0 -2 5 -10q14 -14 8 -33q0 -4 -1 -6t-1 -4q0 -4 -4.5 -6.5t-6.5 -0.5q-2 0 -4 2 q-10 6 -21 7.5t-24 -0.5q-29 -6 -42 -12.5t-40 -20.5q-18 -8 -39 -27q-12 -8 5 -14q8 -4 12 -4q10 -4 22.5 -7t24.5 -8q18 -4 34.5 -9t33.5 -11q14 -6 21 -6t19 -10q4 -4 9.5 -1t9.5 7q16 6 30.5 13t30.5 11q12 4 23.5 9.5t21.5 9.5q4 0 29 9t57.5 21.5t65.5 24.5t55 21 q6 6 12.5 11t12.5 9q23 16 48.5 27.5t49.5 21.5q47 16 84 23q4 0 9 1t10 1q23 4 32 -17q0 -2 4 -10q15 -17 9 -35zM-27 270q10 0 19.5 2t19.5 4q20 4 40 11.5t40 15.5l39 23l14 10q12 8 24.5 15t23.5 18q16 10 29.5 23.5t25.5 27.5q4 4 4 7t2 7t0 5t2 5q0 4 -9 17.5 t-14 11.5q-25 -10 -46 -22.5t-46 -22.5q-10 -4 -19 -11t-18 -9l-12 -7q-14 -10 -41 -24q-4 -2 -9 -4t-9 -6l-49 -37q-10 -10 -17.5 -23.5t-13.5 -27.5l2 -5q12 -4 18 -4zM512 258q10 0 20.5 2t20.5 4q39 8 86 29q10 6 20.5 12t20.5 10l14 11l51 34q31 23 58 56q4 4 4 11 t2 11q4 4 1 2t1 2q0 4 -6 14.5t-10 8.5q-27 -10 -49.5 -22.5t-49.5 -24.5q-10 -4 -19 -11.5t-20 -11.5l-12 -6l-43 -24q-4 -4 -10 -6.5t-10 -6.5q-12 -10 -25.5 -19t-26.5 -20q-25 -18 -41 -47l3 -4q16 -4 20 -4z" />
<glyph horiz-adv-x="0" />
<glyph unicode="&#xd;" horiz-adv-x="897" />
<glyph horiz-adv-x="0" />
<glyph horiz-adv-x="0" />
<glyph unicode=" "  horiz-adv-x="485" />
<glyph unicode="&#x09;" horiz-adv-x="485" />
<glyph unicode="&#xa0;" horiz-adv-x="485" />
<glyph unicode="!" horiz-adv-x="604" d="M133 469q4 16 4 29.5t4 29.5q0 16 5.5 34t9.5 32q10 29 17 54.5t15 53.5q18 86 45 154q6 10 7.5 22.5t5.5 20.5q6 12 9 23.5t9 23.5q4 10 6 21.5t9 21.5q18 59 37.5 119.5t35.5 124.5q8 20 11.5 41.5t7.5 44.5q4 2 3 6t3 8q2 4 8 7t10 -1q16 -4 29 -28q16 -12 8 -33 q-10 -35 -17 -67.5t-20 -67.5q-18 -59 -38.5 -118.5t-43.5 -119.5q-4 -23 -13 -45t-15 -45q-4 -23 -11.5 -39t-11.5 -35q-20 -61 -36.5 -121.5t-26.5 -123.5q-4 -14 -7.5 -26.5t-7.5 -29.5q-2 -10 -10 -12t-12 0q-6 8 -17 8q-4 6 -7 15.5t-5 17.5zM102 115q-4 2 -7 1t-7 1 q-2 2 -8 12q-8 12 -11 17.5t-3 21.5q2 10 3 14t3 7.5t5 8.5l9 15q35 31 60.5 11.5t15.5 -62.5l-8 -17q-10 -14 -21 -24t-31 -6z" />
<glyph unicode="&#x22;" horiz-adv-x="358" d="M326 1317q-2 -4 -3 -11.5t-6 -11.5q0 -10 -3 -18t-5 -19q-8 -23 -26 -36q-14 -12 -31 4q-6 6 -4 12q2 14 4 26.5t8 24.5q6 20 9 40t7 40q2 6 1 11t-1 12q-4 4 5 12q2 4 6 4t6 -2q6 -6 13 -10t11 -11q6 -4 7.5 -8t3.5 -10q2 -10 1 -22.5t-3 -26.5zM242 1327 q-2 -23 -7.5 -43t-13.5 -43q-8 -16 -26 -16q-4 -4 -5.5 -1t-5.5 1q-20 0 -12 22q4 10 6 20.5t4 22.5q4 23 8.5 42.5t2.5 39.5q0 12 5 18.5t15 -1.5l10 -9q20 -14 19 -30q2 -6 1 -11.5t-1 -11.5z" />
<glyph unicode="#" horiz-adv-x="626" d="M182 946q-8 0 -20 -4q-14 -4 -27.5 -1t-25.5 7q-27 10 -25 41q4 16 14 12q16 -4 35 -3t35 1q6 0 10 2q12 4 23.5 4.5t23.5 2.5q10 0 11 8q0 16 4 32.5t6 32.5t4 29.5t6 30.5q2 4 -1 7t-7 1l-66 -12q-16 -4 -28.5 7t-16.5 25q-4 8 6 15q4 4 7 4l71 14q10 2 18.5 1t18.5 1 q10 0 16 13l7 20q4 23 10 41t12 39q4 10 19 10q12 0 26 -10q6 -4 6 -12q4 -23 -2 -39q-2 -10 -4 -19.5t-6 -19.5q0 -4 2 -7t6 -1q23 0 33 2q4 0 7 1t7 1q10 4 20.5 2t18.5 6q6 8 7 17t6 20q4 10 7 18t7 19q8 20 26 12t23.5 -15.5t3.5 -25.5l-6 -29q0 -6 4 -6q20 -4 37 2 q23 4 46.5 4t47.5 -2q27 0 33 -28q2 -4 -2 -8.5t-8 -4.5q-16 2 -31.5 -1t-32.5 -1q-25 0 -49.5 -3t-48.5 -7q-12 0 -17 -16q-8 -25 -13 -49.5t-11 -49.5v-14q0 -12 14 -12q12 0 19 2q23 6 43 6t43 -2q2 0 3 -1t3 -1q4 -2 5 -4t3 -4q0 -6 -4 -11q-16 -14 -35 -16l-82 -16 l-16 -7q-4 -2 -5 -4t-3 -4l-8.5 -25.5t-2.5 -27.5v-18q-2 -8 -10 -11.5t-16 0.5q-16 10 -19 29v19.5t-2 19.5q0 8 -6 8h-8q-6 0 -10 -2l-72 -14q-8 -4 -14 -4q-8 -4 -9 -11l-8 -34q-2 -12 -12 -23q-14 -12 -20 4q-2 4 -2.5 6t-4.5 6q-4 8 -4 14.5t2 14.5q2 2 0 6l-2 2 q-2 0 -2 2q-10 0 -20.5 -1t-20.5 -3zM412 1108q0 4 2 6q2 14 4 26.5t6 26.5q0 8 -4 9q-23 -2 -43.5 -6.5t-42.5 -8.5q-10 0 -15 -12l-10 -43q-6 -18 -9 -37.5t-7 -40.5q-2 -2 0 -4t6 -2h25q12 4 24 6t25 4l24 6q2 0 6 4z" />
<glyph unicode="$" horiz-adv-x="790" d="M268 199q0 20 2 30l6 29v13.5t3 15.5q0 16 2 26q2 2 -1.5 5.5t-5.5 0.5q-14 -4 -40.5 -3t-38.5 6q-10 -2 -19.5 2t-17.5 8l-39 14q-14 8 -25 27q-2 0 0 3t4 3q8 0 13 -2q6 0 14 -4q18 -4 36.5 -9.5t39.5 -5.5h18t19 -2h14q16 2 28.5 4t26.5 2q66 6 137 31l54 23 q45 18 77 45q12 12 19 24q12 10 14 14.5t2 20.5q0 6 -2 10q-4 10 -8 20.5t-12 20.5q-16 16 -36 27.5t-38 22.5q-29 14 -59.5 25t-63.5 20q-33 10 -62.5 21t-58.5 26q-29 10 -56.5 24.5t-49.5 36.5q-29 23 -45 55q-10 23 -11.5 54.5t9.5 54.5q10 23 22.5 40t28.5 34 q25 23 52.5 42t55.5 36l50 26l65 31q6 2 11.5 4t9.5 4q8 2 10 14v15q4 12 4 24.5t4 24.5l25 80q2 6 6 12t8 14l8 4q4 4 15.5 3.5t15.5 -5.5q4 -4 6 -9t6 -13q0 -4 -2 -6q-2 -4 -4 -8.5t-4 -10.5q-10 -20 -15.5 -40.5t-11.5 -43.5q-4 -12 -4 -18q0 -12 13 -8l20 4t20 6 q31 6 60 6q27 0 47 -20q10 -10 14 -26.5t9 -31.5q0 -12 -15 -22q0 -2 -4 -2q-12 2 -25 12q0 4 -1 5t1 5q-2 6 -2 19q0 4 -6 4h-8q-12 0 -25.5 -1t-25.5 -3q-35 -10 -70 -20.5t-67 -26.5q-29 -10 -54.5 -23.5t-52.5 -30.5l-59 -37l-12 -10q-25 -20 -46 -45q-31 -25 -40 -59 q-10 -16 6 -33q16 -27 51 -51q16 -10 34.5 -17.5t34.5 -15.5l41 -16l31 -11q16 -4 27 -8q14 -6 28.5 -11t28.5 -9q20 -6 36.5 -14.5t37.5 -14.5q61 -27 112 -78q33 -35 39 -92q4 -45 -30 -82q-12 -10 -24.5 -21.5t-27.5 -19.5q-43 -23 -88 -41q-41 -12 -69.5 -21t-69.5 -14 q-4 -2 -7 -3t-5 -5q0 -12 -2 -20q0 -14 -2 -23q-8 -18 -10.5 -37.5t-6.5 -38.5q0 -12 -3 -21t-7 -19q0 -2 -12 -11q-23 -14 -27 8q-6 20 0 39q2 5 2 13z" />
<glyph unicode="%" horiz-adv-x="913" d="M979 1337q-2 -14 -8 -25.5t-13 -25.5l-59 -82l-131 -180q-20 -25 -39.5 -51.5t-42.5 -52.5l-100 -136l-43 -53l-49 -63q-4 -4 -6.5 -9.5t-6.5 -9.5l-8 -10l-53 -66q-20 -31 -41 -51q-23 -23 -39 -48t-35 -50l-16 -18l-17 -21q-8 -10 -14 -19.5t-16 -19.5l-15 -16 q-14 -25 -28 -39q-20 -27 -41 -52.5t-39 -52.5l-60 -80l-22 -30q-10 -10 -18.5 -21.5t-18.5 -21.5q-6 -4 -18 -4q-6 2 -17.5 6t-15.5 8q-4 2 -4 10l8 17q14 23 29.5 43t31.5 43q14 16 27.5 33.5t26.5 33.5q4 4 6 9.5t6 9.5q6 6 13 12t13 16q4 4 8.5 12.5t8.5 16.5l16 23 q8 6 15 14q6 14 18 22q20 14 31 37q0 6 4 11q14 16 24.5 31.5t26.5 31.5q4 4 9 8t9 10q33 43 65 84t65 82q6 8 10 16.5t10 16.5q4 8 12 14.5t15 12.5q10 16 21 29.5t22 29.5q4 8 11 14.5t13 12.5q4 6 7 13t10 11q6 4 10 17q4 6 9 13t13 13l13 15q16 35 39 53q6 8 10 15 t10 14l31 36q8 8 10 13q6 20 20.5 34.5t24.5 32.5q0 2 1 2t1 2q16 14 26.5 29.5t22.5 30.5l8 12q16 29 36 54.5t36 54.5l37 63q12 18 14 39l2 4q8 12 21 6q6 -2 18.5 -6t18.5 -8q10 -9 10 -25zM295 1176q0 6 4 18q6 23 19.5 44.5t29.5 41.5l12 12l25 19q6 4 13.5 3t15.5 3 q12 2 24 0l17.5 -7t11.5 -12l6 -8q14 -16 16.5 -29.5t-8.5 -33.5q-18 -47 -59 -78q-12 -12 -23 -14q-16 -10 -34.5 -11.5t-36.5 2.5q-8 4 -13 9q-10 10 -16 24q-4 5 -4 17zM602 63q-16 -2 -43 11q-27 18 -29 51v12t5 17q8 25 19 49t30 47q10 14 16 18q8 6 18.5 4t14.5 -8 q4 -4 5 -8t3 -8q2 -8 -4 -21l-8 -8q-16 -8 -27 -33q-8 -12 -15 -25.5t-12 -29.5q-2 -2 -2 -10q0 -6 7 -6q8 -2 24 2q43 14 74 51q14 18 20 39q4 10 -6 16q-2 2 -4 5t-6 5l-16 9q-8 0 -11 6q0 2 -1 4t-1 6t2 4q16 4 21 4q20 0 31 -12q25 -20 30 -59q0 -23 -6 -37 q-8 -20 -21.5 -34.5t-29.5 -29.5q-4 -4 -10 -8t-15 -8q-26 -17 -53 -15zM444 1278l-4 6q-18 14 -30 -4q-6 -10 -13.5 -18.5t-15.5 -18.5q-10 -10 -18.5 -22.5t-16.5 -26.5q-8 -12 -8 -25q-4 -6 0 -6t5 -1t5 1q14 2 35 13q16 10 29.5 24t23.5 31q10 20 8 43v4z" />
<glyph unicode="&#x26;" horiz-adv-x="837" d="M883 1296q0 -16 -5.5 -33.5t-13.5 -33.5q-6 -16 -14 -30.5t-14 -31.5q-4 -8 -9.5 -16t-13.5 -16l-25 -35q-4 -12 -12 -22.5t-14 -20.5q-35 -43 -65.5 -83t-65.5 -77q-8 -10 -16.5 -21.5t-18.5 -21.5q-4 -8 -4 -16q-2 -12 -3 -24.5t1 -25.5q2 -20 2 -38.5v-36.5 q4 -12 3 -24.5t-1 -22.5q2 -8 3 -13.5t1 -13.5q6 -37 11 -76t16 -80l20 -94l8 -18q4 -6 9 -2q8 4 16 10t16 10q20 16 47 31q8 2 23 2q2 -2 2 -4l-2 -8l-14 -19l-9 -8l-18 -14l-39 -33q-4 -2 -6 -5t-6 -5q-2 0 -2 -9q4 -16 10 -30.5t14 -30.5q0 -6 4 -10q2 -4 -2 -8 q-14 -14 -32 -13h-5q-16 4 -21 7.5t-9 17.5q-4 16 -8 29h-5q-2 0 -4 2q-14 -4 -25.5 -11.5t-23.5 -13.5q-12 -10 -24.5 -16.5t-22.5 -16.5q-4 -2 -7 -4t-7 -2q-10 -2 -18.5 -8t-18.5 -10q-29 -14 -56.5 -24.5t-56.5 -20.5q-16 -4 -32.5 -8.5t-34.5 -6.5q-16 -4 -35 -7 t-35 -1q-41 0 -82 21q-29 12 -37 38.5t-4 49.5q6 23 14.5 43t16.5 43q14 23 28.5 46t30.5 48l43 61l13 11l4 6q8 16 18 28.5t21 24.5q4 6 9 14t15 13q4 10 10.5 14t10.5 12t9 13.5t9 13.5q0 2 2 4q16 16 27.5 31.5t25.5 31.5q16 16 29.5 31.5t24.5 32.5l8 8t10 6q4 2 8 10 q4 6 6 10.5t4 10.5l43 47q10 10 11 18q0 23 6 46q0 12 2 16q4 20 4 31q4 4 4 10t2 10q0 4 4 21v6q2 16 8.5 32.5t10.5 32.5q10 41 26 76l15 31q2 16 16 37v2q12 27 29.5 48t34.5 44q16 16 34.5 30.5t40.5 22.5q27 12 54 0q8 0 20 -8q25 -12 29 -43v-21zM227 186q14 0 23 2 l80 17q29 10 53.5 20.5t48.5 22.5q29 10 58.5 25.5t54.5 35.5q2 0 3 1t3 1q10 6 20.5 12.5t18.5 14.5q8 4 4 16q-2 16 -7 31.5t-7 32.5q-8 33 -14.5 65.5t-12.5 65.5q-4 23 -7 46t-5 46q0 16 -2 31.5t-2 27.5q-4 14 -3 29.5t3 32.5q-2 0 -2 4q0 2 -3 2l-8 -6 q-10 -12 -20 -20.5t-17 -22.5l-47 -47q-10 -16 -22 -29.5t-23 -30.5q-27 -31 -50 -62.5t-48 -62.5q-16 -23 -33 -38l-6 -13l-20 -39q-12 -16 -23.5 -32.5t-17.5 -34.5q-10 -16 -16.5 -30.5t-10.5 -33.5q-8 -14 -4 -39q0 -4 1 -5t1 -3q10 -29 43 -33h16zM629 965l16 18 q16 23 32.5 43.5t31.5 42.5l24 31q8 8 15.5 19t13.5 22l4 10q10 10 16 29l23 39q12 37 12 75q0 6 -2 11.5t-2 9.5q-4 4 -10 4q-6 -4 -12.5 -6t-10.5 -6q-12 -10 -24.5 -22.5t-20.5 -22.5q-23 -25 -39 -54.5t-26 -58.5q-37 -78 -49 -154q-2 -2 -3 -6q-4 -8 -4 -16t-2 -19 q0 -4 2 -4q2 2 7 2z" />
<glyph unicode="'" horiz-adv-x="219" d="M266 1327q0 -10 -1 -23.5t-5 -25.5q-6 -20 -10 -36.5t-19 -39.5l-7 -7t-5 -7q-10 -12 -33 -8q-2 0 -2 2t-2 2v8l23 70q2 8 2 22q0 12 -10 10l-9 -4q-10 -2 -15 2t-11 11l-6 10v14t4 12q8 16 22 31q10 14 35 14q18 2 33 -12q2 -4 5 -6t5 -6q8 -13 6 -33z" />
<glyph unicode="(" horiz-adv-x="548" d="M84 440q2 10 2 18.5v20.5q0 14 1 28.5t5 29.5q0 18 3 35.5t5 33.5q2 27 11 53q4 25 11 47.5t13 45.5q4 23 9.5 44t11.5 42q12 47 29.5 89t35.5 87q12 35 28.5 66.5t33.5 62.5q4 6 6 11t6 11q23 31 43 65t45 64q8 8 14 16.5t13 18.5q14 16 28.5 32.5t30.5 35.5 q14 16 29.5 30.5t29.5 30.5q16 10 27 23q8 8 18.5 13t20.5 11q20 8 39 -8q8 -6 14 -14q10 -23 -6 -29q-14 -8 -27.5 -16t-27.5 -19q-4 -4 -6 -4q-35 -33 -66 -65.5t-59 -69.5q-35 -41 -66 -84t-59 -90q-4 -8 -7.5 -14.5t-7.5 -16.5q-14 -29 -28.5 -57.5t-26.5 -56.5 q-10 -23 -18.5 -45.5t-12.5 -47.5q0 -4 -4 -12q-4 -14 -7 -26.5t-5 -22.5q0 -6 -4 -14q-10 -18 -14.5 -37t-8.5 -37q-2 -10 -3 -18.5t-5 -18.5l-6 -25q0 -10 -2 -19t-6 -20q-4 -23 -8 -42t-4 -41q0 -6 -2 -9q-4 -14 -5.5 -27.5t-1.5 -27.5v-19.5t-4 -19.5q-2 -12 0 -20 q6 -23 2 -45q-2 -10 -1 -17.5t-1 -15.5q4 -23 4 -46.5t2 -45.5q0 -10 2.5 -18.5t4.5 -16.5q10 -84 38 -166q12 -35 26.5 -67.5t35.5 -63.5q31 -51 84 -74q4 0 8 -4q4 -10 2 -14q0 -8 -10 -8q-6 0 -8 2q-49 10 -82 45q-10 10 -18.5 21t-18.5 24q-51 76 -76 159 q-14 37 -22.5 74t-16.5 72v18l-8 54v28.5t-2 26.5q-2 14 -2 27.5t-2 23.5z" />
<glyph unicode=")" horiz-adv-x="569" d="M-47 -231q-4 0 -7 1t-7 1q-2 0 -2 2v8q8 8 16 14t18 12q14 8 22.5 18.5t16.5 20.5l13 15q14 16 26 29.5t25 29.5q8 12 17 22.5t20 24.5q6 10 13 18.5t15 22.5q6 4 8.5 7t4.5 8l10 20q4 8 11 14t11 11q6 10 10.5 18t10.5 18q8 8 12 19.5t8 21.5l8 15q16 18 27.5 37.5 t20.5 38.5q8 16 14 29.5t16 25.5q2 23 23 49q4 14 8 16q4 6 6 14.5t6 18.5q2 10 5 16.5t8 16.5q8 6 8 14q0 6 2 12.5t4 12.5q8 16 13 32.5t12 32.5q4 12 10 21q6 8 6 26q0 4 8 21q4 23 11.5 44t11.5 46q2 20 6 39.5t2 40.5q0 10 2 14q4 14 5 27.5t1 28.5v96q-2 16 -2 31.5 t-4 31.5v8q-2 29 -8 55.5t-13 55.5q-8 35 -22 65.5t-27 63.5q-45 92 -121 168q-10 14 -18 23.5t-23 19.5q-16 16 -34.5 33.5t-38.5 32.5q-12 2 -21 16q-8 16 8 20q18 6 37 -2q16 -10 31.5 -20t32.5 -23q16 -20 33.5 -36.5t33.5 -32.5q37 -37 69 -74t60 -84q6 -8 11 -22 q23 -47 39 -95.5t26 -101.5q10 -27 10 -53q6 -18 6.5 -39t0.5 -41q0 -10 2 -12q2 -12 3 -22.5t-3 -23.5q2 -23 0 -41t-2 -38v-23.5t-5 -21.5q-2 -4 -2 -9q0 -18 -4 -37.5t-8 -42.5q-2 -16 -8 -33.5t-14 -33.5q-6 -33 -19 -66q0 -2 -1 -3t-1 -3q0 -14 -7 -26.5t-11 -28.5 q-8 -27 -18.5 -50.5t-24.5 -49.5l-11 -31q-2 -6 -4 -9t-4 -8q-4 -14 -12 -29.5t-19 -29.5q-4 -4 -4 -8q-10 -20 -19 -38.5t-22 -41.5q-12 -16 -22 -33.5t-23 -36.5l-28 -55q-8 -6 -11.5 -12t-7.5 -13l-45 -59q-16 -29 -35.5 -52.5t-38.5 -45.5q-8 -4 -12 -8.5t-10 -8.5 q-6 -6 -12 -14t-15 -14q-12 -12 -25.5 -20.5t-25.5 -16.5q-22 -16 -53 -12z" />
<glyph unicode="*" horiz-adv-x="403" d="M262 1319q8 4 13.5 8t11.5 8q8 6 15 11.5t13 11.5q8 6 15.5 3t11.5 -11q2 -2 2 -9q-6 -12 -14 -20t-15.5 -16.5t-17.5 -14.5q-10 -8 -19.5 -17t-19.5 -20q-8 -8 -2 -18q12 -18 24.5 -36.5t28.5 -35.5q0 -2 1 -2t1 -2q2 -4 2 -10q-6 -6 -10 -6q-27 6 -39 18l-24 27 q-4 2 -9 -2q-4 -12 -6 -25.5t-4 -27.5q-4 -10 -6 -22.5t-2 -23.5q-4 -27 -23 -36q-8 -6 -14 0q-6 0 -8 6v8q-4 33 4 57q2 8 2 16.5t4 16.5q2 4 1 9t-1 10q0 2 -2 2h-2q-2 0 -6 -5q-12 -14 -27.5 -24t-31.5 -21q-4 -4 -17 -8q-23 -6 -37 15q-6 10 2 14q2 0 2 2l86 65l35 31 q14 6 2 19q-16 20 -32 39l-39 36q-4 8 -2 17q8 8 16 8q20 -4 37 -18l37 -39h2q4 0 4 4v6l4 29q0 4 1 10t1 10q0 10 2 17.5t6 17.5q0 6 6 6q16 6 29 -2q14 -8 14 -23q4 -10 0 -18q-4 -10 -5 -22.5t-1 -22.5z" />
<glyph unicode="+" horiz-adv-x="471" d="M207 512h-18.5t-20.5 -2q-12 -4 -27.5 -3t-29.5 1q-33 4 -62 22q-12 8 -12 21q0 20 12 16q16 0 27 -2q25 -6 47 -4q12 4 27.5 3t31.5 1q12 2 25.5 3t28.5 5q10 0 10 15q4 23 10 46l12 46q4 16 10.5 33.5t12.5 36.5q4 18 26 10l15 -6q23 -16 14 -49q-6 -23 -13 -45.5 t-11 -47.5q-2 -6 -3 -16q0 -6 7 -6l100 12q12 2 20.5 2h14.5q8 0 12 -8q2 -2 2 -12q-18 -18 -33 -21q-35 -10 -66.5 -17t-62.5 -11q-12 -2 -14 -15q-6 -23 -11 -47t-9 -49l-17 -68q-4 -8 -8 -12q-6 -8 -16 -8q-16 0 -19 12q-14 29 -8 55q4 12 5 24.5t3 29.5q2 12 4 23.5 t6 21.5q0 8 -8 8q-4 2 -14 2z" />
<glyph unicode="," horiz-adv-x="272" d="M129 395q0 -10 -1 -23.5t-5 -25.5q-6 -20 -10 -36.5t-19 -39.5l-7 -7t-5 -7q-10 -12 -33 -8q-2 0 -2 2t-2 2v8l23 70q2 8 2 22q0 12 -11 10l-8 -4q-10 -2 -15 2.5t-11 10.5l-7 10v14t5 13q8 16 22 30q10 14 35 15q18 2 33 -13q2 -4 5 -6t5 -6q8 -13 6 -33z" />
<glyph unicode="-" horiz-adv-x="516" d="M252 522q-4 2 -8 0l-8 -4q-10 -2 -18.5 -2h-18.5q-8 -4 -15.5 -4t-15.5 -2q-8 0 -17.5 -1t-17.5 -1q-16 -4 -27.5 4t-21.5 20q-2 4 -3 8.5t-1 10.5q0 8 10 8q4 -2 6 -1t6 1q66 0 134.5 6t136.5 10h12q8 -4 11 -12t-3 -16q-10 -14 -26 -17q-29 -4 -57.5 -3t-57.5 -5z" />
<glyph unicode="." horiz-adv-x="256" d="M84 354q-8 2 -14 13q-14 14 -15 32q2 10 2 14.5t2 7.5t4.5 8t8.5 15q31 29 59.5 13.5t22.5 -54.5q0 -4 -3.5 -7t-5.5 -7q-10 -16 -19 -25.5t-32 -9.5h-10z" />
<glyph unicode="/" horiz-adv-x="911" d="M987 1432q-2 -16 -8 -28.5t-12 -27.5l-60 -88l-133 -192q-20 -29 -39.5 -56.5t-42.5 -56.5q-25 -37 -50.5 -74t-51.5 -71l-43 -58l-49 -67q-4 -4 -6.5 -9.5t-6.5 -9.5q-4 -8 -8 -12l-53 -70q-16 -27 -41 -55q-23 -25 -40 -51.5t-36 -52.5l-16 -21q-4 -6 -8 -11t-9 -11 q-8 -10 -14 -20.5t-16 -20.5q-6 -6 -15 -19q-12 -20 -28 -41q-20 -29 -41 -55.5t-39 -54.5l-62 -86l-22 -33q-10 -12 -18.5 -24.5t-18.5 -22.5q-6 -4 -18 -4q-6 2 -17.5 6t-15.5 8t-4 12l8 17q14 25 29.5 47t31.5 45q14 18 27.5 36.5t26.5 37.5q8 12 14 18q6 8 13 14t14 17 q4 6 8 14l8 16t16 25q6 4 15 16q6 14 18 23q23 18 31 41q0 6 4 10q14 16 24.5 33.5t26.5 34.5l9 9t10 11q33 47 65.5 90t65.5 88q6 8 10 16.5t10 18.5q4 8 12.5 14.5t14.5 14.5q10 16 21 31.5t22 31.5q4 8 11 14.5t13 14.5q4 6 7.5 14.5t9.5 12.5t10 16q4 8 9 15.5t13 13.5 l13 16q10 16 19 30.5t22 26.5q6 8 10 15.5t10 15.5l31 39q8 8 10 12q6 23 20.5 38.5t24.5 35.5q0 2 1 2t1 2q16 14 26.5 30.5t22.5 33.5l9 12q16 31 35.5 59.5t37.5 57.5l37 67q4 10 8 20.5t7 20.5q0 2 1 3t1 3q8 12 20 7q6 -2 18.5 -7.5t18.5 -9.5q10 -8 10 -24z" />
<glyph unicode="0" horiz-adv-x="884" d="M41 356q0 16 1 33t5 29q2 25 6 47t10 45q20 78 52 154q4 14 10 25t10 28q2 6 3 13t5 13l9 17q14 43 34 67q6 6 7 9q0 12 6 22t10 27q2 6 7 14t9 14l15 23q4 4 7 9t5 11q4 10 10 16.5t10 14.5q4 6 7.5 15.5t7.5 15.5q14 23 25.5 40t27.5 34q14 23 30.5 42t32.5 37 q29 35 66 65t72 58q43 33 96 11q10 -4 21.5 -10.5t21.5 -16.5l6 -12q2 -2 2 -8.5t-2 -8.5q-6 -6 -16 -6q-2 0 -6.5 1t-8.5 1l-18 8q-6 4 -21 0q-16 -4 -34.5 -14t-34.5 -20q-16 -16 -32.5 -30.5t-35.5 -31.5l-10 -12q-43 -49 -82 -102.5t-74 -110.5l-34 -64l-23 -49 q-4 -10 -10 -20.5t-10 -20.5q-12 -23 -22.5 -43t-18.5 -47q-10 -33 -21.5 -64.5t-23.5 -64.5q-10 -33 -16.5 -63.5t-14.5 -59.5q-4 -23 -7 -42t-1 -40q0 -8 -2 -10q-4 -14 -4.5 -28.5t-0.5 -30.5v-33.5t5 -34.5q2 -23 7 -38t13 -34q6 -25 16 -34q4 -4 8.5 -12.5t12.5 -12.5 q18 -18 43 -18q23 -2 42 -1t36 9q25 8 49 19t43 26q14 10 28.5 20.5t26.5 20.5q10 12 29 24q6 14 18 23q4 2 8.5 5t6.5 9q4 10 11 17.5t15 13.5q10 6 18.5 16.5t12.5 20.5q8 16 19.5 29.5t21.5 27.5l31 53q10 14 20 32t17 34l6 6t4 6l28 56l13 34q20 35 33.5 77t23.5 83 q2 10 5 21.5t5 25.5q4 20 8.5 39t8.5 37v15.5t2 15.5q4 16 4 30.5v30.5q-2 41 -11.5 82t-25.5 78q-12 27 -32.5 47t-45.5 37q-10 8 -21.5 17t-23.5 16q-2 0 -2 4q2 0 3 1t3 1q47 6 76 -17q16 -14 29.5 -24t23.5 -23q39 -39 62 -96q6 -10 8 -20.5t6 -24.5q4 -16 4 -18 q0 -20 6 -33q4 -12 2 -17q0 -29 6 -49q-4 -12 -4 -22.5v-24.5q0 -4 -1 -7t-1 -7q-6 -16 -7 -33.5t-1 -34.5q0 -18 -8 -26t-8 -23q-2 -25 -9.5 -46.5t-11.5 -41.5l-26 -55q-12 -20 -21 -47q-4 -10 -9 -21.5t-9 -23.5q0 -2 -4 -11q-6 -8 -11.5 -18t-9.5 -21q-8 -25 -20 -36 q-8 -10 -15.5 -23.5t-13.5 -26.5q-4 -4 -7 -10l-5 -10q-10 -10 -19.5 -21.5t-13.5 -23.5q-4 -10 -12.5 -18.5t-12.5 -18.5l-12 -12q-6 -8 -12 -14.5t-11 -16.5q-12 -8 -14 -16l-17.5 -17.5t-27.5 -28t-27.5 -27.5t-17.5 -16q-16 -10 -29.5 -20t-27.5 -20q-61 -41 -129 -50 q-6 -2 -19 -2q-39 4 -69.5 10.5t-59.5 26.5q-8 10 -18 18.5t-17 16.5q-33 37 -49 84q-4 23 -8 48.5t-4 49.5v88z" />
<glyph unicode="1" horiz-adv-x="436" d="M-10 86q4 8 3 15.5t1 15.5q4 8 5 16t1 17l6 30q4 23 14 39q4 8 5 21l4 24l20 70q6 10 9 22.5t8 22.5q12 35 21 68.5t24 66.5q4 8 5 16.5t5 16.5l10 31q2 20 19 36q2 4 2 13v14l24 72q14 20 17 39v4q10 18 15 36.5t11 38.5l8 19q4 8 7.5 14t5.5 15q4 16 9 30.5t9 28.5 q8 23 16.5 42t14.5 40q0 2 4 10q2 8 5 14.5t7 14.5t4 15t4 16q8 23 16.5 44t16.5 44q4 10 6 18t-2 18q0 6 -4 3q-10 -4 -18.5 -10.5t-18.5 -14.5q-10 -6 -19 -13.5t-20 -15.5q-10 -4 -18 -2q-10 4 -20.5 7t-20.5 14q-6 10 2 18l4 6l8 6q43 33 86 62q10 8 20.5 12t20.5 8 q29 6 47 -4q16 -8 23 -14q20 -16 14 -43q-10 -41 -24 -80q-10 -29 -20.5 -58.5t-24.5 -58.5q-10 -25 -18.5 -50t-18.5 -50q-6 -16 -12.5 -31.5t-10.5 -32.5q-14 -37 -27.5 -73.5t-25.5 -73.5q-14 -37 -27.5 -74t-23.5 -73q-14 -35 -25.5 -71t-23.5 -73l-37 -112 q-4 -16 -8.5 -31t-10.5 -31l-10 -45q-6 -23 -11 -45.5t-14 -44.5q-4 -4 -4 -10q0 -14 -1 -28.5t-3 -29.5q0 -10 2 -14q4 -10 -2 -14q-4 -4 -7 -5t-7 -4q-4 0 -9 -1t-9 1q-8 0 -13 5q-8 6 -12 16q-14 16 -8 35v10z" />
<glyph unicode="2" horiz-adv-x="1089" d="M967 1038q2 -23 -2 -46t-11 -46q-6 -27 -15 -50.5t-19 -49.5l-31 -78q-8 -16 -16.5 -30.5t-18.5 -30.5l-4 -7q-6 -16 -16.5 -31.5t-20.5 -31.5q0 -4 -2 -5t-4 -5l2 -2q4 0 5 -1t3 -1q33 -6 64.5 -16.5t64.5 -20.5l39 -19q14 -6 26.5 -13t24.5 -15q6 -4 11.5 -10.5 t9.5 -10.5q8 -8 8 -12q4 -4 0 -7t-8 -3q-16 4 -33.5 6t-34.5 12q-23 10 -47 21.5t-47 17.5l-29 6q-16 6 -26 6q-8 0 -15.5 2t-17.5 2q-10 2 -31 2q-6 0 -12 -6q-6 -12 -16 -22q-12 -20 -25.5 -33.5t-24.5 -30.5q-10 -14 -21 -26.5t-22 -22.5q-6 -10 -13 -18.5t-15 -18.5 l-9 -10q-25 -23 -47 -45.5t-47 -44.5q-20 -18 -40.5 -34.5t-41.5 -33.5q-23 -18 -43 -32.5t-43 -30.5l-57 -39q-14 -8 -27.5 -14.5t-25.5 -14.5l-8 -4q-27 -10 -50.5 -20.5t-52.5 -16.5q-39 -8 -86 -2q-16 4 -29.5 9.5t-23.5 15.5q-37 29 -47 65q-4 16 -4 28.5t2 27.5 q0 4 1 9t3 7q6 8 8 16.5t10 12.5q4 8 4 14q8 29 29 49l14 12q4 4 4 7.5t5 7.5q2 12 16 12q2 -2 6 6q0 8 8 12q27 14 41 33q0 -2 4 6q23 12 40.5 24.5t37.5 23.5q8 4 8 10q0 14 9 14q12 4 21 11.5t20 11.5q10 4 18 9t18 9l11 4q23 4 47 27q6 4 22 8q39 12 72 27q8 2 14 4 t13 4q12 0 26 10q6 2 19 2q6 -6 6 0q23 8 44 9t42 12q2 2 10 2q16 -4 31.5 -1t29.5 3q10 4 23.5 5t24.5 -1q6 0 10 2q6 0 12 6q16 23 29.5 40t23.5 40q2 2 2 5t2 5q20 27 32.5 54.5t27.5 56.5q6 16 11 29.5t11 25.5q10 18 16.5 35.5t10.5 36.5q2 10 3 20t5 19q4 14 4 26v27 q2 8 1 14t-1 14q2 20 -3 39t-9 37q-10 27 -25 39q-23 25 -52.5 40t-63.5 24q-41 8 -78 6q-35 -2 -68 -7.5t-67 -15.5q-25 -6 -41 -20q-61 -25 -111 -70q-14 -10 -26.5 -24.5t-22.5 -30.5q-6 -8 -10 -29q-4 -8 -11.5 -8t-11.5 4l-28 27q-8 14 -5 32l7 13q14 25 31.5 45 t37.5 37l15 8l45 31q33 18 67 30q12 6 24.5 10.5t22.5 8.5q25 10 49 10q16 2 35 3t35 5h6h21.5t21.5 -2q23 -4 45.5 -6t42.5 -12l19 -6q39 -20 63 -41q23 -20 37 -39q27 -27 42 -61t24 -68q2 -6 2 -19v-37zM496 358q12 20 28 35q16 14 30.5 29.5t31.5 30.5q12 20 27.5 35.5 l31.5 31.5q10 12 17.5 21.5t11.5 21.5q6 10 -4 6l-56 -4q-14 -4 -26.5 -5t-24.5 -3q-16 -4 -30.5 -8t-30.5 -8q-23 -4 -43.5 -14.5t-44.5 -16.5q-10 -4 -21.5 -8t-21.5 -10q-68 -31 -129 -68q-78 -51 -136 -107q-8 -4 -16 -12l-16 -18q-12 -16 -22.5 -29.5t-20.5 -30.5 q-10 -18 -16.5 -34.5t-10.5 -32.5q-4 -18 2 -33q4 -12 14 -18q12 -6 31 -7q10 2 19.5 1t17.5 1q20 4 37.5 9.5t34.5 9.5q10 2 15 8t15 6q4 2 6.5 5t6.5 5l10 9q10 4 18.5 8t16.5 8q10 4 18 10t17 13q10 8 20 14t19 14q6 8 14 12.5t18 8.5q12 -4 13 8l6 8q8 4 14 10t12 13 q4 4 11 4l10 6q10 6 15 10t9 10q16 29 54 45h-2zM498 358q0 -2 1 -3t1 3h-2z" />
<glyph unicode="3" horiz-adv-x="1165" d="M588 674h-21.5t-23.5 -4q-4 -2 -13 -2q-23 2 -42 -1t-37 -8q-18 -4 -35 -9t-33 -15q-8 -4 -16.5 -9t-18.5 -10l-37 -12q-23 -12 -46 -19t-50 -14q-8 -2 -14 -3t-15 -1q-14 0 -20 13q-4 6 -6 13t-6 15v21q4 8 8 10q10 4 20.5 8t20.5 8q6 4 22 9q20 4 38 11t38 15 q25 10 45 10q23 2 41.5 10.5t36.5 18.5l68 37l16 8q10 10 22.5 16.5t22.5 10.5q12 6 21.5 14t19.5 16l20 11l13 8q12 14 25.5 22.5t25.5 18.5q8 4 13 7t9 7q18 16 37 32.5t39 31.5l4 4q23 25 45.5 46t42.5 50q37 49 54 94q6 14 6 31q0 4 -4 12t-9.5 14.5t-11.5 12.5 q-6 4 -11 8t-13 6q-61 27 -129 15q-4 0 -8.5 -1t-8.5 -1q-33 -2 -64.5 -9.5t-64.5 -15.5q-41 -12 -79 -26.5t-74 -30.5q-41 -18 -82 -45q-10 -8 -21.5 -15.5t-25.5 -15.5q-6 -8 -11.5 -14.5t-7.5 -16.5q-6 -12 -22 -16q-2 0 -4.5 1t-6.5 1l-7 7t-5 7q-4 4 -6 10t-4 11 q-6 6 -2 18q-2 14 10 25q23 23 47 41l98 55l17 6q37 23 80 35q4 0 9 2t11 4q16 8 30.5 10t31.5 6q27 4 47 13l41 10q16 2 31.5 5t31.5 1h10q33 8 61.5 5t57.5 -11q76 -25 107 -105q6 -14 9 -20t3 -12t-1 -13.5t-3 -21.5q-2 -23 -12 -45q-25 -57 -72 -105q-23 -25 -47.5 -50 t-50.5 -48q-10 -4 -17.5 -10t-15.5 -10l-23 -25l-14 -10q-12 -4 -18 -11q-6 -8 -17 -12l-8 -6q-10 -10 -20.5 -16t-22.5 -13q-4 -4 -4 -6q-12 -12 -27.5 -20t-27.5 -17l-7 -6q0 -2 2 -2l2 -2q14 0 21 2q18 6 33 2q4 0 6 1t6 1h74q4 0 10 1t10 -1q10 -4 21.5 -4t25.5 -2h20.5 t20.5 -4t22.5 -4t22.5 -4q27 -4 51.5 -10.5t47.5 -16.5q27 -10 50 -24.5t48 -30.5q57 -47 65 -115q6 -47 -16 -86q-4 -10 -10 -19t-17 -18l-18 -26q-4 -2 -12 -11q-8 -4 -17.5 -11t-17.5 -17l-14 -10q-14 -2 -25 -17q-14 -10 -28.5 -20.5t-28.5 -16.5t-29 -16 q-16 -10 -32.5 -18.5t-33.5 -16.5q-18 -6 -34.5 -13t-32.5 -16q-23 -10 -45.5 -19t-46.5 -17q-23 -12 -48.5 -21.5t-50.5 -19.5q-16 -6 -32.5 -10.5t-32.5 -10.5q-4 -2 -12 -2l-21 -4q-18 -10 -40.5 -13t-45.5 -10q-6 -2 -14 -4t-15 0q-8 0 -15 -1t-17 -5q-6 -4 -12.5 -4 t-12.5 -2q-8 -4 -14 -2t-15 0q-8 -4 -28 -4q-10 0 -17 -2q-10 -4 -19 -4h-20h-67q-18 2 -36.5 6t-41.5 10q-29 14 -39 37l-6 10q-10 20 -10 41q2 10 5 17.5t13 11.5q2 0 6 8q6 4 11 2q0 -2 1 -4t1 -4q0 -4 -2 -10t0 -13q-2 -4 0 -9t2 -13q0 -12 14 -16q4 -4 12 -6.5t19 -6.5 q6 -2 12 -2t12 -4q8 -4 18.5 -5t20.5 5h29q4 0 8 -1t8 -1q20 0 41 1t41 1q14 4 28.5 6t28.5 8q12 4 19 5q18 0 36.5 6t39.5 10q12 4 23.5 9t25.5 1q8 4 16 6t17 6q14 10 26.5 14.5t28.5 8.5q23 6 46.5 13t47.5 16l72 34q10 4 18 8.5t19 6.5q6 0 14 4q20 10 38.5 20.5 t41.5 20.5l18 8q35 29 62 47q6 4 11 7t9 5q20 6 37 25q10 10 20.5 18.5t20.5 18.5q16 14 29.5 29.5t19.5 37.5q4 6 4 11.5t4 9.5q8 33 -14 55q-10 10 -23.5 20.5t-23.5 18.5q-33 20 -65.5 30.5t-69.5 20.5q-16 4 -31.5 5.5t-30.5 5.5q-35 10 -72.5 9t-76.5 -1h-88z" />
<glyph unicode="4" horiz-adv-x="989" d="M78 745q4 0 24 5q33 10 65 19t62 24l52 22l36 10q10 4 18.5 8.5t16.5 8.5l39 12q12 4 24.5 8t22.5 10l15 5q29 6 56.5 14t55.5 14l76 19q12 4 16 14q6 20 19 43q2 4 5 6t3 6q2 16 6 29.5t8 28.5q6 16 11.5 32.5t13.5 32.5q4 6 5 13.5t3 13.5l27 82l37 110q4 12 8 24.5 t8 24.5q2 14 20 15q27 -6 43 -29q4 -4 5 -10l-5 -21q-12 -29 -22 -55.5t-21 -54.5q-14 -37 -25 -74t-28 -76q-6 -20 -13 -39.5t-15 -42.5q-2 -10 -5.5 -19t-7.5 -20q0 -4 -1 -5t-1 -5q-2 -4 1 -7t7 -1q16 4 34 5t34 5h32.5t33.5 2h106h15.5t17.5 2q8 0 8 -10q4 -10 0 -20 l-2 -2q-8 0 -12 -5.5t-13 -7.5q-16 -2 -34.5 -7t-34.5 -1h-6q-29 -8 -66 -4q-25 0 -48.5 -4t-45.5 -8q-6 0 -8 -2q-20 -4 -29.5 -5t-13.5 -6.5t-7.5 -14.5t-9.5 -28q-18 -41 -30.5 -85t-28.5 -87q-18 -47 -33.5 -95t-32.5 -95q-6 -18 -12 -35.5t-10 -34.5q-4 -16 -9.5 -33.5 t-11.5 -33.5q-6 -23 -13 -42.5t-11 -41.5q-6 -27 -14.5 -51.5t-12.5 -53.5q-4 -12 -6 -24.5t-2 -26.5q-4 -35 20 -61l7 -6q6 -6 -5 -11l-6 -6q-27 -6 -45 4q-20 12 -35 37q0 4 -1 5t-1 5q-2 6 0 12.5t0 12.5q-4 18 0 37q4 6 5 22q2 10 4 17.5t6 17.5l4 33q10 25 16 49.5 t15 46.5q8 27 15 53.5t17 51.5q2 12 6.5 24t6.5 25q0 10 4 14q6 10 8 19.5t4 19.5q2 6 4 11t6 12q2 6 10 18q2 4 0 8t-2 8t5 6q10 23 15 43.5t17 43.5q2 2 2 8q0 14 2 20q4 16 11.5 32.5t11.5 33.5q2 8 5 15t7 15q4 10 9.5 20.5t5.5 22.5q0 8 12 25q0 4 -2 6h-4l-88 -22 q-53 -14 -102.5 -32t-100.5 -38q-45 -16 -89 -32.5t-89 -30.5q-25 -8 -47 -13l-31 -4q-27 0 -49 19l-8 8q-35 37 -17 92q10 29 22.5 56.5t26.5 56.5q29 49 59.5 96t65.5 94l58 72l12 18l92 121q6 12 20 8q4 -2 6.5 -2t4.5 -2q12 -8 20 -20q14 -16 0 -31q-18 -23 -36.5 -47.5 t-39.5 -46.5q-41 -47 -76.5 -97.5t-70.5 -101.5q-10 -12 -18.5 -25.5t-14.5 -25.5q-2 0 -4 -2q-16 -35 -34.5 -67t-30.5 -66l-13 -33q-4 -16 13 -17h10z" />
<glyph unicode="5" horiz-adv-x="987" d="M598 1300q31 6 64.5 11.5t68.5 13.5l78 14l72 13h12q10 -4 17.5 -2t17.5 0q6 0 18 8q6 6 15 6q18 -8 45 2q10 2 18 2h16q10 2 18.5 1t18.5 -1q4 0 4 -4q-2 -10 4 -16l7 -9q2 -2 0 -5t-5 -3l-12 -4q-20 -4 -39.5 -8t-40.5 -8q-72 -18 -141 -31l-117 -20q-2 0 -4 -2.5 t-4 -2.5q-51 -10 -100 -18t-99 -18q-18 -4 -35.5 -7.5l-37.5 -7.5q-20 -2 -33 -18q-23 -29 -42.5 -53.5t-41.5 -53.5q-29 -33 -53.5 -63.5t-48.5 -65.5q-29 -43 -56.5 -85t-50.5 -89l-31 -63q-2 -2 -2 -11q-4 -16 13 -12q12 2 24 3t25 5l82 15q6 4 13 2t13 2l27 8q12 4 18 4 q14 -2 28.5 1t29.5 5q14 2 27.5 4t29.5 0q14 0 21 2q4 0 10 2t12 2q10 0 18.5 -4t18.5 2q10 4 19.5 2t19.5 -2l41 -4l63 -12l62 -14q2 -2 6 -2q31 -14 57.5 -28.5t48.5 -41.5l23 -27q18 -23 24.5 -44t8.5 -48v-12q-6 -35 -23 -70q-6 -12 -14 -22t-13 -21q-10 -12 -18 -23.5 t-18 -21.5q-20 -20 -38 -37.5t-38 -33.5q-29 -23 -56.5 -41.5t-58.5 -34.5l-43 -25q-8 -2 -15 -6t-16 -8l-12 -6l-96 -45q-25 -6 -49 -21q-12 -4 -17 -4q-12 -2 -25.5 -7t-23.5 -7l-45 -15q-23 -4 -43 -11t-41 -11l-100 -12q-23 0 -50.5 3t-50.5 11q-29 8 -45 29 q-10 10 -17 21t-9 26q-4 10 0 22q0 4 2 4q4 0 4 -2q4 -4 6 -8t6 -8q29 -33 72 -37q23 0 45 -1t45 1q10 2 20.5 4t20.5 0q10 0 19.5 3t19.5 5l41 11q33 6 59 18q29 10 60.5 19.5t62.5 25.5q4 0 5 1t5 1q18 4 29 10q4 4 7 2t5 2q6 6 14.5 9.5t16.5 7.5l25 14q8 4 14 6l12 4 q8 2 14.5 3.5t10.5 11.5q6 6 12 6q16 14 34.5 24.5t35.5 20.5l47 35q10 14 22.5 21t26.5 18q6 6 6 10q16 23 34.5 44t33.5 46q10 14 14 30.5t10 33.5v6q0 10 -1 16t-1 12q0 16 -10 31q-16 18 -33 29q-29 16 -57.5 27.5t-63.5 15.5q-8 0 -8 2q-23 6 -43 7t-43 3l-63 2 q-18 -4 -39 -4t-39 -2q-25 -2 -48.5 -4t-47.5 -6q-31 -8 -65 -14.5t-66 -14.5q-16 -2 -35 -6t-35 -8q-23 -6 -37 2t-25 24l-20 27q-2 10 -4 18.5t-2 18.5q4 14 6 27.5t8 29.5q25 51 54.5 97.5t58.5 93.5l20 28q10 14 21.5 28.5t19.5 31.5q4 10 12.5 16t12.5 14 q23 23 39 44.5t33 46.5l14 16q18 8 6 24l-10 27q0 4 4 11.5t8 7.5q10 4 17.5 6t15.5 2q6 2 12 0q16 8 27 18q12 12 21 23.5t20 25.5q4 6 11 12.5t15 12.5q14 4 23 -2q8 -4 8 -8l12 -15q14 -20 9 -39q-2 0 -1 -1t-2 -1q4 -2 15 -2z" />
<glyph unicode="6" horiz-adv-x="1099" d="M293 8q-23 -4 -45.5 1t-42.5 11q-20 10 -31 21q-23 23 -42 47.5t-30 54.5q-8 20 -13 40t-9 42q2 14 1 25.5t-1 23.5h-4l-13 -6q-16 -10 -31.5 -19t-29.5 -26l-9 -9l-11 -11q-33 -27 -60 -60q-4 -4 -6 -4q-4 -4 -8 -7t-8 -3q-16 10 -17 18q-8 20 8 37l12.5 12.5t10.5 16.5 q6 18 31 31q10 2 20 16l39 41q6 6 12 6q8 0 13 4l4 8q10 18 35 25q8 0 13 6t9 12q6 16 12.5 32t10.5 32t10 35.5t14 38.5l8 16q4 12 8.5 21.5t12.5 19.5q6 6 9 14.5t7 18.5q0 6 4 18q14 18 23.5 39t19.5 41q16 23 29.5 47.5t30.5 46.5q6 14 14 25.5t23 21.5q4 4 5 8.5t5 8.5 q0 8 8 20q12 18 25.5 37t25.5 39l6 8q23 23 38.5 45.5t37.5 42.5q6 10 13.5 20.5t15.5 20.5l141 168q23 25 45.5 48.5t42.5 50.5q10 10 21.5 20t23.5 20q2 4 6.5 4.5t6.5 -1.5l4 -3h2q10 -8 18 -19t14 -21q4 -10 -4 -23l-6 -4q-18 -16 -36.5 -35.5t-36.5 -38.5 q-43 -43 -85 -90t-83 -96q-47 -55 -91.5 -112.5t-85.5 -115.5l-14 -18q-20 -33 -39.5 -64.5t-42.5 -64.5q-14 -23 -25.5 -46.5t-27.5 -45.5q-18 -37 -35.5 -74t-32.5 -76v-6h11q6 4 11 8.5t11 8.5q18 16 39 18q12 4 22.5 8t24.5 10q8 8 16.5 12.5t18.5 8.5q10 8 14 12 q6 4 13.5 9.5t11.5 9.5q18 12 35 8q8 -4 16 4q25 16 50.5 27.5t51.5 25.5q2 2 4.5 2t6.5 2q16 4 31.5 9.5t31.5 13.5q14 14 39 14q23 0 47 15q14 8 33 8q8 0 16.5 1t14.5 1q8 0 10 2q27 12 49 12q12 0 16 2q27 6 66 2q8 -2 17.5 -2t19.5 -4q29 -10 47 -31l12 -12 q16 -16 25.5 -33.5t15.5 -38.5q6 -27 -2 -51q-14 -51 -43 -84q-6 -8 -12 -15t-8 -16q-10 -10 -17 -22q-20 -16 -38.5 -36.5t-39.5 -39.5q-16 -16 -47 -37l-10 -8q-10 -10 -19.5 -15t-17.5 -16q-18 -14 -37.5 -26.5t-37.5 -24.5q-12 -10 -24.5 -17t-27.5 -16 q-16 -8 -31.5 -17t-31.5 -19q-14 -8 -25.5 -15.5t-23.5 -11.5l-47 -21q-10 -6 -21.5 -10t-21.5 -8q-20 -6 -37 -14.5t-37 -10.5q-23 -4 -42 -9t-42 -1zM272 70q12 0 39 3t43 7q20 4 29 8q8 2 15.5 5t13.5 5q10 4 19 4t15 4l25 19q2 0 4 1t4 1q37 18 73 38.5t73 43.5 q12 8 24.5 16t28.5 6l2 2l33 25q4 6 9 11t11 12q10 8 21.5 15t21.5 15q18 12 27 21q12 18 35 28q6 2 14 15q4 4 8 11t8 11l6.5 6.5t6.5 4.5q4 4 16 18l31 41q16 18 26.5 40.5t18.5 45.5q12 41 -19 63l-16 7q-20 8 -42 12t-44 0q-23 -4 -42 -7t-40 -7q-14 -4 -28.5 -6.5 t-30.5 -6.5q-20 -8 -41 -15t-39 -11q-20 -10 -42 -17.5t-44 -15.5l-19 -6q-12 -10 -25.5 -15.5t-27.5 -11.5q-18 -8 -38.5 -17.5t-39.5 -21.5q-12 -8 -18 -10q-10 -4 -18.5 -10t-16.5 -8q-10 -4 -20.5 -9.5t-18.5 -9.5l-67 -37q-27 -25 -70 -47q-18 -12 -16 -27l-7 -28 q0 -14 -5 -24.5t-3 -20.5q2 -12 3 -23.5t-1 -23.5q0 -10 2 -15q4 -16 7.5 -28.5t11.5 -28.5q16 -39 53 -47q16 -4 30.5 -7t30.5 -3z" />
<glyph unicode="7" horiz-adv-x="817" d="M231 371q4 4 5 6q0 18 6 24l14 19q10 6 10 18q8 12 17 15q4 0 4 4q0 8 2 12q12 16 16 25l17.5 21t17.5 13q2 2 2 9q0 10 12 16q4 0 5 4t1 8q0 8 5.5 15.5t9.5 13.5q16 25 35.5 51.5t35.5 50.5q4 4 6.5 9.5t6.5 7.5q8 6 13 15t9 17l6 13l41 61q2 4 5.5 7t5.5 5q6 4 10 11 q0 4 4 12q8 4 12 12t8 17q4 6 8.5 11t8.5 11q4 4 10 19q6 14 13.5 24t17.5 19q6 6 8 12q25 45 59 90q-2 0 7 4q8 20 19 38.5t26 37.5q4 4 4 8q4 14 12 30.5t14 33.5q6 10 11.5 22t5.5 25q0 14 -19 22q-18 16 -53 17q-12 2 -26.5 2h-28.5q-16 0 -31.5 -1t-30.5 -1 q-10 0 -16 -1t-17 -1q-2 -2 -8 -2q-23 -2 -49 -6.5t-51 -8.5l-39 -6q-55 -8 -106.5 -17.5t-104.5 -19.5q-66 -16 -129 -24q-12 -4 -23.5 -6.5t-23.5 -4.5h-35q-18 0 -24 19q-8 18 -11 33q-4 14 9 14l49 6q12 0 16 2q10 4 18.5 4h16.5q20 0 39.5 2t40.5 10q6 2 22 3h15 q27 10 53 13t51 13q6 2 13.5 1t13.5 -3q10 -4 16 2q8 6 29 6q2 -2 10 2q10 4 21.5 8.5t21.5 4.5q14 0 26.5 1t26.5 5q6 2 13.5 2h13.5q16 -2 37 4q8 4 14 2q10 0 19.5 3t17.5 1q10 -2 17 -1t16 3q16 2 30 0q8 -2 14.5 -1t14.5 -1h33q55 0 96 -47l21 -37q8 -10 12 -31 q2 -4 2 -16l-12 -41q-8 -23 -16.5 -40t-18.5 -40q-23 -35 -46.5 -70.5t-45.5 -68.5q-33 -51 -65 -97t-62 -94l-99 -147q-12 -16 -22 -31.5t-21 -32.5l-18 -28q-18 -20 -31.5 -41t-30.5 -39q-16 -31 -33.5 -56.5t-37.5 -52.5l-39 -59q-8 -18 -23 -35q-14 -23 -28.5 -44 t-26.5 -44q-29 -43 -51 -90q-6 -8 -8 -17.5t-6 -19.5q0 -10 2 -12q4 -6 8 -12.5t4 -14.5q2 -8 -8 -12q-8 -4 -23 0q-10 6 -16 15.5t-10 19.5q-16 31 -7 63q4 16 11.5 33.5t19.5 30.5q4 4 8 16l23 39q6 10 14 21.5t15 21.5q0 2 2 2q6 4 11 7t7 7q0 6 3 11.5t5 11.5t5 11t7 9 l9 25q6 10 16 16q4 4 8 5.5t8 5.5v2z" />
<glyph unicode="8" horiz-adv-x="989" d="M109 -12h-32t-32 4q-25 4 -42 17.5t-34 29.5q-10 16 -20 31.5t-15 35.5q-6 27 -6 60q0 6 2 8q10 20 13.5 39.5t7.5 38.5q4 8 5 15t7 12q2 2 2 6q0 8 6 14q25 27 33 59q4 8 7 15.5t9 11.5q4 2 4.5 4t4.5 4q8 20 21 39t24 35q2 8 12 14q4 4 8 8.5t6 10.5l6 6t7 6 q0 10 5 17.5l9 13.5l41 43l14 18q4 6 7.5 13.5t9.5 13.5q10 6 15 14t9 19q6 6 11.5 11t13.5 9q8 2 16 14q10 14 25 27l9 9t7 11q2 4 4 6.5t4 6.5l52 51l49 37l6 12q2 2 -2 8l-12 6q-18 8 -36 13.5t-36 11.5q-27 10 -52.5 24.5t-50.5 30.5q-18 14 -32 41q-4 14 -8.5 26.5 t-6.5 27.5q-2 6 -1 11t1 9q6 25 19.5 44t32.5 38q29 23 56 44t62 42q20 6 37 17.5t37 21.5q23 12 44.5 22.5t45.5 20.5q29 12 56.5 23.5t56.5 21.5l24 6l13 4q10 4 22 7t25 7q51 14 108 25q12 0 19 2q14 4 24.5 4h20.5q25 -4 39 -22q4 -4 7 -9.5t5 -9.5q4 -8 7 -16t5 -14 q2 -8 0 -17l-6 -8q-6 -6 -10 -2l-8 4l-6 10q-10 12 -25 13h-47q-53 -6 -107 -19q-6 0 -10 -2l-92 -27l-16 -6l-93 -39l-24 -12q-10 -4 -20.5 -9t-20.5 -11q-23 -10 -43.5 -21.5t-42.5 -28.5l-10 -6q-23 -10 -40.5 -24.5t-33.5 -26.5q-37 -27 -55 -65q-10 -12 -7 -31 q4 -8 7 -8q8 -14 26 -21q20 -10 42 -21.5t44 -17.5q23 -6 42.5 -12t41.5 -16q2 -4 3 -4t3 -3q16 -4 21.5 -3t21.5 12q4 4 10.5 7t10.5 9q0 2 2 2t2 2q23 10 29 25q8 6 15 12t13 14q2 8 15 9q12 4 12 10q2 10 18 22q8 4 13 8q6 8 12 15.5t12 11.5q10 6 17.5 10t11.5 11 q10 10 20.5 15t18.5 15q6 4 12 9.5t12 13.5q4 4 7.5 5t5.5 3l18 10q6 4 14.5 8.5t14.5 12.5q14 14 30 22q8 2 21 11q8 8 16.5 15t18.5 11q12 2 20 17q8 12 15 12q4 0 6 2t4 2q4 4 10 7t10 7q10 14 37 15q6 -2 21 10q18 12 39 18q20 6 47 2q2 0 10 -4q10 -6 18 -16 q0 -8 -4 -10q-4 -4 -9 -7.5t-11 -5.5q-14 -6 -29.5 -14t-32.5 -14q-8 -2 -14 -5.5t-14 -7.5q-16 -10 -32.5 -19t-33.5 -20q-14 -6 -26.5 -15t-26.5 -19l-12 -9q-35 -20 -65 -43.5t-60 -48.5q-25 -16 -49.5 -35.5t-47.5 -40.5q-10 -8 -19 -16t-22 -14q-10 -10 -19 -18.5 t-19 -16.5l-21.5 -21.5t-24.5 -21.5q-4 -4 5 -8l14 -6q16 -6 31.5 -13.5t29.5 -17.5q2 0 11 -4q18 -6 35.5 -17.5t33.5 -23.5l10 -6q37 -29 66 -70t45 -76q16 -41 14 -82q0 -2 -1 -4t-1 -4q0 -31 -8 -58.5t-22 -51.5q-14 -18 -25 -41q-12 -23 -26.5 -39.5t-30.5 -34.5 l-11 -10q-27 -31 -56.5 -57.5t-59.5 -51.5q-10 -10 -21.5 -18.5t-21.5 -18.5q-10 -8 -23.5 -15t-25.5 -15q-8 -8 -19.5 -13.5t-19.5 -11.5q-10 -8 -19.5 -14.5t-19.5 -12.5q-6 -6 -23 -14q-35 -18 -71.5 -35.5t-75.5 -32.5l-29 -10q-6 0 -14 -4q-23 -8 -46 -12t-48 -2z M-14 135q0 -14 -2 -22q0 -25 16 -45q0 -8 6 -11q8 -4 12 -4q43 -16 84 -10q18 4 36 6t36 10l12 4q25 2 52 17q16 4 28.5 11t26.5 13q2 0 4 2q14 8 27.5 14.5t27.5 12.5q10 8 20.5 13.5t22.5 11.5q10 8 20.5 15t22.5 11l11 6q20 16 41.5 32t39.5 34l11 6q8 8 17 14.5t20 14.5 q4 4 16 8q10 4 12 16q0 4 4 8.5t8 8.5t9.5 10t11.5 10q14 12 25 25q4 8 12 14t12 15q6 8 10 15t13 15l20 29l23 45q16 37 18 70q0 10 1 21t1 24q0 25 -14 47q-6 10 -13.5 20t-15.5 21l-45 39q-20 14 -42.5 25t-45.5 24q-23 12 -47.5 20t-48.5 19l-15 4q-8 0 -12 -4 q-10 -4 -18 -19q-31 -31 -61.5 -60.5t-59.5 -62.5q-25 -23 -46.5 -48t-43.5 -52q-39 -47 -76 -94t-70 -98q-14 -23 -27.5 -43.5t-23.5 -43.5q-14 -25 -25.5 -49t-21.5 -51q-6 -20 -10 -40.5t-6 -43.5z" />
<glyph unicode="9" horiz-adv-x="874" d="M373 80q2 12 2 23.5t4 23.5q4 18 9 38.5t13 43.5q2 8 6.5 14t8.5 15l4 28q4 10 6 20.5t6 18.5t8 29q0 8 3 16t6 15q14 23 23 46t20 48q6 14 11 30.5t11 32.5l14 25q10 10 11 22q0 6 2 12.5t4 10.5q6 12 11 22.5t9 22.5q6 6 6 8q2 10 5.5 17.5t7.5 13.5q16 29 25 54.5 t24 53.5l18 43q10 10 13.5 23.5t13.5 28.5l22 45l7 16q2 14 10 26.5t12 26.5l-4 4q-16 -10 -30.5 -19t-30.5 -20q-29 -18 -53.5 -36.5t-51.5 -34.5q-37 -25 -71.5 -49.5t-75.5 -44.5q-12 -12 -23 -17q-10 -6 -19.5 -12t-19.5 -14l-55 -31q-33 -18 -62.5 -31.5t-62.5 -30.5 q-16 -6 -33.5 -7t-34.5 -5q-20 0 -38.5 4t-32.5 19q-8 4 -13.5 9t-13.5 13q-25 27 -24 66q0 4 -1.5 9t1.5 9q0 4 -1.5 6t1.5 6q4 10 5 20.5t5 20.5q6 16 13 31.5t13 32.5l9 16q14 18 22 31q12 20 25.5 35.5t23.5 36.5q4 2 6 5t4 5q16 8 23.5 19.5t20.5 21.5q18 27 43.5 50.5 t52.5 45.5q2 2 10 12q10 14 21.5 23.5t23.5 19.5l16 9l33 30q14 14 28.5 24.5t31.5 24.5l77 52q16 10 27.5 18t28.5 14l14 9q20 14 40.5 19t43.5 9h8q18 2 35.5 -4t30.5 -14q16 -8 25.5 -17.5t21.5 -19.5q14 -23 14 -51q0 -12 2 -21q0 -2 -1 -5t-1 -5q-4 -14 -6 -29.5 t-6 -31.5q-2 -6 -12 -11h-4l-9 5q-6 12 -20 26q-12 8 -8 25q0 23 6 41q4 10 4 20t-2 23q-6 6 -8 6q-14 8 -41 6q-35 -4 -63.5 -17.5t-57.5 -29.5q-45 -25 -88 -55.5t-82 -63.5q-16 -12 -29.5 -25.5t-25.5 -23.5q-10 -4 -13 -10q-8 -6 -16 -13.5t-12 -13.5l-82 -82t-74 -88 q-23 -31 -42 -63.5t-34 -69.5l-12 -47q-8 -16 -4 -29.5t12 -23.5q2 -8 10 -9q16 -4 39 0q12 4 25.5 7.5t28.5 5.5q33 6 63 24q18 14 39 27l8 6q20 4 28.5 8t18.5 15l78 51q18 14 33 14l10 4q8 10 17.5 15.5t19.5 9.5q4 2 4 4t2 4q6 6 12 11t17 7q4 4 9 6.5t7 6.5 q12 14 25.5 22t25.5 19q10 4 20.5 11t22.5 13q12 4 23 19q4 10 13 14t18 10q16 8 29.5 19.5t27.5 21.5q4 4 10 9.5t10 9.5q20 14 47 8l35 -19q8 -12 6 -26q-4 -18 -12 -37t-18 -37q-10 -23 -22.5 -45.5t-24.5 -44.5q-20 -41 -38 -81t-34 -81q-10 -23 -20.5 -43t-20.5 -43 q-6 -23 -16 -39q-4 -6 -5.5 -12t-5.5 -10q-6 -18 -16 -31q-14 -39 -28.5 -75t-30.5 -72l-19 -54q-4 -14 -9 -27.5t-9 -25.5q-8 -27 -15.5 -49.5t-15.5 -44.5q-2 -12 -7 -26.5t-9 -31.5q-2 -8 -5.5 -17t-5.5 -19q0 -4 -2 -11.5t-4 -11.5v-22q-4 -4 -3 -6.5t1 -6.5t1 -8 t-1 -12q0 -16 17 -23l10 -6q10 -8 -2 -16q-4 -4 -13 -8q-4 -2 -12 -3q-23 4 -31 11q-35 20 -32 63q0 8 1 14.5t1 14.5z" />
<glyph unicode=":" horiz-adv-x="235" d="M80 395q-4 2 -6 4t-6 7q-6 8 -9.5 13t-3.5 15q4 16 4 18.5t11 18.5q29 27 53 13.5t18 -48.5q0 -4 -2 -6t-4 -6q-8 -12 -17 -20.5t-28 -8.5h-10zM102 670q-6 8 -9 13t-3 15q4 16 4 18.5t10 18.5q29 27 53.5 13.5t18.5 -48.5q0 -4 -2 -6t-4 -6q-12 -20 -32 -27t-36 9z" />
<glyph unicode=";" horiz-adv-x="309" d="M188 418q0 -10 -1 -23.5t-5 -25.5q-6 -20 -10 -37t-18 -39q-4 -4 -7.5 -7t-5.5 -7q-10 -10 -17 -9.5t-15 0.5q0 2 -2.5 6.5t-2.5 6.5l23 69q2 8 2 23q0 12 -10 10q-2 -2 -4 -1t-4 -1q-14 -2 -27 10l-4 10q0 8 -1 14.5t3 12.5q8 16 22 31q10 14 35 14q18 2 33 -12 q2 -4 5 -6t5 -6q8 -13 6 -33zM152 674q-6 8 -9.5 13t-3.5 15q4 16 4 18.5t11 18.5q29 27 53 13.5t18 -47.5q0 -4 -2 -6.5t-4 -6.5q-12 -20 -31.5 -27t-35.5 9z" />
<glyph unicode="&#x3c;" horiz-adv-x="344" d="M49 557q0 16 17 43q8 14 22 29q16 18 33.5 34.5t34.5 32.5q23 18 44 36t42 40q8 10 18 18.5t21 18.5q8 12 20 2q18 -4 25 -20q12 -27 -4 -43q0 -8 -9 -11l-34 -30q-8 -6 -18.5 -11.5t-14.5 -17.5q-10 -6 -16.5 -12.5t-16.5 -10.5q-31 -16 -53 -47l-31 -33 q-8 -10 -15.5 -21t-11.5 -24q-4 -10 -3 -15l3 -15q10 -23 33 -45q14 -14 29.5 -27.5t32.5 -26.5q12 -8 23 -16l22 -16q16 -10 28.5 -23.5t22.5 -30.5q6 -8 9 -16t7 -18q0 -10 -8 -19q-10 -6 -12 -4q-10 6 -13 12q-6 2 -8 11q-8 18 -20 30.5t-29 22.5q-23 14 -43 30.5 t-43 32.5q-16 16 -30.5 31.5t-24.5 34.5q-8 12 -15.5 24.5t-11.5 26.5q-2 8 -3 17.5t1 25.5z" />
<glyph unicode="=" horiz-adv-x="493" d="M137 453q-39 -2 -47 30q0 14 10 17l13 6l53 4q10 4 23.5 2t23.5 2q12 2 25.5 3t23.5 5q6 0 13.5 1t13.5 1q14 2 27.5 3t25.5 5h16q8 0 21 -8q8 -8 2 -16q-8 -16 -31 -23l-12 -4t-12 -2q-23 0 -33 -4q-4 0 -8 -1t-9 -1q-10 0 -19 -1t-19 -5q-2 0 -5.5 -1t-5.5 -1 q-18 0 -36.5 -3t-34.5 -7q-6 -2 -13 -2h-6zM369 621q0 -2 2 -6.5t0 -6.5q-4 -4 -3 -6t-3 -4q-8 -4 -9.5 -6t-11.5 -2q-20 -4 -33 -8q-6 -2 -11 -3t-11 -1q-29 -2 -55.5 -6.5t-55.5 -8.5q-10 -2 -20.5 -2t-20.5 -4q-18 -4 -28 4q-4 4 -9 12q-14 29 17 35q20 2 39.5 6t40.5 2 h10q16 4 29.5 5.5t29.5 1.5q12 0 19 2q14 4 26.5 4h26.5q12 -2 14 -1t15 -3q-2 0 2 -4z" />
<glyph unicode="&#x3e;" horiz-adv-x="323" d="M31 256q0 8 4 12q10 23 22 39q20 27 41 53.5t45 49.5q10 8 21 24l53 60q18 18 27 47q4 4 -2 10q-6 10 -14.5 17t-16.5 16q-16 12 -30.5 24.5t-28.5 26.5q-16 16 -31 31.5t-25 35.5l-16 21q-4 6 -5 13t-1 14q0 16 14 16q20 -4 31 -23l18 -34l25 -35q14 -12 27.5 -25.5 t29.5 -25.5q25 -18 39 -35q6 -4 18 -21l13 -22q8 -23 0 -49q-8 -20 -17 -29q-23 -29 -41 -47q-6 -8 -12 -15.5t-14 -13.5q-23 -20 -41.5 -42.5t-40.5 -41.5l-8 -6q-10 -16 -21.5 -27.5t-21.5 -25.5q-4 -12 -23 -12q-8 -2 -16 8q0 2 -1 5t-1 7z" />
<glyph unicode="?" horiz-adv-x="495" d="M373 1280q-27 0 -51.5 -6t-47.5 -17q-33 -10 -60.5 -23t-55.5 -30q-25 -14 -47.5 -31.5t-44.5 -37.5q-4 -6 -10.5 -13.5t-16.5 -11.5q-6 -6 -12 -4q-4 4 -10.5 8t-14.5 8q-4 2 -4 5t-2 6q-4 8 2 14q8 18 20 29q23 20 45.5 37.5t49.5 33.5q35 23 73.5 40.5t79.5 33.5 q59 20 119 14q29 -4 53.5 -16t40.5 -41q20 -31 31 -66q4 -16 4 -29.5t-4 -29.5q-4 -8 -4 -15.5t-2 -15.5q-2 -4 -3 -8t-5 -8q-12 -27 -23.5 -53.5t-26.5 -53.5q-12 -20 -23 -38.5t-26 -36.5q-25 -43 -49 -80l-2 -2l-24 -41q-8 -18 -25 -35l-43 -68q-16 -23 -28.5 -44 t-28.5 -44q-10 -16 -20.5 -35.5t-20.5 -37.5t-24.5 -31.5t-29.5 -30.5l-4 -4q-8 -8 -18 -4q-6 4 -6 10q4 16 7 27.5t7 23.5t8 21.5t8 19.5q0 4 5.5 7.5t7.5 5.5q16 31 31.5 61.5t37.5 58.5q8 16 18.5 31t18.5 31q18 29 39 57.5t43 57.5l25 41q6 10 13 19t11 19l49 82 q35 57 52 134q8 41 -4 75q-2 6 -4.5 9.5t-6.5 7.5q-18 12 -34 12q-23 0 -33 2zM37 135q-4 2 -6 5t-6 7q-4 10 -7.5 16.5t-3.5 20.5q2 10 3 14.5t3.5 7.5t4.5 8t8 15q31 33 56.5 15.5t14.5 -58.5q0 -4 -2 -7t-4 -9q-10 -16 -20 -25.5t-29 -9.5h-12z" />
<glyph unicode="@" horiz-adv-x="1224" d="M338 100q-35 0 -65.5 6.5t-63.5 16.5q-27 8 -50.5 20.5t-45.5 28.5q-35 25 -55.5 57.5t-30.5 73.5q-4 14 -4 27.5v27.5q-2 12 -1 24.5t3 23.5q2 23 8 44t14 42q6 16 12.5 30.5t14.5 30.5q29 59 63 104q27 35 54.5 70t60.5 68q23 23 45 44t47 40q16 14 34.5 26.5 t35.5 24.5q35 25 71.5 48t75.5 42q45 23 91 41t93 29q23 4 46.5 9t48.5 5h18q53 10 104.5 -1t100.5 -36q63 -33 88 -98q29 -66 25 -138q0 -10 -3.5 -20t-5.5 -20q-4 -33 -14 -63t-25 -58q-23 -47 -50 -89t-62 -77q-14 -14 -26.5 -27.5t-26.5 -25.5q-25 -23 -51.5 -38.5 t-59.5 -23.5q-61 -16 -119 14q-29 14 -49 50q-12 18 -18 43q-10 25 -15.5 49t-3.5 51q0 6 -1 12t-1 10q0 6 -6 5q-6 0 -10 -2q-16 -12 -31.5 -23.5t-30.5 -26.5q-18 -16 -36.5 -29.5t-38.5 -25.5q-35 -23 -72 -18q-18 0 -33 6q-33 16 -37 55q-2 6 2 14q14 47 37 87t53 77 q20 25 44 45.5t51 40.5q39 29 92 23q14 0 22 -8q6 -6 13.5 -12.5t11.5 -16.5l18 -51q2 -4 1 -10.5t-1 -10.5q-2 -10 -14 -16q-10 -4 -21.5 0t-15.5 14l-8 19l-19 37q-2 4 -8 2q-23 -8 -47 -29q-68 -61 -112 -133q-14 -20 -23 -41l-4 -23q0 -14 14 -10l17 8q23 16 43 32.5 t43 33.5q16 14 34.5 26.5t36.5 24.5q25 20 64 16q18 -4 32.5 -17t16.5 -32q2 -37 0 -71q0 -33 10 -74q6 -25 19 -43q20 -35 61 -25q25 6 47.5 19.5t42.5 29.5q37 33 70 69t61 77q8 10 13.5 22.5t13.5 22.5q14 25 23.5 50.5t17.5 53.5q18 61 14 131q0 10 -3 20.5t-7 20.5 q-14 53 -70 82q-45 23 -94 27q-59 6 -119 0q-31 -4 -61.5 -12.5t-61.5 -18.5q-18 -4 -36.5 -12t-36.5 -17l-72 -36q-10 -4 -17.5 -10.5t-17.5 -12.5l-12 -8q-37 -23 -69.5 -49.5t-67.5 -50.5q-2 0 -6 -5q-25 -27 -50.5 -50t-48.5 -52l-24 -29q-10 -12 -18.5 -23t-18.5 -26 q-20 -31 -39 -63.5t-35 -67.5q-12 -27 -20.5 -54.5t-16.5 -55.5q-2 -8 -2 -23v-43q-2 -29 7.5 -52.5t21.5 -45.5q10 -18 33 -33q35 -29 82 -45q27 -8 52 -13.5t54 -2.5h43q37 -2 73 3t70 11q66 14 126.5 34.5t119.5 45.5q23 8 42.5 16t39.5 19q20 8 39.5 15t40.5 17 q14 6 29.5 11.5t31.5 9.5l4 -2v-8q-14 -23 -40 -39q-25 -14 -49.5 -27.5t-51.5 -24.5q-29 -10 -59 -28q-41 -23 -84 -37t-86 -29q-35 -10 -67 -17t-66 -14q-10 -2 -20.5 -3t-20.5 -1q-18 -2 -36 -2h-36h-47z" />
<glyph unicode="A" d="M1139 1198q0 -10 -4 -31q0 -8 -5 -16q-2 -23 -7 -45.5t-11 -46.5q-2 -12 -4 -25.5t-6 -27.5q-8 -31 -17.5 -62t-17.5 -61q-6 -14 -7 -28.5t-7 -29.5q-4 -12 -7.5 -25.5t-7.5 -27.5q-4 -12 -5 -25.5t-5 -27.5q2 0 2 -2q0 -4 2 -4q4 -2 13.5 -1t13.5 -1q4 0 10 -6.5 t8 -10.5q0 -4 -5 -14t-9 -14q-4 -2 -13.5 -5.5t-13.5 -3.5q-4 -4 -10 -4q-8 -4 -13 -1t-7 -5q-8 -31 -15.5 -55.5t-13.5 -54.5q-4 -16 -8 -29.5t-4 -30.5q0 -6 -3.5 -13t-3.5 -15q-4 -16 -9 -33t-3 -35q-6 -16 -8 -33.5t-6 -34.5q-8 -25 -8 -48t-2 -46q-2 -6 -1 -11t-1 -9 q-6 -16 -7.5 -35t-1.5 -35q-2 -27 1 -52.5t1 -51.5q4 -12 6.5 -25.5t4.5 -26.5q4 -14 -13 -14h-18q-16 2 -25 18q-4 4 -4 11q-16 39 -16 71q2 20 3 39t-3 35v8q8 23 7 43.5t3 42.5q2 10 2 29l4 23q0 4 2 7t2 7q0 27 5.5 51.5t9.5 50.5q0 14 2 23q6 14 7 29.5t7 31.5q2 4 1 7 t-1 8q0 35 14 65l7 21q4 14 7 22t5 25q0 4 3 7t5 7q2 8 0 8t-12 -2q-16 -4 -33.5 -2t-34.5 -2q-51 -6 -108 -18q-35 -6 -69 -11.5t-69 -15.5l-51 -12q-27 -8 -50.5 -15.5t-47.5 -17.5q-29 -6 -55.5 -18.5t-55.5 -20.5q-23 -6 -35 -27q-8 -10 -12 -19t-10 -19 q-16 -29 -24.5 -43.5t-14.5 -26.5t-12 -27.5t-21 -42.5l-39 -65q-10 -16 -14 -23.5t-8 -11.5t-9 -10t-14 -21l-22 -35q-4 -10 -10 -16q-12 -23 -39 -16q-18 0 -39 10q-10 4 -15 12q-12 12 2 23q14 14 26.5 29.5t23.5 31.5q8 14 12 18.5t7 7.5l7 7t12 18q4 4 5.5 7.5t3.5 5.5 q2 -4 13 12t23.5 37.5t23.5 42t13 24.5q4 8 7.5 16.5t9.5 14.5q8 10 12 22.5t12 22.5q2 2 0 5t-4 5q-16 4 -24 9q-20 10 -33 22q-8 8 -6 18q2 18 18 25q10 0 17 2q45 4 79 14q6 0 15 5q8 4 8 6q14 20 27.5 39.5t23.5 40.5l25 41q10 10 18 22t15 25q6 10 11 20t15 21q6 6 6 8 q10 20 24.5 37.5t24.5 38.5q6 12 14.5 22t16.5 23q8 12 14.5 23t16.5 22l35 49q25 35 51.5 69.5t52.5 69.5l49 59q12 14 24.5 28.5t27.5 29.5q4 6 10 10l102 96q16 12 25 17q8 2 16 10q10 10 23.5 16t29.5 13q25 6 52 2q6 0 14 -4l35 -19q16 -8 26 -29q20 -37 21 -77 q0 -14 -1 -28.5t-1 -29.5zM627 963v-2q-6 -6 -6 -5q-2 -6 -4.5 -11t-4.5 -15q-4 -8 -11 -10t-11 -9q-10 -16 -19.5 -29.5t-13.5 -31.5q0 -4 -6 -10q-2 -6 -12 -11q-14 -12 -25 -38q-4 -20 -20 -37q-4 -2 -4.5 -4t-2.5 -5q-4 -4 -5 -8t-5 -8q-12 -8 -19 -18.5t-14 -22.5 q-4 -6 -7 -12l-7 -14q-4 -4 -8 -9.5t-6 -13.5t-6 -13t-9 -14v-4l5 -2l114 31l127 33l25 6q16 4 31.5 7t31.5 3q16 2 30.5 6t31.5 8q2 2 6 2q14 -2 26.5 4.5t28.5 2.5q8 0 10 2h8h17t17 1l8 1h18q18 0 22 18v4q2 25 13 49q16 29 16 60q0 8 4 16q6 14 8 27.5t7 27.5 q6 16 10 31t10 29q10 27 10 55q0 10 2 21.5t6 21.5q4 16 9.5 32.5t3.5 33.5q0 2 1 4t1 4q8 23 10 44t6 44q2 16 2 29.5v29.5q-2 10 -3 22.5t-1 24.5q0 8 -2 14.5t-6 14.5q-4 10 -16 6q-6 0 -9 -2q-10 -4 -19 -7t-22 -7q-12 0 -17 -9.5t-15 -13.5q-6 -2 -10.5 -6t-8.5 -6 q-4 -4 -9 -7t-9 -7l-6 -8q-23 -8 -35 -24.5t-31 -29.5h-2q-2 0 -2 -2q-2 -12 -9 -19t-18 -14l-8 -8l-8 -8q-8 -12 -18.5 -23.5t-22.5 -23.5l-31 -39q-6 -10 -15 -20.5t-15 -20.5q-39 -45 -70 -90z" />
<glyph unicode="B" horiz-adv-x="1738" d="M647 242q-4 -16 -9 -32.5t-7 -33.5q-6 -10 -6 -14q-2 -6 -9.5 -8t-11.5 2q-10 4 -22.5 11t-12.5 17q-2 12 -1 23.5t3 21.5q4 27 12.5 50.5t12.5 50.5l8 20l8 17q4 12 7.5 23t9.5 22q8 8 8 14q4 16 11 33.5t14 34.5q10 16 15 29.5t13 27.5q4 4 1 8t-7 2q-6 2 -5 2t-5 -2 q-35 -4 -66 6q-16 4 -35.5 6t-35.5 5q-4 -2 -8.5 -1t-10.5 1l-49 12q-27 6 -41 20q-18 6 -29 31q-4 10 -5 21.5t-3 21.5q0 14 12 27q8 12 15.5 23t21.5 20l60 32q8 8 24 15q23 16 60 26q72 33 137 56q29 14 56.5 22t56.5 19q6 0 10 4q14 4 15 12t9 21q4 10 4 18t5 18l8 27 q12 18 12 43q10 18 14 37.5t9 36.5q6 18 10 33.5t2 33.5q2 4 3 9.5t5 11.5q4 20 4 37.5t8 38.5q2 2 -1 5t-5 3q-18 -2 -31.5 -4t-29.5 -6q-37 -6 -70 -10.5t-65 -10.5q-27 -6 -53.5 -12t-55.5 -17l-96 -22q-2 0 -4 -1t-4 -1q-29 -12 -54.5 -19.5t-54.5 -19.5 q-25 -10 -53.5 -19.5t-57.5 -19.5q-10 -6 -19 -10t-17 -11q-18 -10 -40 -18t-40 -18q-14 -4 -26.5 -10.5t-24.5 -14.5q-10 -6 -9 -20v-15q-4 -2 -4 -4t-4 -6q-10 -14 -22 -10q-20 -12 -56 -17q-31 0 -41 39q0 6 -2 13q0 16 6 20q2 2 2 3t5 3q29 23 58.5 40.5t61.5 29.5 q18 12 40 21.5t44 19.5l41 18q6 4 11.5 6t11.5 4q16 6 35.5 12.5t36.5 14.5q90 33 167 55q20 4 41 9.5t43 9.5l62 16t65 15q35 6 71 13t77 13q18 2 39.5 5t42.5 5q8 0 14 7q6 6 10 6q8 10 25 6l10 -4q6 -6 17 -4q6 0 14 -1t16 -1q49 6 99.5 9t99.5 5q33 0 62.5 -1t60.5 -1 l84 -10q8 -4 16 -3t17 -1q27 -4 53 -9.5t55 -11.5q16 -8 30.5 -14t29.5 -15q16 -8 25 -18t20 -25q10 -10 11 -20t3 -23q4 -14 -4 -28q-6 -12 -25 -29l-22 -20q-16 -12 -37 -23.5t-41 -19.5q-55 -29 -116.5 -52.5t-121.5 -46.5l-202 -67l-129 -41q-27 -8 -49.5 -15.5 t-49.5 -17.5l-22 -8q-10 -2 -15 -15q-4 -8 -6 -17t-8 -17l-10 -19q-2 -8 -4 -15t-11 -18q-2 -2 -2 -4t-2 -6q-4 -16 -12 -35.5t-18 -38.5q-10 -16 -16.5 -32.5t-14.5 -36.5q-4 -2 -3 -5t5 -3q10 0 19.5 -2.5t21.5 -4.5q4 0 6 1t6 1q10 -4 19.5 -6t19.5 -2q12 -4 22.5 -4 t20.5 -2q12 0 25.5 -2t25.5 -2q12 -2 26.5 -5t27.5 -7q16 -2 33.5 -4t35.5 -6q10 2 19 -3q41 -8 80.5 -15t80.5 -17q18 -4 37 -13.5t37 -15.5q14 -4 28.5 -11t26.5 -11q25 -10 47.5 -25.5t47.5 -32.5q10 -6 17 -15t17 -20q4 -6 7.5 -11t9.5 -9q20 -37 20 -74q0 -16 -2 -22 q-4 -10 -10 -20.5t-16 -22.5q-12 -18 -29.5 -31.5t-40.5 -28.5q-25 -18 -57 -30l-92 -35q-8 -4 -16.5 -6.5t-18.5 -6.5q-20 -2 -39 -12q-10 -2 -19.5 -5t-19.5 -3q-4 -2 -10 -2q-25 -16 -60 -17q-4 -2 -7 -1t-7 -3q-16 -10 -33.5 -12t-36.5 -6q-6 -4 -12 -3t-12 1h-8.5 t-6.5 -2q-16 -8 -39 -8q-16 -6 -32.5 -6t-32.5 -11q-2 -2 -4 -2t-6 -2q-35 -4 -74 -9t-76 -9q-10 -2 -18 -3t-19 -1q-10 -4 -21 -5t-22 -4q-6 2 -18 -2q-10 2 -19.5 0t-17.5 -2q-10 -2 -17.5 -2h-17.5q-10 -2 -25.5 -3t-25.5 3q-4 0 -7 1t-7 -1q-6 -6 -9 -2q-14 2 -25 1 t-22 -3q-8 0 -10 2q-10 4 -16 2t-17 -4q-43 -2 -78.5 0t-76.5 13q-12 6 -27 6q-10 4 -18.5 4t-18.5 6q-12 8 -19 10t-18 10q-4 2 -3 5.5t-1 5.5q-6 6 0 12q4 4 11 2q14 4 22 2q10 -8 16.5 -2t18.5 0q20 -6 42.5 -12t45.5 -6q4 -2 5 -1t5 1q25 -6 46.5 -5.5t49.5 0.5 q45 -4 86 7q6 -2 14.5 -2h14.5q39 4 76 7t76 7q14 2 28.5 3t28.5 5q45 4 90 12.5t90 16.5q20 4 39 7t39 7q8 4 15.5 4t17.5 4l145 35q39 10 80 24.5t80 30.5q29 10 52.5 22.5t45.5 29.5q27 14 45 30q20 16 29 41q2 6 -2 15q-6 27 -27 41q-10 8 -20 17t-21 17 q-27 16 -53.5 29.5t-54.5 22.5q-14 4 -29.5 9t-30.5 9l-8 4q-29 14 -60.5 20.5t-62.5 12.5q-8 0 -16 4q-8 0 -14.5 2t-10.5 0q-16 4 -33.5 6t-33.5 4q-10 2 -22.5 5t-24.5 1h-6q-25 8 -51.5 9.5t-51.5 5.5l-24 4q-4 2 -10.5 1t-10.5 -1q-16 4 -35.5 5t-38.5 3q-4 0 -10 -3 t-8 -5q-4 -2 -4 -6q-4 -18 -12.5 -35t-16.5 -35l-26 -59q-6 -16 -13.5 -34t-15.5 -30q-8 -20 -8 -31q-4 -20 -11.5 -38.5t-11.5 -36.5zM1458 1327q-12 -2 -25.5 -1t-25.5 5q-4 0 -9 2t-12 0q-27 2 -53 3t-55 -1q-57 0 -114.5 -2t-114.5 -8q-8 0 -11 -2q-12 -4 -12 -10 q-4 -23 -9 -40.5t-1 -39.5q-2 -4 -5 -9t-3 -12q0 -4 -2 -8t0 -8q0 -16 -4.5 -29.5t-8.5 -29.5q-4 -29 -12 -54.5t-12 -54.5q-4 -12 -8.5 -23.5t-10.5 -21.5q-2 -6 0 -16q0 -4 6 -4q12 0 21 8q35 10 71.5 20t73.5 27q14 4 26.5 7t25.5 7q23 8 45 15.5t49 15.5q14 4 30.5 11 t34.5 11q16 4 30.5 12.5t33.5 10.5q23 12 50.5 22.5t55.5 20.5q8 4 18.5 7t18.5 9l41 21q18 10 34.5 16t31.5 17q18 10 36 32q4 8 -2 11q-6 8 -16 9t-20 5q-23 10 -48.5 18.5t-54.5 12.5l-12 4q-16 6 -25 6zM547 645q16 -2 32.5 -4t34.5 -6t38 -5t40 -3q8 -2 11.5 0t13.5 2 q6 0 10 8t8 14t6 17q10 16 14.5 29.5t10.5 23.5l25 51q2 8 6 14.5t6 14.5q2 20 16 37q0 4 1 7t1 5q6 6 -2 6q-4 -2 -9 -3t-9 -5q-27 -10 -46.5 -18.5t-47.5 -22.5q-29 -8 -55.5 -18.5t-55.5 -22.5q-29 -14 -57.5 -28.5t-53.5 -37.5q-10 -4 -18 -7t-12 -11q-10 -10 0 -14 q6 -6 14 -6q10 -4 18.5 -5.5t16.5 -5.5z" />
<glyph unicode="C" horiz-adv-x="1101" d="M-14 299v33q2 14 2 26.5t6 24.5q2 29 13 55.5t16 55.5q6 14 10 29.5t10 31.5q2 4 4 9t4 11q6 10 15.5 17.5t11.5 19.5q4 10 8 17.5t8 15.5l19 37q14 23 27.5 45.5t29.5 42.5q10 18 23.5 34.5t25.5 33.5q10 12 23 20q6 4 12 10t10 11q12 12 15 22q2 10 8 16.5t12 12.5 l43 47q6 8 14.5 14t18.5 15q10 6 15 15t13 15q25 16 45.5 37t45.5 41q8 8 16 13.5t18 13.5q6 4 12.5 8t12.5 12l8 13q16 10 31.5 22t38.5 21q8 4 10 10q8 12 27 20q16 12 35.5 24.5t37.5 22.5q25 16 48.5 28.5t46.5 23.5q20 8 37.5 16t39.5 14q23 8 46.5 13.5t46.5 9.5 q8 2 14 0q33 -6 56.5 -25.5t33.5 -44.5q4 -12 -8 -16q-4 -2 -10.5 -4t-12.5 2q-8 4 -12 8q-10 8 -33 4q-10 -4 -21.5 -5t-21.5 -3q-94 -27 -170 -70q-16 -10 -32.5 -18t-32.5 -19q-25 -16 -50.5 -32.5t-50.5 -34.5q-20 -20 -44.5 -37t-47.5 -37l-20 -16l-152 -140 q-8 -6 -22 -24l-9 -13q-31 -29 -53 -59.5t-47 -60.5q-10 -10 -17 -22.5t-16 -22.5q-10 -10 -18 -24.5t-21 -27.5q-18 -31 -35.5 -63.5t-31.5 -67.5q-2 -12 -10 -22q-16 -39 -27.5 -79t-22.5 -79q-6 -14 -7 -28.5t-5 -30.5q-2 -14 0 -29q6 -29 6 -53q0 -8 6 -10 q12 -47 37 -80q10 -12 22.5 -22.5t31.5 -20.5q23 -10 48 -14.5t50 -8.5q10 0 20.5 1t20.5 1q4 0 10 1t12 1q29 0 56.5 5t52.5 10q35 8 69.5 20t69.5 23q14 4 26.5 9t28.5 9q16 2 29 8q23 10 43.5 18.5t42.5 18.5q10 4 22.5 8t22.5 13l6 4q16 -2 23.5 7t21.5 17q8 6 10.5 8 t2.5 3.5t3 1.5t13 4q8 0 12 4q14 12 39 8h4q4 0 8.5 -4t6.5 -8q0 -4 1 -9.5t1 -9.5q0 -2 -1 -2t-1 -2v-2l-15 -14q-10 -6 -12 -9.5t-2 -5.5t-2 -3t-12 -7q-18 -6 -16.5 -9t-12.5 -11q-18 -8 -20.5 -10.5t-1 -2.5t-2 -1t-21.5 -7l-18 -8q-41 -18 -79 -33.5t-79 -32.5l-41 -14 q-43 -16 -89 -27.5t-91 -21.5l-29 -4h-11t-14 -2q-49 -8 -96 0q-6 2 -22 2q-14 4 -29.5 7t-34.5 9q-41 12 -70.5 38t-58.5 61q-27 33 -43 69q-16 39 -16 78v43h-2z" />
<glyph unicode="D" horiz-adv-x="1693" d="M956 1323h111q23 -4 43 -5t43 -5q2 0 3 -1t5 -1q25 0 49.5 -7.5t49.5 -11.5l22 -6q33 -10 65.5 -21.5t61.5 -21.5q61 -27 119 -67q20 -14 37.5 -31t33.5 -37q47 -55 66 -125l4 -27q-2 -10 2 -20t4 -21q0 -10 -2 -19t-4 -17q2 -8 0 -21q-4 -25 -14 -48.5t-23 -45.5 q-20 -37 -45.5 -69.5t-52.5 -63.5l-25.5 -25.5t-27.5 -23.5l-47.5 -38t-44.5 -36l-13 -8q-29 -20 -59.5 -41t-65.5 -37q-23 -14 -43 -26.5t-43 -24.5l-49 -25q-35 -16 -68.5 -31.5t-70.5 -29.5q-20 -10 -42 -18.5t-42 -16.5q-18 -8 -37.5 -16.5t-36.5 -14.5q-14 -4 -27.5 -7 t-25.5 -7q-47 -18 -98 -31q-33 -8 -63 -17.5t-62 -15.5q-18 -4 -27.5 -6t-13.5 -6t-5 -13.5t-8 -25.5q-4 -10 -3 -19.5t-3 -17.5q-6 -23 4.5 -43t18.5 -43q4 -14 -10 -10q-2 0 -5.5 1t-7.5 1q-10 2 -20 12q-8 10 -25.5 18.5t-23.5 18.5l-4 8t-2 9q4 18 5 36.5t5 36.5 q0 2 -1 4t-1 7q0 6 -6 6q-4 0 -7.5 1t-7.5 -1q-12 -2 -22.5 -3t-20.5 -1q-6 0 -10 -2q-35 -6 -74 -5.5t-80 0.5q-61 0 -110 21q-10 4 -20.5 9t-20.5 11q-4 2 -5 4.5t-5 6.5q-25 25 -31 55q0 16 8 27q10 -2 14.5 3t8.5 9q2 2 6 0q4 -8 5 -23.5t3 -25.5q0 -10 18 -21 q14 -10 37 -12q37 -8 76 -8t78 2q2 0 4 -1t6 1q18 4 37.5 4t36.5 2l46 8l46 8q12 4 18 15q10 20 16.5 44.5t10.5 47.5l8 26q4 6 7 13.5t3 17.5q0 2 5 10q4 8 7 17.5t7 19.5q6 18 6 39q8 10 11 18.5t7 18.5t6.5 19.5t6.5 19.5t7 22.5t7 22.5q6 6 6 12q-2 10 2 18.5t8 18.5 q8 16 9 29q0 10 2 17t4 16q0 12 10 22q4 4 5 10.5t3 12.5q4 12 8.5 22t4.5 23q-6 6 0 6q8 10 9 22.5t7 22.5q4 8 2 14t2 15q6 6 7 11t1 11q0 14 2 21q8 10 11.5 21t5.5 22q0 16 4 31.5t12 31.5q0 2 2 4t0 4q-6 16 -1 26.5t5 20.5q-2 14 2 25.5t6 24.5q4 10 5.5 21t9.5 19 q2 4 2 11q0 12 2 22.5t6 20.5t6 22.5t4 22.5q0 10 -10 10q-4 -4 -9 -2t-9 -2q-23 -4 -43.5 -8t-43.5 -8q-53 -10 -107 -27.5t-108 -36.5q-35 -12 -67.5 -28.5t-65.5 -32.5l-45 -31q-12 -16 -10 -31q4 -4 -1 -8t-11 -4q-10 0 -15 2l-10 6q-10 10 -21.5 20.5t-15.5 24.5t0 19 q10 12 20.5 26.5t22.5 22.5q35 25 70 38t70 29q43 18 88 31.5t90 24.5q4 2 9 4t9 2q12 0 23.5 3t23.5 7l21 6l35 6q25 6 47 6q8 0 20 5q10 4 17.5 5t15.5 1q20 0 23.5 4t7.5 20q4 20 6 40t6 40q4 18 5 35.5t1 34.5q4 16 5 28.5t-1 28.5q0 10 -2 19.5t-4 17.5q0 6 -2 11t-2 9 q0 18 16 19q2 0 3 1t6 1q18 -4 22 -8l23 -31q4 -8 7 -16.5t3 -16.5l4 -90q0 -6 -1 -11t1 -9l-16 -99v-8l4 -4q2 -2 10 -2h45t47 2h18zM535 211q10 -2 16 -3t16 3q8 4 16.5 5t18.5 5q18 0 41 12q8 8 19 9q12 0 22 2t21 6q10 4 17 6t15 4q8 0 19 6q12 6 25.5 12.5t29.5 8.5 q16 4 27.5 10t27.5 10q10 10 27 10q4 0 8 2.5t8 4.5q8 4 14.5 7t16.5 3l33 16q29 10 47 27q14 8 37 16q12 4 20 11.5t19 11.5q14 4 26.5 12t28.5 6q10 10 23.5 19.5t25.5 17.5l10 6q20 10 38 24.5t38 24.5q4 0 8 4l15 13q23 16 42 29.5t35 27.5q10 6 18.5 12t16.5 17 q18 14 32.5 28.5t31.5 30.5q18 23 37.5 44.5t33.5 43.5q4 8 9.5 13.5t11.5 13.5q4 10 8 16l8 12l13 35q6 25 8 57.5t-2 57.5q-2 23 -9.5 42t-23.5 38q-20 23 -40.5 42t-47.5 36q-27 16 -55.5 30.5t-57.5 24.5q-14 6 -28.5 11t-30.5 9l-82 21q-18 4 -32.5 6t-30.5 4 q-23 4 -43.5 6t-43.5 2q-8 0 -10 2q-12 4 -24.5 4.5t-26.5 0.5h-88h-28.5t-28.5 -5q-8 -2 -29 -2q-10 -2 -27 -2q-6 0 -10 -8q-4 -6 -5 -12t-3 -10q-6 -31 -11 -65t-16 -64q-2 -6 -2 -13.5t-4 -13.5l-12 -68q-6 -29 -13.5 -56.5t-15.5 -55.5q-6 -31 -15 -61.5t-18 -61.5 q-4 -25 -11 -49.5t-13 -48.5q-10 -25 -17.5 -49.5t-15.5 -47.5l-43 -137q-2 -4 -2 -8q-14 -41 -26.5 -80t-28.5 -80q-2 -8 -5 -23.5t-3 -27.5z" />
<glyph unicode="E" horiz-adv-x="1153" d="M999 242q16 4 24.5 0t10.5 -27v-2q4 -20 -12 -33q-10 -12 -26.5 -21t-30.5 -18l-47 -22q-4 -6 -10.5 -7t-16.5 -3q-18 -8 -28.5 -12.5l-17.5 -7.5t-18.5 -8t-31.5 -13l-23 -9q-23 -6 -37 -11t-27.5 -10t-29.5 -8t-41 -7q-10 0 -20.5 -3.5t-20.5 -5.5q-47 -10 -91 -15 t-89 -7q-10 -2 -16.5 -1t-10.5 1q-14 4 -24 0q-27 -2 -51.5 2t-53.5 12l-61 17q-41 16 -73 39.5t-60 52.5q-39 53 -56 106q-12 43 -12 82q0 6 1 18.5t3 25.5t5 25.5t5 16.5q16 31 29.5 59.5t32.5 57.5q8 2 8 12q6 2 8 6t6 11l21 16q4 8 10 15t12 16q4 8 13 12q4 4 7 6t9 4 q10 0 15 5l12 12q0 6 2 8q10 25 43 39q18 4 22 16q0 6 4 6q18 10 33.5 19.5t32.5 25.5l45 25q12 6 25.5 15t27.5 20q-2 0 -2 2t-2 4q-4 8 -23 14q-27 14 -42 32.5t-29 43.5q-8 18 -13.5 30.5t-1.5 30.5q-6 10 -5 20.5t-5 22.5q-4 33 6.5 61.5t26.5 53.5q27 47 76 90 q10 10 24.5 19.5t26.5 19.5q4 4 3 7t3 1q16 0 16 2q0 6 5 8q0 6 2 6.5t6 2.5l5 10t1 2l2 -2q16 6 35 16q10 6 21.5 10.5t21.5 8.5q23 10 42 18t42 14q4 4 7 3.5t3 1.5q29 14 58.5 22t62.5 16q6 4 15 5.5t16 3.5q12 4 26 7t25 7q4 0 7 -2t5 0q4 6 15.5 3t15.5 1q14 0 26 8 q41 6 95 -4l18 -8q23 -16 38 -28.5t25 -37.5q6 -25 -18 -18q-6 2 -12 3t-10 5q-8 10 -16.5 12.5t-18.5 4.5q-20 2 -40 2t-36 -4q-47 -4 -94 -14.5t-88 -26.5q-29 -6 -51.5 -15.5t-45.5 -17.5q-51 -23 -100 -44.5t-90 -53.5q-33 -18 -57.5 -45t-49.5 -58q-12 -14 -20 -32.5 t-16 -34.5q-2 -10 -3.5 -22.5t-1.5 -23.5q-4 -16 1.5 -29.5t11.5 -29.5q0 -4 3 -6t5 -4q8 -4 16.5 -9.5t18.5 -9.5q16 -4 30.5 -10t30.5 -6h21q16 -4 31.5 -1t25.5 9q10 4 24.5 4t22.5 4q10 2 17.5 4.5t17.5 4.5l51 12q10 2 16.5 4t12.5 2q10 0 15 1t16 5q8 2 14 4t16 4h13 q14 4 32.5 5.5t36.5 3.5q12 0 19 2q10 4 22 4t29 4q4 0 14 -6q10 -4 14.5 -7.5t14.5 -7.5q12 -12 18 -26q8 -8 2 -13q0 -10 -4 -14q-2 -6 -8 -7t-14 -3q-16 -6 -32.5 -9t-33.5 -8q-33 -8 -65.5 -14t-67.5 -8q-35 -8 -74 -9t-75 -5q-16 4 -26.5 -4.5t-21.5 -6.5q-16 2 -25 -5 t-20 -15q-35 -18 -65.5 -36.5t-63.5 -39.5q-55 -35 -106 -76q-4 -2 -4 -3t-2 -3l-84 -78q-12 -14 -25.5 -27.5t-25.5 -31.5q-16 -23 -33 -44.5t-27 -49.5q-10 -23 -16 -46.5t-8 -50.5q0 -4 -2.5 -8t-2.5 -8q-2 -27 3.5 -50.5t15.5 -45.5q6 -16 24 -35q12 -8 26.5 -17.5 t31.5 -15.5q8 0 16 -4q23 -10 41.5 -14t40.5 -6q37 -4 73 -7.5t71 -3.5q16 0 29.5 3.5t27.5 5.5q10 2 21.5 3t21.5 1q20 -2 39 6q10 4 20 6t23 -2q4 -2 8 -1t8 -1q8 8 25 12q20 8 45 8q10 2 15 4.5t13 4.5q23 8 35.5 14t22.5 8q4 4 12 7t14 5q14 4 25.5 9.5t26.5 7.5 q12 10 21 11t20 11q4 6 12 6t16 5q8 4 9.5 9t11.5 7q10 0 16 5t10 9q12 12 35 17q4 -4 5 -3t5 3z" />
<glyph unicode="F" horiz-adv-x="1021" d="M662 674l-64 -10l-63 -15l-72 -6l-96 -14l-29 -4l-43 -9l-12 -30q-10 -16 -19.5 -35t-15.5 -35q-20 -45 -33 -78q-6 -23 -14 -42t-19 -42q-6 -33 -22 -67q-8 -16 -11.5 -36t-11.5 -36q-4 -23 -13 -46.5t-13 -47.5q-2 -8 -4.5 -14.5t-4.5 -12.5q-10 -23 -10 -47t2 -51 l4 -4q0 -4 2 -4h4q18 2 21.5 -8.5t-2.5 -20.5t-19.5 -18.5t-27.5 -3.5q-16 4 -23.5 10t-13.5 16q-12 16 -14 33.5t-2 38.5q4 12 4 25.5t4 29.5q2 10 3 22.5t5 22.5q-2 14 6 23l16 55q-2 10 1.5 17.5t5.5 17.5q6 10 9 19t5 18q4 16 10 32.5t14 32.5q6 39 21 66q10 23 18.5 48 t22.5 50q-2 2 0 4t2 4q8 20 18.5 42t22.5 44l-51 -4q-10 -2 -20.5 -1t-20.5 3q-14 0 -25 12q-4 4 -9 5.5t-9 5.5q-8 14 -6 24q0 14 10 17q4 2 9 4t13 0q23 -4 44.5 -1t43.5 3q10 0 15 2q12 0 33 4l6 6q23 37 40 74t35 76q12 25 24.5 48t29.5 50l30 57v2q20 23 30.5 49.5 t25.5 51.5q6 2 6 6q20 41 40.5 81t41.5 79l28 45h-8l-10 -2t-20.5 -6.5t-20.5 -7.5l-10 -3q-4 4 -13.5 1t-13.5 -5q-35 -10 -70.5 -14t-70.5 -17l-168 -51q-18 -8 -36.5 -13t-37.5 -15q-14 -6 -18 -7.5t-6 -1.5t-6.5 -2t-18.5 -8q-14 -8 -30.5 -13t-32.5 -14l-27 -10 q-12 -6 -23.5 -13t-25.5 -7q-16 -14 -20.5 -14.5t-20.5 -10.5q-10 -6 -24.5 -12t-16.5 -19q-2 -4 -7 -5t-5 -5q-4 -23 -14.5 -29t-20.5 -0.5t-18.5 19.5t-4.5 33q14 27 40 45t52 35q12 6 24.5 15t27.5 13q6 4 13 9.5t17 5.5l54 26q10 0 16 8q12 4 14 6l2 1l4 2q3 2 15 6 l82 28q14 6 30.5 9.5t30.5 7.5q4 4 9.5 5t9.5 5q10 8 21 10t26 4q12 4 24.5 7.5t22.5 9.5q10 2 19 5t20 5q16 4 33.5 9t33.5 7q4 0 13.5 5.5t13.5 9.5q43 18 99.5 23t88.5 16h4q2 2 2 4t3 6q4 4 4 10t4 10q2 10 4 16.5t4 14.5q2 14 25 23q35 -4 53 -29l4 -12t-4 -17l-6 -12 h4q8 0 16 4q18 8 45 8q14 0 25.5 3t25.5 8q2 2 4 0h17.5t27 3t45 7t74.5 10q10 4 11 0q14 -4 33.5 -2t82.5 6q14 4 23 2q10 -2 22.5 -4t22.5 0q8 0 54 3t118 -7q2 -10 24.5 -12t50 -3t51 -3.5t27.5 -10.5q20 -8 28.5 -7t31.5 -3l10 -5t12 -7q16 -4 19 -15l8 -8q4 -4 0 -11 t-12 -13.5t-19.5 -8.5t-23.5 2q-4 10 -11.5 7.5t-17.5 3.5q-16 8 -21.5 6t-21.5 2q-51 10 -94 14t-94 8l-150 -4q-45 2 -92 -1t-94 -7q-16 -4 -32.5 -5t-33.5 -5q-6 4 -16 0q-31 -6 -61.5 -9t-59.5 -10l-98 -18l-52 -96q-18 -31 -35.5 -66t-39.5 -69q-4 -4 -5 -8.5t-6 -8.5 q-12 -25 -23 -47t-26 -45q-23 -35 -39 -69.5t-36 -69.5l-33 -70q-23 -47 -45 -82q8 0 14 1t14 1h23l59 11l113 12l68 8l57 8v2h14q18 8 40 9.5t40 5.5q6 0 9 1t14 1q18 4 39 -2q6 0 17 -2t17 -13q8 -4 15 -12l8 -18q-6 -10 -12 -11h-5q-8 0 -16 -1t-16 -1t-14.5 -1t-14.5 -1 l-37 -4l-106 -14l-8 -2v2z" />
<glyph unicode="G" horiz-adv-x="1343" d="M774 653q23 2 47.5 -1t52.5 -7q4 0 6.5 -1t6.5 -1q16 -10 36.5 -24.5t34.5 -28.5q8 -8 13 -10q4 -4 4 -2t4 4t11 0t11 0q6 2 11.5 4t9.5 2q10 2 19.5 5t19.5 7q8 2 14 4t17 0q23 4 21.5 4t8.5 2l62 15q20 4 30.5 5t20.5 -12q6 -4 8 -6t2 -8q0 -2 -6 -8t-20 -10l-91 -23 q-31 -10 -39 -12t-11 -2t-10 -1t-38 -11l-16 -7q-4 -2 -6 -10t-2 -12l6 -43q0 -4 -1 -8t-1 -8q0 -8 -1 -15.5t-1 -17.5q0 -8 -3.5 -15.5t-5.5 -15.5q-10 -31 -25.5 -58.5t-35.5 -54.5q-10 -14 -20.5 -27.5t-24.5 -23.5l-6 -6q-23 -29 -49.5 -51.5t-53.5 -46.5l-30 -23 q-39 -31 -78 -59.5t-80 -54.5q-14 -8 -28.5 -15.5t-26.5 -17.5q-39 -23 -75 -40.5t-77 -33.5q-29 -12 -57.5 -18.5t-57.5 -14.5q-31 -6 -58.5 -10t-55.5 0q-20 2 -39 2t-35 8q-12 4 -23.5 9.5t-21.5 13.5q-18 16 -32.5 35.5t-28.5 42.5q-12 29 -20.5 58.5t-14.5 57.5v27 q-2 10 -2 20.5v20.5v12q4 12 3 25.5t3 25.5q0 12 1 23.5t5 24.5q4 8 4 18t2 20q8 20 13.5 41t13.5 39q6 29 19 57.5t26 57.5q0 2 4 10q10 25 24.5 51.5t28.5 53.5l16 26l82 127q20 27 42 52.5t38 52.5q4 4 8.5 8t8.5 8q10 10 19 19.5t15 21.5q4 8 12.5 14.5t18.5 8.5 q4 0 4 6q-4 10 4 14q23 29 44.5 51.5t46.5 44.5q8 8 16 11q8 0 10 8q4 14 10 18q14 10 25.5 20.5t21.5 20.5q25 18 48 41q16 16 35.5 30.5t37.5 31.5q25 20 62 45q29 25 55 41q39 25 77 50t77 48q47 29 94 52.5t98 45.5q27 10 51.5 17.5t53.5 15.5q18 4 37.5 8t37.5 4 q49 -2 78 -43q8 -10 13.5 -23.5t9.5 -25.5v-8q4 -23 -25 -27q-2 0 -3 1t-3 1q0 4 -3 9.5t-7 9.5q-16 18 -41 18q-35 4 -68 -2q-33 -4 -64.5 -15t-66.5 -24q-47 -20 -94 -43.5t-92 -50.5l-103 -63q-4 -4 -9 -6.5t-9 -6.5l-45 -35q-8 -4 -15.5 -10t-17.5 -10 q-31 -29 -63.5 -54.5t-67.5 -54.5q-16 -12 -32.5 -26.5t-32.5 -30.5q-63 -59 -125 -125l-56 -63q-25 -29 -49 -58.5t-47 -60.5q-14 -23 -30.5 -44.5t-30.5 -43.5l-50 -76q-27 -49 -50 -99t-46 -102q-10 -29 -18 -55.5t-15 -54.5q-6 -18 -8 -39t-10 -41v-19q-2 -43 0 -84 q-4 -47 14 -86q18 -45 64 -59q37 -16 74 -16h4h32.5t22.5 2t23.5 4t35.5 8q59 10 119 41q27 14 53.5 26.5t55.5 26.5q10 4 19 8t18 15q0 -2 6 4q20 10 51 31q6 4 13 8t11 8q10 6 19.5 12t17.5 15q29 20 54.5 40.5t52.5 40.5q10 8 18 16.5t19 18.5q14 10 26.5 23.5t26.5 25.5 q23 18 37 43q10 20 23.5 38t23.5 38q10 23 15 46.5t5 49.5q-2 4 -6 16.5t-8 10.5q-35 -6 -65.5 -17.5t-63.5 -21.5q-14 -4 -27.5 -8t-29.5 -6q-23 -4 -44.5 -10.5t-43.5 -10.5q-14 -2 -27.5 -5t-28.5 -5l-35 -8q-25 -4 -50 -9t-52 -9q-25 -4 -47.5 -3.5t-46.5 -3.5 q-16 -2 -29.5 0t-30.5 4q-23 2 -33 7.5t-20 27.5q-2 4 -4 5t-4 8q2 10 3 20t7 21l6 6q8 4 10.5 9t12.5 9q39 16 75 33.5t77 32.5l20 10q10 4 18.5 7t16.5 3t14 6l14 4q14 4 27.5 6.5t26.5 6.5q4 4 9 4t11 2q33 2 60 8q4 2 9 2t9 2q14 8 29 8q14 0 27.5 1t33.5 1zM776 586 q-37 2 -72.5 -3t-74.5 -16q-39 -8 -75 -18t-73 -25q-74 -25 -127 -59q-4 0 -4 -4q0 -2 2 -2q23 -2 55.5 -1t59.5 9q23 4 41 8t41 6l59 13q10 4 21.5 6t21.5 4q16 4 31.5 7t34.5 5q10 2 19 4t20 6q6 4 18 9l68 18q16 4 22 4l21 6q2 0 2 1t2 1q-4 4 -4 6q-23 10 -58 15h-51z " />
<glyph unicode="H" horiz-adv-x="1607" d="M319 94q2 18 8.5 37t4.5 41q-4 33 7 64.5t21 62.5l56 182q4 12 8 29l-2 2q-20 -4 -29 -8q-41 -14 -82 -29.5t-84 -30.5q-23 -8 -28.5 -11t-10 -5t-10.5 -5t-28 -11q-41 -16 -82 -19.5t-70 6.5l-6 4q-10 10 -16.5 15.5t-10.5 15.5q-4 20 15 31h2q45 18 89 25.5t87 21.5 q8 2 12 -6q6 -6 14 -4q29 8 55.5 17t53.5 20q33 12 65.5 23t63.5 22l27 8q16 8 18 20l49 131q12 41 26.5 81t30.5 81q10 25 17.5 51.5t17.5 53.5q12 37 22.5 77.5t20.5 81.5q8 27 13.5 55.5t3.5 57.5q-2 14 -2 26.5t-9 26.5q-6 12 -6 25q2 16 11.5 21t21.5 1l12 -8l31 -28 q6 -6 6 -11q8 -23 8 -45q4 -29 1 -54.5t-7 -49.5q0 -10 -2 -15l-33 -122l-30 -115q-6 -18 -14.5 -37.5t-14.5 -40.5q-16 -45 -32.5 -94t-35.5 -94q0 -4 -4 -17q0 -4 3 -8t8 -2q23 4 44 9t44 16q6 4 13 5t13 3q37 10 72 19t70 20l75 22q33 8 64 15.5t61 17.5q29 8 64 12 q12 2 25.5 5t25.5 8l49 10q14 2 28.5 4t31.5 6q10 2 14 12q4 6 6 18.5t6 16.5q6 23 15.5 42.5t13.5 39.5q8 25 15 47.5t13 46.5q10 16 16.5 30.5t10.5 61.5q2 16 7 32t9 32q14 33 13 59q10 29 15 57.5t13 57.5q4 4 4.5 11t0.5 12q0 20 8 36q2 14 2 25.5v24.5q8 16 20 18 q8 0 15 -2q2 -2 8 -10l22 -27q8 -8 6 -20q-6 -16 -6 -30.5t-4 -31.5q-4 -14 -5 -26.5t-3 -28.5q-4 -16 -8 -33.5t-8 -34.5q-10 -47 -22.5 -93t-26.5 -93t-27.5 -91t-32.5 -89q-4 -8 -6 -20.5t-6 -22.5q0 -10 8 -11h86q31 2 64 -12q35 -12 49 -45q6 -10 5 -12t-9 -10 q-4 -4 -9 -5l-16 7q-49 25 -106 14q-16 -2 -32 -3t-34 -1q-2 -2 -8 -2q-33 0 -47 -33q-31 -78 -61.5 -155.5t-59.5 -155.5q-16 -47 -32.5 -91t-33.5 -92q-20 -51 -34.5 -103t-28.5 -105q-6 -20 -10.5 -39t-4.5 -41q-10 -18 -10 -39t-4 -41q0 -29 8 -47q4 -6 4 -12.5t5 -12.5 l3 -12t-6 -8q-2 -6 -10 -11q-6 -4 -12 0q-25 8 -41 41q-14 27 -14 66q2 16 2 32.5v32.5q0 8 2 15q6 35 12 69.5t21 69.5q4 16 8 29.5t8 29.5v9.5t4 7.5q10 10 10 24.5t6 26.5q25 41 29 82q0 20 8 36.5t19 33.5q2 6 4 11t2 9q4 20 13 39.5t13 40.5l7 12q10 23 17 45.5 t17 42.5q0 2 5 4q8 39 23 74t32 70v8q4 10 -6 10h-16.5t-16.5 -2q-27 -8 -52.5 -12t-50.5 -10q-12 -4 -41.5 -11.5t-62.5 -15.5t-62.5 -15.5t-41.5 -11.5l-62 -16t-61 -18l-54 -15l-96 -31q-20 -4 -37.5 -11t-36.5 -13q-6 -2 -10 -12q-6 -18 -13 -37t-13 -39l-31 -82 l-31 -109q-6 -29 -14 -54t-14 -52l-5 -23q0 -4 1 -10t-1 -10q-10 -27 -10 -50.5t-2 -49.5q0 -25 8 -43q2 -4 9.5 -6.5t11.5 1.5q2 2 4 1t6 1q4 4 8 3.5t8 3.5t9 0q4 0 4 -7q-2 -8 -1 -11t-1 -11q-6 -29 -31 -39l-12 -6q-10 -4 -19 0q-25 8 -45 35q-16 20 -22.5 42.5 t-8.5 45.5q0 12 1 24.5t1 24.5v12z" />
<glyph unicode="I" horiz-adv-x="608" d="M113 51v22.5t2 22.5q-2 14 4 25q4 23 8 55q-2 10 0 18.5t2 18.5q4 10 6 19.5t4 19.5q0 16 5.5 33.5t9.5 33.5q2 33 12 68q8 25 13 50.5t16 51.5v9q6 27 15 54.5t19 55.5q0 4 2 9.5t2 9.5q2 8 5.5 15t1.5 17l6 13q18 41 30.5 78.5t26.5 78.5q10 27 18.5 51.5t20.5 53.5 q4 12 11 28.5t12 32.5v2q16 27 24 53.5t19 53.5q4 2 4 6l61 170q16 35 29.5 72t25.5 78l4 22q0 10 2.5 16.5t2.5 14.5q0 16 22 24q31 4 55 -20q4 -6 6.5 -12.5t-2.5 -16.5q-14 -49 -31.5 -98t-37.5 -103q-16 -35 -29.5 -70.5t-30.5 -74.5q-2 -4 -2 -8t-4 -8 q-10 -27 -18 -50.5t-19 -48.5q-16 -37 -28 -73.5t-29 -73.5q-8 -20 -13 -37.5t-11 -36.5q-10 -29 -20.5 -56.5t-22.5 -53.5q-8 -23 -12.5 -45.5t-10.5 -45.5q-8 -16 -15.5 -35.5t-11.5 -37.5l-22 -82q-4 -23 -9 -43.5t-12 -42.5q-4 -39 -14 -72q-4 -16 -6 -35.5t-6 -38.5 q-2 -23 -7.5 -47t-7.5 -49q0 -8 -2 -14t-2 -12q-6 -23 -3 -48.5t7 -50.5q4 -4 5 -4q0 -4 8 -4q18 4 22 -5t-1 -20.5t-17 -21.5t-27 -6q-16 0 -24.5 5t-16.5 15q-14 16 -18 32.5t-6 37.5q2 12 1 25.5t-1 29.5z" />
<glyph unicode="J" horiz-adv-x="1378" d="M987 848q-2 -18 -4 -35.5t-6 -36.5q-2 -18 -10 -45l-4 -12t-2 -10q-4 -16 -6.5 -31.5t-8.5 -30.5q-2 -4 1 -6t5 -2l19 4l73 25q4 0 5.5 1t5.5 1q23 2 42 7t42 9q10 6 21 6t24 2q14 2 26.5 4t26.5 7q12 4 24.5 4t26.5 2q20 2 31.5 2h23h26.5t40 -2q12 4 24.5 1t24.5 -7 q8 -2 8 -6.5t9 -8.5q4 -2 4 -6t-4 -6t-3 -4t-4 -2q-20 2 -39.5 -2t-39.5 0q-12 0 -17 -2q-23 -4 -46 -7.5t-46 -7.5q-35 -4 -65.5 -9t-59.5 -13q-43 -10 -87 -20.5t-85 -26.5l-41 -13q-8 -4 -14 -8t-8 -14q-4 -4 -5.5 -7l-3.5 -7q-14 -47 -31.5 -90.5t-35.5 -88.5l-19 -39 q-25 -41 -34 -73q-6 -12 -12.5 -24.5t-16.5 -24.5q-20 -35 -43 -68t-45 -66q-29 -41 -60 -71q-12 -14 -24 -28.5t-27 -29.5q-12 -14 -25.5 -27.5t-29.5 -23.5l-43 -37q-16 -14 -33.5 -28.5t-36.5 -26.5q-45 -31 -90 -60.5t-94 -52.5q-47 -23 -93 -38t-95 -27q-16 -4 -31 -5 t-31 -3q-29 -4 -57 0q-16 0 -30.5 4t-31.5 8q-35 12 -65 33q-14 8 -27 24q-10 14 -14 37q0 4 -1 9.5t-1 9.5q0 8 2 12q6 18 9 37.5t15 36.5q4 4 6.5 10t6.5 10q8 16 17 32.5t22 31.5q8 8 13 14t9 16q16 23 34.5 43.5t37.5 42.5q18 20 35 33q10 8 18 17.5t18 15.5q6 2 9 8 q10 14 21 23.5t20 23.5l10 8q8 4 16 9.5t17 13.5q8 6 13 13t13 11q6 4 11.5 10.5t11.5 12.5q6 10 18 14q14 4 31 21q10 10 18 14q12 6 23.5 17.5t26.5 15.5q4 0 6 3t6 7q8 6 20 6q2 0 11 4q8 8 16 14.5t18 14.5q16 16 35 27.5t37 21.5q4 4 14 2q8 0 11 4q4 4 4 7 q20 27 55 30l12 4t15 6q18 16 51 27l12 6q6 10 14.5 12.5t18.5 4.5q4 2 7 4t7 4q10 4 20.5 9t20.5 9q29 6 47 25q16 12 35 14l27 6q4 2 7 2t7 4q25 12 49 19l19 6q14 6 22 20q4 12 8 24.5t6 25.5q2 14 7.5 25.5t7.5 25.5q2 10 3 22.5t5 22.5q0 4 2 9t2 11q8 20 6 35 q0 14 3 26.5t3 26.5v13q4 10 2 6t3 6q0 10 -1.5 19.5t3.5 19.5q2 20 2 32.5t-1 19.5t-2 15.5t1 20.5q2 6 2 20v24.5t2 27.5q2 8 2 16v18q-2 4 -2 13q4 20 3 39.5t-1 42.5v46t-4 46q0 10 -4 26q-4 12 10 13q31 4 51 -17l14 -14q8 -8 11 -18q0 -14 2 -28.5t2 -29.5q0 -4 1 -8 t1 -8q-8 -33 -2 -57q-4 -27 -3 -51.5t-4 -51.5q0 -6 -1 -12t-1 -10q4 -12 2 -23.5t-2 -23.5q2 -31 -2 -49.5t-2 -28.5q0 -16 -2 -23zM-186 -264q-4 -10 -4 -29q2 -10 4 -17t10 -14q12 -12 28.5 -19t34.5 -11h9q18 4 36.5 4t36.5 6q6 2 19 2q23 6 45 11t45 16l43 16 q10 4 19.5 9t19.5 9q37 16 63 33l72 45q25 16 45 33q27 20 53.5 40.5t48.5 45.5q16 10 29.5 25.5t28.5 29.5l18 21l17 14q4 12 13 19.5t19 15.5q8 4 15 18q14 27 39 52l24 34q4 10 10.5 17.5t12.5 15.5q4 10 8 18.5t10 18.5q6 14 14.5 27.5t18.5 25.5q10 16 18 31.5t15 32.5 q4 10 7 18t7 19q10 16 16 34.5t15 34.5q4 4 4 7.5t2 7.5l6 18l14 33q4 12 4 16q0 6 -8 6l-14 -4l-96 -41l-84 -39q-43 -23 -87 -45t-87 -47q-137 -78 -271 -182l-57 -45q-27 -23 -51.5 -43.5t-46.5 -42.5q-20 -23 -42 -45.5t-44 -44.5q-27 -31 -50.5 -61.5t-44.5 -65.5 q-24 -41 -30 -84z" />
<glyph unicode="K" horiz-adv-x="1337" d="M49 233q-16 0 -37 5l-20 4q-8 2 -16.5 3t-16.5 5q-35 6 -51 37q-10 12 -15.5 27.5t-11.5 31.5q-2 4 0 9l4 10q6 23 29 34q27 18 53.5 36t55.5 30q12 4 18 10q16 12 33.5 19.5t34.5 17.5q2 0 10 4q41 25 82 46.5t82 41.5q14 10 29.5 17.5t31.5 17.5q12 8 33 14 q33 14 65 39q10 6 11 21q4 16 10 24q8 6 8 19q2 10 3 18t5 19q0 6 2 8q2 31 11.5 58.5t19.5 55.5q4 12 7 24.5t7 25.5q6 27 15 47q4 16 10 34.5t10 36.5q2 10 6 19.5t4 19.5q6 16 9.5 34t7.5 34q4 8 4 16t2 17q20 80 20 170q4 16 4 29.5v29.5q-4 27 25 23q14 -2 33 -11 q31 -6 31 -39q-4 -29 -5.5 -58.5t-11.5 -57.5q-2 -6 -2 -17q-2 -20 -6 -38.5t-8 -39.5q-4 -20 -8 -39.5t-13 -39.5q-4 -12 -4 -24.5t-6 -23.5q-8 -33 -17.5 -63.5t-19.5 -60.5q-4 -14 -8 -26.5t-8 -27.5l-27 -92q-6 -16 -11 -30.5t-7 -30.5q0 -4 2 -6h4l4 2q10 6 21.5 12 t21.5 16q4 4 8 5t8 6l36 16t34 18q8 8 18.5 12.5t20.5 8.5q16 4 27 16q12 12 30 19q10 4 17.5 9t17.5 11q6 2 19 10q8 4 16 7.5t18 11.5q6 6 14.5 9t12.5 13q16 10 31.5 19.5t34.5 15.5q12 4 22 9t21 14q8 4 15 10t15 12l10 6q14 18 35 28.5t39 25.5q23 16 45.5 31.5 t44.5 31.5q45 35 90 68.5t86 72.5l9.5 9.5t11.5 9.5q29 16 47 39q14 12 25 6q18 -10 26 -23l6 -10q10 -16 8.5 -24.5t-16.5 -22.5q-23 -23 -49 -43q-23 -16 -44.5 -34.5t-43.5 -35.5q-12 -10 -24.5 -17t-22.5 -17q-23 -14 -44.5 -30t-43.5 -32q-12 -10 -24.5 -17t-24.5 -16 q-18 -12 -37 -25.5t-39 -25.5q-29 -16 -54.5 -32.5t-52.5 -30.5q-29 -14 -53 -29.5t-49 -32.5l-25 -14q-16 -6 -30.5 -15.5t-28.5 -17.5q-16 -10 -31.5 -19.5t-31.5 -17.5q-14 -6 -27.5 -14t-26.5 -16q-16 -10 -34.5 -20.5t-36.5 -18.5h-5q-16 -16 -36.5 -25.5t-38.5 -19.5 l-17 -9q-16 -10 -24 -26q-4 -23 -12.5 -42.5t-16.5 -41.5q-10 -41 -21.5 -79t-25.5 -77q-6 -16 -11 -33.5t-7 -36.5q-4 -4 2 -4q6 -2 16 -2q29 2 54.5 1t54.5 1q16 2 31.5 1t31.5 -1t30.5 -1t30.5 3h13q25 -4 49 -3t49 -1q10 0 22.5 -1t24.5 -3l90 -4h21.5t21.5 -4 q8 -2 27 -2q35 0 72 -6q12 -4 24 -3t27 1q10 -2 22.5 -4t22.5 -2q14 2 27.5 0t27.5 -4q14 -6 33 -7q23 0 42 -5t40 -9q14 -4 22 -12t-2 -15q-27 -20 -57 -20q-29 0 -55.5 3t-55.5 3h-47h-24.5t-24.5 4q-4 2 -12 2q-16 -2 -34.5 1t-35.5 5q-16 0 -33.5 1t-33.5 1 q-18 2 -37 2.5t-35 4.5q-4 2 -6 0q-33 0 -63.5 3t-63.5 -1h-35q-10 0 -16 2q-31 8 -62 0q-8 -4 -14 0q-16 4 -31.5 1t-32.5 -3q-16 2 -30.5 1t-30.5 -1h-31.5t-32.5 -2h-8q-14 0 -18 -15l-15 -37q-6 -25 -14 -49t-16 -49q-8 -23 -15.5 -46.5t-13.5 -45.5q-8 -23 -15 -43.5 t-14 -42.5q-4 -20 -10 -38.5t-8 -39.5q-2 -4 -2 -12q-4 -18 -23 -19q-14 0 -22 4q-20 8 -21 29q-4 10 0 21q8 18 10.5 37.5t10.5 37.5t13 37t9 37q0 6 2 10q10 16 14.5 34t10.5 34q4 16 10 33.5t10 36.5l11 24l12 47q0 8 -6 8h-244zM162 305q27 0 53.5 1t54.5 1q29 0 52 8 q14 0 14 13q4 16 10 33.5t6 35.5q0 8 6 19q6 6 8.5 14t6.5 16q4 14 7 27.5t9 26.5q2 16 6 30.5t8 30.5q2 4 1 8t-1 9q0 8 -8 4l-63 -29l-115 -64q-47 -25 -91 -49t-89 -51q-23 -12 -42.5 -25.5t-37.5 -29.5q-4 -4 -3 -7t3 -3q8 -4 14 -6.5t15 -2.5q29 -4 60.5 -8t64.5 -2h51 z" />
<glyph unicode="L" horiz-adv-x="854" d="M154 -94q12 0 29.5 1t35 3t33.5 5t24 5q14 4 39 13.5t50.5 18.5t47 17t31.5 13h9q16 8 29.5 12t29.5 10q10 8 24.5 10t26.5 13q27 4 48.5 7t45.5 9q12 6 26.5 8t31.5 6q4 4 6 4q10 -2 22.5 0t22.5 0q12 0 23.5 -1t21.5 3q4 2 6 1t4 -1q4 0 10.5 -1t14.5 4l7 -3.5t9 -1.5 t11.5 1t9.5 -3q25 0 49 -10q8 -4 15 -6t11 -4q8 0 17 -16q4 -10 0 -21q0 -4 -1 -5t-1 -3l-2 -2q-2 0 -2 -4h-4q-8 8 -15.5 9t-17.5 3h-10q-33 0 -58 10q-10 2 -16 -4q-4 0 -6 -1t-4 5q-10 4 -20.5 -2t-20.5 -2q-16 2 -26.5 0t-25.5 -6q-70 -4 -133 -20q-14 -8 -28.5 -11.5 t-30.5 -7.5q-12 -4 -27.5 -9t-25.5 -9q-18 -4 -34.5 -12.5t-35.5 -16.5l-33 -10q-6 -4 -14 -8.5t-18 -1.5q-14 -6 -23.5 -10.5t-17.5 -10.5q-16 -6 -29.5 -8t-38.5 -8q-23 -2 -41 -3t-37 -1q-8 -2 -24 2q-33 8 -57.5 27.5t-43.5 47.5l-8 13q-10 37 -10 71q6 49 19.5 94.5 t25.5 92.5q16 35 30.5 71.5t28.5 73.5q4 16 10.5 27.5t14.5 27.5q18 41 34.5 84t34.5 86q20 51 43 97l23 53q12 41 30.5 82t32.5 82q6 16 15.5 33.5t13.5 35.5q16 45 34.5 90.5t33.5 92.5q10 16 13 33.5t9 33.5q6 18 8.5 34.5t4.5 35.5q6 6 2 16q4 16 8 34.5t6 35.5 q-4 8 -1 17t5 14q2 8 4 12t-2 10q-6 6 -2 10q-6 10 6 15q8 4 24.5 4t24.5 -4q10 -10 10.5 -16.5t8.5 -16.5q8 -8 8 -21.5t-2 -25.5q-10 -74 -25.5 -142.5t-48.5 -156.5q-8 -16 -12 -31.5t-8 -28.5q-4 -6 -7.5 -15t-7.5 -15q-12 -29 -23 -57.5t-22 -57.5q-8 -6 -10 -13 t-4 -16q-2 -6 -4 -11t-4 -9q-14 -53 -39 -100.5t-41 -98.5q-10 -27 -21.5 -50.5t-21.5 -45.5q-14 -29 -23.5 -53.5t-19.5 -48.5q-16 -27 -25.5 -53.5t-19.5 -55.5q-4 -8 -9 -18.5t-8 -24.5q-6 -10 -8 -21.5t-10 -23.5q-16 -35 -26.5 -72t-20.5 -73q-4 -16 -9 -28.5t-5 -29.5 q-4 -6 -3 -13t-2 -13q-4 -16 0.5 -28.5t12.5 -27.5q6 -16 20 -18q7 -2 15 -2z" />
<glyph unicode="M" horiz-adv-x="1560" d="M633 1077q4 -14 0 -26t-3 -25.5t1 -26.5q2 -10 1 -20t-3 -21v-38q-2 -16 0 -34t-2 -34q-2 -4 0 -7t2 -7v-31.5t2 -32.5q2 -4 0 -10t0 -10q4 -12 5 -24.5t5 -27.5q2 -47 29 -92q8 -14 15 -23t20 -18q8 -2 16 -2q8 2 16 6.5t19 8.5q18 10 35.5 23t33.5 30l60 67l16 21 q14 14 17 27q4 4 6 7t6 5q12 10 20 21.5t15 23.5l14 22q14 14 25.5 29.5t21.5 32.5l18 29q4 8 11.5 15t11.5 17q4 4 8 7.5t8 9.5q4 4 4 9t5 9q0 2 6 8q4 6 9 10.5t7 14.5l6 8q12 12 15 16q0 16 14 27l20 35l2 2q10 12 17.5 25.5t15.5 27.5t16.5 26.5t16.5 24.5q4 6 6 12.5 t6 12.5t8.5 12t10.5 13q8 10 14 23l12 26q4 6 5 12t8 12q8 12 10 21q4 8 9 15t11 15q10 8 15.5 16.5t9.5 18.5q12 25 31 49l9 13.5l9 13.5q8 14 31 10q10 -2 21.5 -4t21.5 -6q12 -2 16 -20q2 -8 2 -25q-4 -10 -4 -21.5t-4 -21.5q-4 -23 -10 -44.5t-10 -43.5l-9 -25 q-4 -16 -7 -31.5t-9 -29.5q-6 -4 -6 -16l-6 -25q-12 -20 -17 -51q-2 -10 -4 -19.5t-6 -19.5t-6 -19.5t-6 -19.5q-4 -16 -10.5 -33.5t-10.5 -36.5q-18 -53 -33.5 -107t-31.5 -108q-2 -10 -10 -30q0 -10 -5 -23q-14 -37 -21 -71.5t-17 -69.5q-10 -29 -15.5 -55.5t-13.5 -55.5 q-4 -23 -9 -44t-10 -44l-28 -143q-2 -14 -3 -26.5t-5 -24.5q-4 -16 -4.5 -35t-4.5 -35q2 -18 -3 -36.5t-1 -37.5q0 -4 -1 -5t-1 -5q-6 -20 -3 -41t5 -43q0 -14 8 -23q8 6 17.5 0t10.5 -17t-9 -20.5t-37 -9.5q-29 0 -47 29q-8 8 -12 25q0 23 -3.5 44t1.5 44q2 18 4 36.5 t2 36.5v15q0 4 4 16q-4 33 8 55q-2 18 3 36t9 34q0 16 3 34.5t8 35.5q0 18 4 36.5t8 34.5t8 32.5t8 33.5q-4 12 2 24.5t6 24.5q-4 8 9 20q6 8 6 19q4 39 12 76q10 10 10 22q2 16 8.5 32.5t12.5 35.5l4 12t2 14q-4 4 0 11q10 8 11 19t5 22q4 20 4 34q4 8 4 15.5t5 13.5 q6 8 6 16q10 16 16 33t6 33q0 27 13 45q4 8 6 15.5t4 15.5q0 16 12 28q0 10 3 20.5t1 20.5q2 14 12 31l7 25q0 14 2 16q10 10 14 25l10 39q0 4 1 8t1 8q0 12 3 23.5t7 21.5q6 10 11.5 21.5t5.5 25.5q0 6 3 12.5t-1 14.5v2q-4 0 -6 -2q-14 -25 -30.5 -50.5t-33.5 -52.5 l-14 -28q-23 -29 -38 -58.5t-36 -58.5q-14 -20 -26.5 -40.5t-26.5 -39.5l-39 -59q-10 -16 -19.5 -30.5t-19.5 -29.5q-16 -16 -27.5 -35.5t-21.5 -37.5q-25 -35 -51.5 -68t-50.5 -68q-10 -16 -19 -24q-8 -8 -8 -10q-14 -23 -32.5 -40.5t-35.5 -35.5q-12 -12 -25.5 -22.5 t-29.5 -20.5q-18 -10 -37.5 -16.5t-44.5 -6.5q-61 0 -108 41q-10 6 -17.5 15.5t-13.5 19.5q-12 29 -22.5 58.5t-14.5 62.5v16q-4 8 -4 23q6 10 2 20q-6 12 -5 24.5t-3 22.5q0 4 1 7.5t1 7.5q4 23 1 43t-1 43v20t4 21q2 6 1 12t1 12q-4 37 0 76v14q0 18 -1 37t-3 37 q0 12 -2 19l-4 4h-2l-8 -4q-31 -33 -50 -64q-16 -27 -31.5 -52.5t-31.5 -53.5q-23 -39 -41.5 -77t-36.5 -79q-16 -35 -32.5 -70t-30.5 -69q-2 -4 -2 -7.5t-5 -7.5q-10 -20 -18 -40.5t-18 -41.5q-12 -31 -25.5 -61.5t-24.5 -60.5q-27 -55 -41 -107q-14 -33 -23 -65.5 t-20 -65.5l-6 -27q-6 -10 -22 -14h-23q-10 0 -24.5 5t-20.5 11l-6 11q4 10 5 18t5 16q12 29 21.5 54.5t21.5 52.5q16 45 29 82q0 4 4 12q14 20 20.5 41t12.5 43q4 4 5 10t5 11q8 16 15.5 33.5t17.5 33.5l6 10q4 14 8 27.5t15 28.5q6 10 10 23.5t10 25.5l25 51q4 12 11 23.5 t11 25.5q6 16 14.5 29.5t16.5 30.5l8 16q2 16 10 28.5t17 26.5q4 12 10 23.5t12 23.5q10 18 19.5 35t19.5 33q10 14 18.5 26.5t14.5 26.5q12 16 23.5 29.5t25.5 28.5q10 10 25.5 15t29.5 5q16 0 35 -1t33 -5q20 -6 26 -25q10 -12 11 -32q0 -14 1 -27.5t3 -28.5 q-2 -14 -1 -23.5t1 -19.5z" />
<glyph unicode="N" horiz-adv-x="1337" d="M76 229q-4 -14 -5 -28.5t-3 -28.5q0 -4 -1 -9t-1 -9q-4 -6 -9.5 -12.5t-11.5 -6.5q-20 -4 -41 0q-6 4 -27 12q-12 4 -8 19q0 10 2 17t4 18q6 12 7.5 24.5t5.5 24.5q2 12 4 25.5t6 27.5q2 2 2 10q4 29 12 53.5t17 53.5q8 33 19 64.5t22 64.5q4 16 11 32.5t13 32.5l6 15 q4 6 7.5 12t3.5 12q0 8 3 15.5t5 15.5q10 29 22.5 56.5t22.5 56.5q2 4 5 6t5 6q4 4 4 10q-2 10 3 20.5t12 18.5q12 12 12 21q0 10 4 20t8 21q10 18 19.5 37.5t19.5 39.5q8 16 19.5 34t21.5 34q31 45 88 45q23 0 43.5 -9t30.5 -28q14 -23 18 -49q8 -29 13.5 -57.5t7.5 -57.5 l4 -30q4 -29 7 -55.5t3 -55.5q0 -10 2 -14q4 -18 4 -38t4 -38q2 -31 4 -62.5t6 -62.5q4 -33 7.5 -64.5t7.5 -64.5t6 -64.5t8 -64.5q4 -20 7 -41t7 -41q6 -37 18.5 -70.5t29.5 -68.5q18 -43 63 -64q12 -6 23 2q10 6 19 13.5t17 17.5q12 14 21.5 27.5t19.5 29.5l36 66t32 67 q2 6 5 13.5t5 13.5q8 20 18.5 39.5t16.5 42.5t15.5 42t19.5 42l4 18q2 8 4 16.5t6 16.5q4 10 6 18.5t7 18.5q10 39 32 68q4 4 2 10v4q-2 10 4 27q2 4 3.5 9t5.5 9q0 16 6 32.5t14 33.5q4 12 10 24t6 27q2 18 8.5 34.5t14.5 32.5q14 18 14 35q2 18 9.5 35.5t13.5 36.5 q0 4 2 5t2 5q0 16 6 30.5t12 28.5l4 19q4 10 6.5 18.5t8.5 16.5q10 10 6 22q-6 10 2 23l23 57q8 16 8 23q2 18 10 41q12 29 22.5 57.5t20.5 56.5q2 10 8 21.5t10 21.5q10 16 11 33q-2 6 8 12q8 6 6 13q0 10 2 14q8 12 10 18q4 4 5 10.5t3 10.5q4 20 9 31q4 10 10 20t10 23 q2 10 6 19t8 20q8 16 15 24q4 4 8 16q8 23 18.5 42.5t22.5 39.5q4 4 6 5.5t4 5.5q2 0 6 10v8q12 25 39 31q8 0 11 -2q12 -6 20 -15q6 -6 4 -14q0 -6 -8 -14q-16 -29 -28.5 -59.5t-26.5 -61.5q-10 -18 -18.5 -38.5t-18.5 -39.5q-12 -23 -20.5 -47.5t-18.5 -46.5 q-10 -39 -27 -66q-4 -6 -5 -13t-5 -15l-64 -168l-28 -90l-10 -29q-4 -14 -10.5 -27.5t-6.5 -29.5q-2 -6 -5 -13.5t-5 -15.5q-10 -35 -21.5 -68.5t-21.5 -68.5q-6 -23 -13.5 -42.5t-15.5 -39.5l-20 -68q-6 -18 -12.5 -36.5t-14.5 -37.5q-10 -23 -16 -47t-17 -49 q-8 -25 -17 -50.5t-19 -51.5l-37 -98q-10 -29 -21.5 -59t-25.5 -58l-15 -33q-16 -37 -36.5 -70.5t-43.5 -68.5q-10 -14 -22 -25.5t-25 -23.5l-10 -7q-96 -41 -168 13q-27 18 -37 39q-8 14 -15 26.5t-11 28.5q2 4 0 8t-5 8q-23 53 -30 107q-6 25 -17 57q-4 10 -4 21.5v23.5 q4 8 0 10q-10 10 -9 22.5t1 25.5v14q-4 4 -4 6q-2 16 -2 30.5t4 31.5q0 10 -2 14q-10 16 -11 34.5t-5 34.5q2 8 1 14.5t-1 12.5q2 10 2 16.5t-4 14.5q-4 4 -5 14q2 33 -2 64.5t-8 64.5l-6 64v20t-4 21l-4 53q-2 4 -1 8t1 8l-16 78q-2 27 -17 53q-4 8 -8 2l-9 -9t-10 -11 q-16 -31 -31.5 -60.5t-31.5 -62.5q-8 -20 -16.5 -38.5t-18.5 -39.5l-31 -78q-14 -31 -25 -61.5t-22 -61.5q-6 -18 -13 -35.5t-13 -33.5q-8 -27 -16.5 -52.5t-18.5 -52.5q-6 -18 -10 -38.5t-15 -38.5q-2 -16 -7 -34t-9 -34t-4 -35t-4 -35z" />
<glyph unicode="O" horiz-adv-x="1128" d="M831 1358q0 2 -1 3t-1 3q-2 4 0 10l13 12q6 4 22 9h15q37 4 66.5 -8.5t55.5 -34.5q14 -10 25.5 -22.5t22.5 -26.5q16 -23 25 -46.5t16 -50.5q8 -45 6 -94v-2v-32.5t-2 -23t-4.5 -21.5t-6.5 -32q-4 -27 -12 -52t-14 -52q-14 -31 -25.5 -62.5t-27.5 -62.5 q-6 -16 -13.5 -30.5t-17.5 -26.5l-4 -8q-6 -23 -17.5 -43.5t-25.5 -36.5q-8 -12 -15.5 -23.5t-11.5 -23.5q-6 -12 -13 -26.5t-18 -25.5q-12 -16 -20 -29.5t-19 -29.5q-8 -10 -14 -19.5t-16 -17.5q-6 0 -6 -6q-4 -16 -16.5 -25.5t-18.5 -23.5q-4 -8 -8.5 -13.5t-8.5 -11.5 q-4 -8 -10 -12q-10 -10 -17 -18.5t-12 -18.5q-2 -12 -10 -16q-14 -10 -28 -35q-8 -10 -16.5 -20.5t-18.5 -18.5l-6 -6q-10 -16 -24.5 -29.5t-29.5 -27.5l-24.5 -24.5t-26.5 -23.5q-6 -6 -18 -12q-6 -6 -12.5 -11t-12.5 -13q-6 -6 -13 -13.5t-13 -11.5q-14 -10 -28.5 -17.5 t-27.5 -17.5q-57 -33 -117 -41q-10 -4 -21 -3t-24 3q-61 6 -114 41q-8 8 -16.5 14.5t-14.5 16.5l-12 16t-11 19q-8 20 -8 34q-2 16 -5 34t-7 34q-6 14 -2 29q10 31 4 57q0 16 2 25q6 23 8 43t11 41q0 8 1 15t1 13q0 14 8 23q4 4 4 10l4 25q0 14 8 24q4 8 8 25 q8 39 18.5 75.5t28.5 71.5l15 35q0 12 12 19q8 4 4 12q-2 6 4 12q4 4 4 10q-2 6 0 10.5t4 8.5l11 20q4 4 4 9.5t8 9.5t4 10t0 10q4 8 8 21q4 16 11.5 28.5t15.5 26.5q4 8 18 22q8 8 4 15q0 4 1 6t1 6q4 14 9.5 25.5t13.5 23.5q6 10 12 23.5t19 23.5l6 13q18 45 47 82.5 t59 76.5q18 23 37 42.5t41 37.5q12 10 24.5 20.5t26.5 20.5l11 6q43 29 88 2q20 -10 37 -32l4 -7q0 -10 -9 -10q-6 0 -12 -1t-12 3q-10 2 -27 -2q-27 -10 -39 -26q-10 -8 -19 -15.5t-20 -17.5q-16 -10 -24 -21q-16 -16 -29.5 -33.5t-30.5 -33.5q-6 -6 -12 -14.5t-12 -16.5 l-62 -94l-12 -23q-16 -27 -29.5 -52t-27.5 -54q-14 -27 -26.5 -53.5t-24.5 -55.5q-16 -33 -29.5 -65.5t-28.5 -67.5q-12 -33 -23.5 -63.5t-21.5 -63.5q-10 -35 -18 -66.5t-19 -66.5q-4 -16 -9 -30.5t-3 -30.5l-2 -2q-4 -18 -5 -36t-5 -34q-4 -23 -4 -43.5v-42.5 q-2 -6 -1 -14.5t1 -14.5q0 -20 5 -37.5t13 -35.5q8 -20 31 -39q8 -4 16 -8.5t19 -4.5q16 0 30.5 1t28.5 5q57 12 107 48q35 23 64.5 47t57.5 53l35 33q16 12 28.5 26.5t24.5 30.5q2 2 4.5 5t6.5 5q18 16 32.5 37t28.5 41q4 4 4 6q8 6 16.5 13.5t14.5 17.5q6 8 11 16.5 t14 18.5l28 39q10 14 19.5 29.5t25.5 27.5l4 8q8 16 19.5 31.5t23.5 32.5l17 30q4 10 9 20.5t15 18.5l29 58q4 4 5 10t5 12q12 12 17 29q0 4 2 7t4 7q16 23 22 47q2 6 5.5 13.5t5.5 13.5l8 12t4 17q0 8 6 14l9 22.5t7 24.5q0 8 2 14.5t5 12.5q4 16 8 32.5t8 32.5q2 6 4 12.5 t2 14.5q2 6 1 12t-1 10l4 33q0 6 1 13.5t1 13.5q2 20 0 43q-6 33 -14 63q-4 10 -9 20.5t-10 20.5q-4 10 -13 17.5t-13 17.5q-8 8 -18.5 13t-20.5 10q-8 4 -21 4q-10 2 -20 1t-21 1l-20 4t-21 2v-2z" />
<glyph unicode="P" horiz-adv-x="1443" d="M322 106q2 8 4 15.5t6 15.5q8 16 8 29q2 10 5 22.5t7 24.5q4 18 9.5 36.5t9.5 41.5q0 4 3 8t3 8q6 20 11 40t9 40q4 27 19 39l2 2v2q-2 0 -3 1t-3 1h-15q-16 -4 -29.5 -5t-29.5 -1h-23q-18 -2 -35.5 1t-35.5 7t-32.5 15.5t-29.5 27.5l-6 12q4 4 4 7q2 4 6 4l23 -11l24 -6 q4 -2 15 -2q10 4 20 0q6 -4 15 0q14 4 28.5 3t28.5 1q41 2 88 17q8 2 12 14l2 2q2 6 4.5 12.5t2.5 12.5q4 25 14 43q4 10 7 22.5t11 22.5q2 2 2 6t-1 9t1 9q6 16 11.5 35t11.5 39q4 10 8 22.5t6 22.5q0 10 2 14q10 14 14.5 31t10.5 31q2 4 2 9t4 9q12 14 12 43q2 8 2 21 q0 6 6 16q8 10 10.5 21.5t6.5 21.5q4 18 11 37t11 39q4 6 4 12t5 15q4 20 9 39.5t7 40.5q4 14 8 26t8 27v8q0 8 -10 8q-8 0 -16 -4q-35 -14 -72 -20q-35 -8 -61 -21q-18 -8 -38 -14t-38 -13q-37 -14 -73 -28.5t-71 -34.5q-43 -20 -80.5 -43t-74.5 -53q-10 -4 -23 -17 q-8 -8 -8 -22q0 -10 -8 -12q-20 -23 -49 -33q-23 -8 -39 6q-14 14 -25.5 17t-1.5 22q8 16 15 24q20 25 43.5 46.5t46.5 39.5q27 18 55.5 35t56.5 33q8 6 21 6q8 0 20 8l25 15q10 10 28 14q10 0 17 6q12 12 26 10q2 0 15 4q4 2 8 4.5t8 2.5q16 0 29.5 7t26.5 13q18 8 32 10 q14 4 27.5 7.5t23.5 11.5q16 10 31 10q16 2 31.5 9t32.5 7q4 -2 10 4q16 4 30.5 7.5t28.5 9.5q4 2 7.5 1t5.5 1q8 0 8 6q4 18 6 33.5t6 32.5q2 14 3 27.5t5 27.5q4 6 3 13t3 16q0 8 7.5 13t17.5 1q8 0 18 -6q10 -4 16.5 -10.5t16.5 -12.5q8 -12 8 -20q0 -6 -4 -15 q-4 -16 -6 -32.5t-10 -32.5v-10q0 -10 6 -11q10 4 18.5 2t18.5 5l49 4q14 0 31 6l31 4q12 2 28 -2q6 -2 15 -2q16 6 29.5 5t27.5 1h8t8 -2q10 -4 20.5 -4h20.5q25 0 53 -6q14 -4 28.5 -5.5t29.5 -5.5q18 -4 37.5 -9t36.5 -11l51 -16q63 -23 114 -62q27 -23 50.5 -45 t40.5 -51q4 -16 9 -28.5t9 -26.5q6 -31 -4 -58q-8 -33 -29 -63q-12 -18 -26.5 -34.5t-32.5 -33.5l-31 -29l-13 -13t-18 -11l-14 -10l-45 -37q-12 -12 -27 -15q-10 -4 -17 -9t-13 -9q-23 -20 -47.5 -33.5t-47.5 -23.5l-36 -19q-12 -10 -25.5 -17t-30.5 -13q-23 -8 -43 -19.5 t-41 -21.5q-23 -10 -43 -20.5t-43 -16.5q-6 -2 -13 -5.5t-13 -7.5l-29 -10q-49 -23 -94 -37q-20 -6 -41 -13t-43 -11q-29 -14 -57.5 -20.5t-55.5 -14.5q-10 -4 -20.5 -6t-20.5 -4q-23 -6 -26 -27q-4 -16 -9.5 -31.5t-9.5 -31.5l-16 -52q-10 -29 -16.5 -54.5t-16.5 -51.5 q-6 -25 -13 -49.5t-12 -46.5q-4 -10 -6 -20.5t-2 -22.5q-2 -10 -2 -18.5v-16.5q0 -6 -1 -11.5t-1 -11.5q-8 -8 -14 -8q-37 6 -49 27q-6 6 -7 12q-2 10 -1 18.5t4 18.5v28zM1012 1292h-37t-37 -2l-82 -6q-14 -2 -27.5 -3t-25.5 -5q-10 -2 -21.5 -4t-23.5 -6t-15 -13 q-4 -23 -11 -43t-11 -43q0 -6 -2 -8q-4 -16 -10.5 -34.5t-10.5 -34.5q-4 -23 -11 -43.5t-11 -42.5q-16 -47 -31.5 -94.5t-32.5 -94.5q-4 -12 -4 -16q-2 -23 -16 -54l-10 -36l-25 -80q-8 -23 -13 -42.5t-14 -37.5q-4 -16 -4 -25q0 -2 2 -2t2 -2h5l106 39q8 4 14 4 q10 2 20.5 5t20.5 7q8 4 15.5 5.5t13.5 5.5q10 2 17.5 4t15.5 6q10 -2 15 2t11 8q2 2 9 2q12 0 22 10l23 13q27 12 53.5 23.5t56.5 23.5q14 0 24.5 7t22.5 13q6 2 12.5 6.5t12.5 8.5q23 10 44 21t46 20q18 6 31 18q18 14 39 21q8 4 15 9t13 15q10 8 21.5 15.5t21.5 13.5 q16 6 27 14q10 10 24.5 17.5t26.5 17.5q14 2 25 23q4 4 6 5t4 5q12 8 21.5 16t19.5 17q8 6 14 12t6 16q2 6 15 19q8 16 16 32.5t12 32.5q6 18 4 34.5t-10 35.5q-8 16 -24 33q-37 27 -70 43q-43 27 -100 38q-53 16 -125 27q-20 2 -40 5t-42 3h-49z" />
<glyph unicode="Q" horiz-adv-x="1036" d="M745 59q4 -4 5 -10l-7 -6q0 -2 -4 -6q-6 -12 -22 -8l-35 14q-20 10 -34.5 22.5t-26.5 26.5l-41 45q-12 16 -15 27q0 4 -6 10l-12 16l-2 3q-6 10 -11.5 20t-11.5 20l-16 -12q-12 -12 -25.5 -23.5t-27.5 -21.5q-6 -6 -19 -12q-16 -10 -26 -23q-14 -14 -29 -22 q-14 -10 -28.5 -17.5t-28.5 -15.5q-53 -29 -121 -39q-10 -4 -22.5 -3t-24.5 3q-70 6 -119 39q-10 6 -18.5 12t-14.5 17q-6 8 -13 15t-12 17q-4 8 -6 15.5t-2 17.5q-2 16 -5 31.5t-7 32.5q-6 14 -2 26q10 29 4 56q0 14 2 22q6 20 8 40t11 40q4 16 4 27q0 12 8 20q4 4 4 10 l4 23q0 14 8 24q4 6 8 23q8 35 19.5 69.5t30.5 69.5q8 12 14 33q4 10 14 16q8 4 4 13q-2 6 4 12q4 4 4 8q-2 6 0.5 10.5t4.5 8.5q2 6 10 18q4 4 4 9t10 9q8 4 4 9.5t0 9.5q4 8 8 20q4 14 11.5 26.5t15.5 25.5q4 8 21 20q8 8 4 14q0 4 1 6.5t1 6.5q6 20 22 45q8 10 14.5 22.5 t18.5 22.5l6 12q20 41 49 78t62 72l39.5 39.5t42.5 35.5q12 10 25.5 19.5t27.5 19.5l10 6q45 27 92 2q23 -12 39 -30l4 -6q0 -10 -8 -11q-6 0 -13 -1t-14 3q-10 2 -26 -2q-27 -10 -41 -24l-41 -31q-16 -10 -25 -20l-31.5 -31.5t-31.5 -32.5l-25 -29q-16 -23 -31.5 -44 t-31.5 -44q-6 -6 -15 -22q-16 -25 -30.5 -49.5t-28.5 -50.5q-14 -25 -27.5 -50.5t-25.5 -52.5q-16 -31 -30.5 -61.5t-29.5 -63.5q-12 -31 -24 -60.5t-23 -60.5q-10 -31 -19 -61.5t-20 -63.5q-4 -14 -9 -27.5t-3 -29.5l-2 -2q-4 -16 -5 -32.5t-5 -33.5q-4 -20 -4 -40.5v-40.5 q-2 -6 -1 -13.5t1 -13.5q0 -18 5 -35.5t13 -34.5q8 -18 33 -37q8 -4 16.5 -8t18.5 -4q16 0 31.5 1t31.5 5q57 12 111 45q35 23 66.5 44.5t60.5 50.5l37 30l28 25q-4 8 -6 14t-4 15l-26 53q-6 16 -12.5 30.5t-10.5 30.5l-23 62l-22 51q-6 16 -12.5 30.5t-10.5 30.5 q-4 8 -8 29q-2 2 -2 6q0 14 17 19l49 6q12 4 16 -11q6 -23 12.5 -45t14.5 -45q10 -35 23.5 -70.5t27.5 -70.5l33 -78q14 14 24 27.5t23 28.5q4 4 4 6q8 6 16 13t15 15q8 8 13 16.5t13 16.5l29 37q10 14 20.5 28.5t26.5 26.5q4 4 4 6q10 16 21.5 30.5t23.5 31.5l19 29 q4 10 9 19t15 17l31 54l10 20q12 12 16 29q0 4 9 12q16 25 22 45q2 6 5 12.5t5 12.5q4 6 8.5 12t4.5 14q0 6 8 15q4 10 9 21t7 24q0 6 2 12l4 12q4 16 8.5 30.5t8.5 31.5l8 24q2 6 1 12.5t-1 10.5l4 31q0 6 1 12t1 12q2 20 0 41q-4 16 -8 29.5t-8 29.5q-4 10 -9.5 19.5 t-9.5 19.5t-13 16.5t-15 16.5q-12 12 -39 21q-12 4 -23 4q-10 2 -21.5 1t-21.5 1t-21.5 4t-21.5 2v-2q0 2 -1 3t-1 3q-2 4 0 10l15 10q6 4 22 9h14q39 4 70 -7.5t59 -33.5q14 -10 26.5 -21.5t23.5 -23.5q16 -23 26 -45.5t17 -46.5q8 -43 6 -89v-2v-29.5t-2 -21.5t-4 -21.5 t-7 -29.5q-4 -25 -13 -49.5t-15 -48.5q-14 -29 -26.5 -59.5t-29.5 -59.5q-6 -14 -13 -27.5t-19 -25.5l-4 -9q-12 -39 -45 -75q-8 -10 -15.5 -21.5t-11.5 -21.5q-12 -27 -33 -49q-12 -14 -21.5 -27.5t-19.5 -28.5q-8 -10 -14 -18t-17 -17q-6 0 -6 -6q-6 -14 -18 -23t-19 -24 q-4 -6 -8 -11t-8 -11t-12 -13q-20 -18 -29 -34q-4 -10 -10 -15q-10 -6 -17.5 -14t-13.5 -19q-8 -10 -15 -19t-18 -15l7 -13l16 -24l14 -23q35 -63 97 -125q10 -10 19 -20.5t21 -18.5z" />
<glyph unicode="R" horiz-adv-x="1415" d="M219 201q8 20 13.5 37.5t15.5 35.5l37 101q4 14 -2 14q-10 2 -13.5 3t-5.5 2t-5 1t-15 2l-56 15q-10 4 -10 6q-35 14 -35 49q2 10 4.5 15t12.5 18q6 8 24 12q25 10 50.5 22.5t54.5 20.5q16 4 35.5 10t35.5 10q14 6 21 23q4 2 8 10q4 20 13.5 41t17.5 39l24 55 q12 31 25.5 61t28.5 58q10 35 21 65.5t26 63.5q2 4 5 9.5t3 11.5q4 8 6 16t6 16q2 0 2 3q0 2 2 4q4 10 7.5 21t9.5 24q2 10 6 22t8 23q10 33 19.5 64.5t15.5 62.5q0 4 2 10t2 12q2 4 -1 7t-5 3q-41 -6 -79 -11t-77 -9q-49 -12 -97 -21.5t-101 -19.5q-55 -12 -112.5 -25.5 t-115.5 -33.5q-20 -8 -40.5 -15.5t-41.5 -17.5q-70 -25 -127 -57q-18 -10 -36.5 -20.5t-34.5 -16.5l-45 -37q-4 -6 -6.5 -11.5t-8.5 -11.5q-8 -10 -16 -8q-4 4 -8 6t-6 4q-4 12 -9.5 24.5t-5.5 27.5q-4 10 6 20l6 10q23 16 47.5 32.5t49.5 31.5l6 4q20 0 37.5 8t34.5 18 q8 6 17 9.5t19 7.5q23 12 47.5 20.5t47.5 18.5q12 4 28 8q18 2 41 12q6 6 19 6q29 10 65.5 20.5t69.5 18.5q23 6 44 8.5t40 10.5q18 2 36.5 5t37.5 7q10 2 19 3t19 5q47 10 89.5 15.5t85.5 11.5q16 4 32.5 6t32.5 2q18 2 19 16q6 25 13 49.5t5 49.5q-2 14 0 32q4 4 4 8.5 t4 8.5q12 10 33 6q4 -2 5 -4t5 -6q12 -16 21 -21q12 -4 12 -24q-4 -14 -6 -28.5t-8 -31.5q-2 -6 -5.5 -18t-1.5 -19q0 -8 7.5 -7t17.5 3q27 2 50.5 3t47.5 -1q10 0 20.5 2t20.5 5q16 6 35 2q23 -4 48.5 -2t51.5 2q14 2 27 -2q10 -4 21 0q12 -4 24 0q4 2 9 2h10 q23 -4 46 -4.5t48 -4.5q20 -6 43.5 -7t46.5 -5q29 -4 53.5 -10t52.5 -17q12 -4 23.5 -6t21.5 -8q43 -12 72 -35q61 -39 82 -96q2 -8 3 -16t7 -15q10 -25 7 -52.5t-13 -55.5q-8 -23 -31 -49l-73 -72q-23 -14 -41.5 -24.5t-36 -19.5t-35.5 -18.5t-43 -23.5 q-35 -16 -69.5 -31.5t-73.5 -32.5q-23 -10 -43.5 -18t-38.5 -18q-20 -6 -40 -11.5t-42 -15.5q-10 -6 -26.5 -9t-28.5 -11q-31 -12 -60 -22.5t-61 -20.5q-6 0 -13 -3q-41 -16 -77.5 -26t-77.5 -23l-84 -26q-39 -12 -75 -22.5t-77 -22.5q-6 -2 -16 -2q-14 -6 -19.5 -11.5 t-11.5 -21.5q-4 -14 -12 -29.5t-12 -32.5q0 -8 4 -8q20 -4 41.5 -7t42.5 -7q31 0 57 -10q10 -4 21.5 -5.5t21.5 -3.5q16 -4 31.5 -7t31.5 -7q4 -2 8.5 -2t6.5 -2q29 -4 54.5 -13.5t53.5 -17.5q12 -2 24.5 -7t24.5 -11q29 -12 59 -20.5t58 -24.5q10 -4 20.5 -11.5t22.5 -11.5 q27 -14 48.5 -29.5t43.5 -27.5q8 -4 17 -10q12 -14 26.5 -25.5t28.5 -23.5q10 -10 12 -17q4 -10 -2 -20q-4 -8 -8 -7l-22 7q-47 31 -93.5 56.5t-91.5 47.5l-98 39q-6 4 -17.5 7t-21.5 11l-37 9l-78 20q-12 6 -21 9t-22 5q-12 0 -14 2q-27 10 -56.5 14.5t-58.5 10.5 q-10 0 -26 4q-27 8 -58 12q-14 2 -26.5 2t-22.5 5q-10 0 -12 -2q-2 0 -10 -5l-9 -8q-4 -14 -9 -27.5t-9 -25.5q-14 -20 -27 -51q-6 -8 -7 -17.5t-5 -19.5q-6 -16 -10 -30.5t-8 -26.5q0 -16 -13 -29q-14 -20 -30 -12q-6 2 -11.5 3t-11.5 5q-12 4 -4 12q-6 14 -4 29z M1589 1130v17q-16 41 -49 67q-23 25 -53 35q-74 35 -158 47q-10 4 -23.5 6.5t-25.5 6.5q-10 2 -23.5 1t-25.5 3q-25 4 -52.5 6t-54.5 4q-6 0 -13 1t-13 -1l-51 4q-16 -4 -33 0q-6 2 -12.5 1t-12.5 -1q-23 -2 -43 0t-43 -2q-35 0 -67.5 -4t-65.5 -4q-16 -4 -25 -4 q-4 0 -18 -15q0 -8 -4 -20q-4 -16 -7 -33.5t-14 -36.5q-6 -20 -13 -42.5t-13 -45.5l-8 -20q-8 -16 -13.5 -32.5t-9.5 -33.5q-2 -23 -16 -53q-10 -18 -16.5 -38.5t-16.5 -37.5q-6 -16 -10 -34.5t-19 -36.5q-4 -4 -4 -9.5t-2 -7.5q-4 -6 -4 -11t-4 -11q-12 -16 -14 -34 t-15 -34q-4 -16 -13 -34.5t-15 -35.5q0 -6 -3.5 -12t-3.5 -12q-16 -8 -10 -19q4 -6 10.5 -3t10.5 1q10 4 17 7.5t18 7.5q25 8 50 13t48 19q6 4 14 3.5t15 3.5q12 2 21 6t22 8q10 2 16 2h10l21 6l32 14q43 12 86 33q14 2 25.5 4t24.5 6q6 4 10 3.5t8 3.5q12 10 25.5 10 t23.5 4q27 12 64 22q37 18 72.5 33t74.5 29q25 12 55 22q12 6 25.5 10.5t28.5 14.5q8 10 23.5 16.5t27.5 10.5q6 4 14 8t14 8q12 4 19.5 9t17.5 7q4 4 8.5 5.5t8.5 5.5q2 4 8 7t10 7q20 12 36.5 28.5t33.5 28.5q20 16 33.5 37t23.5 43zM299 446q16 -2 25 15q4 8 4 18 q4 8 -2.5 12.5t-12.5 2.5q-12 -6 -41.5 -11.5t-42.5 -9.5l-8 -4t-2 -6l12 -8q8 -4 33 -5t31 -4h4z" />
<glyph unicode="S" horiz-adv-x="1314" d="M313 14q-12 -2 -29.5 -1t-35 4t-31.5 6.5t-20 5.5q-29 8 -61 21t-56 34q-29 25 -39 45q-8 16 -8 36.5t6 43.5q2 6 5 11t5 9q4 10 17 11q4 0 8 2q12 -2 17 -4t3 -15q-2 -10 -4 -17t-8 -18q-4 -6 -2 -19t8 -17q16 -8 23 -17q12 -12 31.5 -19t37.5 -16q8 -2 13.5 -4t11.5 -4 q8 -4 17 -8t24 0q10 -8 15 -9t8 1t7.5 2t14.5 -6q4 -2 16 2q27 2 40 0t24 -2q8 -4 15 -1t15 7q12 2 21 0q8 -10 24 0q12 6 21 6q6 0 10 1t10 1q20 -4 37 4l4 2q2 0 2 2q10 -4 17.5 -1t15.5 5q8 0 16.5 2t14.5 2q14 0 28.5 2t28.5 13q8 6 15 0q8 -4 14 2t12 7t13 1q8 2 15 5 t15 5l31 10q6 0 12 2.5t10 4.5q8 2 25 2q4 4 11 8t18 8q4 2 7 1t7 1q10 4 18.5 8t16.5 4q8 4 15 6.5t14 8.5l30 18l39 19.5t37 25.5q20 18 34.5 31.5t23 28t9.5 32t-3 39.5q-4 18 -12.5 27.5t-18.5 23.5q-29 43 -70 76t-88 60q-70 37 -141 67q-23 10 -46.5 16.5t-45.5 16.5 q-35 12 -71 26.5t-71 24.5q-31 10 -58.5 27.5t-55.5 34.5q-18 14 -40 30.5t-34 38.5q-25 39 -21 94q2 8 0 16.5t0 16.5q4 12 8.5 24.5t12.5 26.5q31 53 84 97q57 49 115 88q10 8 21 15t26 13q29 12 52 26.5t50 27.5q35 14 66.5 25.5t64.5 21.5q29 10 57.5 16t59.5 12 q4 2 16 2q4 2 9.5 1t9.5 2q23 2 44 2t42 -5q12 0 23.5 -3t23.5 -7q16 -4 22 -16l37 -55q4 -10 6 -22.5t-2 -27.5q-4 -10 -4 -18v-18q-4 -12 -6 -24.5t-10 -27.5q-4 -12 -16.5 -16t-20.5 4q-23 20 -14 57q4 12 7 25.5t7 28.5q6 10 4 14q2 8 -6 16q-10 8 -25 13q-23 8 -49 11 t-55 -1q-33 0 -72 -6q-76 -12 -157 -51l-91 -43q-57 -31 -109 -67t-102 -81q-20 -16 -36.5 -35.5t-30.5 -42.5q-10 -20 -11 -39.5t9 -40.5q8 -14 21.5 -24t25.5 -19q23 -12 41 -22t41 -21l12 -4t14 -6q23 -10 46.5 -16t46.5 -17q2 -2 8 -2q20 -10 37.5 -16t40.5 -14 q23 -4 42 -12.5t38 -16.5q31 -14 60.5 -25.5t57.5 -27.5q29 -16 58.5 -36t54.5 -42q27 -23 48.5 -47.5t39.5 -55.5q14 -23 20.5 -47t14.5 -51q-2 -14 -3 -27.5t-1 -27.5q-2 -8 -3 -10t-5 -11q-4 -4 -5 -12q-4 -16 -13 -28.5t-21 -24.5q-20 -23 -44 -43.5t-55 -36.5l-69 -37 q-53 -25 -108.5 -42t-115.5 -34q-23 -6 -38 -9t-29 -6t-31.5 -6t-42.5 -9q-29 -6 -57.5 -9.5t-57.5 -7.5q-18 -2 -34.5 -1t-34.5 3q-8 0 -10 -2q-16 -2 -20.5 -2t-5.5 1t-6.5 2t-21.5 3z" />
<glyph unicode="T" horiz-adv-x="1196" d="M485 1196h8.5t10.5 8q8 4 12 4q20 8 35 21q12 4 26.5 11t26.5 9q10 6 23.5 8.5t23.5 12.5q6 -2 15 -2h6q10 4 17 10t18 6q10 0 20 3t18 -3q6 0 23 4q-4 10 3 11t13 6q6 4 14.5 5t12.5 5q4 6 6 6h4h25q6 4 14 4q4 2 8 0t9 4q12 12 38 17q12 0 25.5 3t28.5 3q16 -2 24 2 q20 10 39 10l12 -2h10.5t8.5 4q2 -2 6 2l59 14q10 -4 24.5 -1t31.5 -1q6 0 12 1t10 1q14 -6 31 4q16 8 35 0q10 4 18 8.5t19 0.5l32 -11q8 0 13 7q10 10 22.5 10h22.5q12 -2 25.5 0t25.5 -2q12 4 26.5 2t24.5 -6q25 -4 47.5 -5t44.5 1q4 -4 21 -5q14 -4 27.5 -6t23.5 -6 l41 -6q10 2 14 -1t13 -7q12 -2 23 -9.5t26 -9.5q27 -8 57.5 -22t46.5 -43q16 -35 5 -40t-36 7q-8 10 -17 13.5t-19 13.5q-23 8 -45.5 14t-47.5 10q-27 4 -52 11.5t-54 11.5q-2 -2 -12 4h-11q-16 -2 -31.5 1t-25.5 5q-18 2 -33.5 4t-31.5 -4q-16 4 -33 6t-29 -2 q-18 4 -36.5 1t-37.5 -5q-16 0 -36.5 -2t-38.5 2q-14 -4 -30.5 -4h-37.5q-12 -6 -24.5 -6t-24.5 -2q-20 -4 -41 -7t-43 -5q-6 -2 -14.5 -4.5t-16.5 -6.5q-31 -4 -65.5 -11t-63.5 -13l-155 -39l-166 -58q-33 -10 -61.5 -19t-59.5 -22q-25 -12 -47.5 -23t-46.5 -22 q-51 -20 -103.5 -45.5t-99.5 -52.5q-25 -14 -52.5 -27.5t-50.5 -31.5q-20 -10 -37.5 -22.5t-37.5 -33.5q-6 -6 -13 -4q-29 -25 -39 13q-8 10 -12 17t-4 17q0 14 10 23q0 2 2 0q41 31 83 55.5t89 50.5q16 0 31 13q20 4 32.5 9t24.5 13q27 16 50.5 26.5t52.5 20.5l41 21 q14 4 25.5 9t27.5 13q2 -2 12 5q14 8 30.5 13t33.5 15q4 -2 11 0t11 -6zM510 201v4q0 2 1 4t1 6q4 14 12 21q4 4 4 12q2 18 9.5 34.5t17.5 30.5q16 35 18 70q6 20 19 43q14 31 16 57q4 16 9.5 31.5t17.5 30.5q4 4 4 10q12 27 23 66q2 25 18 49l4 12q2 25 11.5 49.5 t15.5 48.5q10 33 19 59.5t18 57.5q2 12 8 27q4 27 11 54.5t13 55.5q4 16 8.5 31.5t6.5 32.5l14 41q8 27 33 16q6 -4 6 -8t6 -10q12 -4 18 -15q10 -14 9 -30q0 -10 -4 -19q-4 -16 -9.5 -29.5t-9.5 -29.5q-4 -18 -9 -33.5t-5 -36.5q-10 -25 -16.5 -51.5t-12.5 -54.5 q-12 -43 -27.5 -87t-27.5 -92q-4 -16 -10.5 -31.5t-12.5 -29.5q-14 -41 -28.5 -82t-32.5 -80q-6 -16 -10 -30.5t-11 -26.5q-25 -74 -51 -148l-29 -94l-4 -12q-4 -4 -4 -8t-4 -2l-35 22q-25 18 -18 45v19z" />
<glyph unicode="U" horiz-adv-x="1193" d="M690 365q8 25 27 38l16 21q4 4 6 8t6 10q10 31 31 52q10 6 17 24q12 35 32 64q8 8 13.5 16t9.5 16t4 15q4 10 7 18t7 19l23 43q4 12 10 16q10 4 13 10t8 15q2 12 10 22q8 12 6 21q4 8 5 17t11 13q4 8 8.5 15.5t8.5 15.5q4 4 3 6t-1 4q-2 8 0 15q2 2 2 6q8 14 13 27.5 t11 25.5t10.5 24.5t10.5 26.5l20 53q6 16 11.5 30.5t17.5 29.5v10q0 6 2 8q14 8 8 23v10q4 6 4 13.5t2 15.5q4 10 9.5 20t7.5 23l8 45q4 8 6 14t2 14q2 12 5 24.5t-1 25.5q0 4 2 8t2 8q4 12 6.5 23.5t-4.5 21.5q-2 4 -1 6t1 4q4 8 5.5 16.5t1.5 16.5l4 43q0 6 4 10q0 4 5 6 t9 0q6 -4 19.5 -9t19.5 -9q4 -4 4 -8q4 -31 6 -60.5t-2 -60.5q-4 -16 -4 -31.5t-6 -32.5q-2 -2 -2 -6q0 -16 -4 -30.5t-8 -28.5q-4 -25 -9.5 -49.5t-15.5 -48.5q-10 -23 -16.5 -46.5t-16.5 -46.5q-18 -53 -40.5 -106t-45.5 -107q-29 -66 -62.5 -129t-68.5 -127 q-16 -33 -34.5 -63.5t-37.5 -62.5q-25 -43 -52 -85t-56 -83q-8 -12 -10 -19q-43 -63 -103 -129q-10 -12 -20 -24.5t-23 -24.5q-16 -16 -35.5 -30.5t-37.5 -30.5q-23 -16 -48.5 -26.5t-54.5 -19.5q-8 -4 -16 -4h-19q-18 0 -47.5 1t-46.5 8l-24 10q-8 4 -14.5 8t-14.5 8 q-23 14 -41 31.5t-33 40.5l-24 45q-10 23 -14.5 34t-8.5 36q-4 12 -5 24t-5 25q0 6 -1 12t3 12v4q-4 16 -3 30.5t3 31.5q-2 4 3 7t5 7q4 12 -1 23.5t-5 23.5q4 10 4 22.5t2 22.5q0 10 -1 21.5t1 21.5q2 14 3 26.5t5 27.5l4 20q-2 10 2 19.5t7 19.5q0 10 1 19.5t5 19.5 q4 6 4 20q4 20 8 35q8 16 8 27q0 18 8 35l13 36q0 10 4 17.5t8 17.5l6 31l8 16q4 10 9.5 20.5t7.5 20.5t6 21.5t8 21.5q14 33 27 72q4 14 10 28.5t10 28.5q8 18 15.5 37t13.5 37q10 31 24 53q8 12 19 9q14 -2 31.5 -6.5t29.5 -10.5q4 -2 8 -10q4 -6 2 -8q0 -6 -4 -19 q-10 -10 -15 -23.5t-11 -27.5q-16 -43 -37 -85t-37 -85q-16 -41 -31.5 -84t-31.5 -84q-10 -27 -15.5 -52.5t-13.5 -51.5q-4 -14 -7 -27.5t-7 -28.5q-2 -16 -7.5 -33.5t-5.5 -33.5q-6 -16 -7 -32.5t-3 -33.5q-2 -6 -2 -18q-8 -35 -9 -71t-3 -70q0 -16 2 -29.5t2 -28.5 q-2 -14 1 -26.5t5 -26.5q0 -14 3 -27.5t7 -25.5q8 -23 17.5 -43.5t21.5 -38.5q10 -12 18.5 -21.5t20.5 -19.5q29 -18 57 -12q16 2 29.5 4t30.5 6q8 0 20 8q18 10 35.5 21.5t34.5 27.5q10 8 17 15.5t18 13.5q8 6 18 18q2 4 10 8q10 4 15 11q8 16 18 20q6 4 11 10.5t10 10.5 q2 4 4 6t2 6q4 16 13 28.5t19 24.5q6 10 12.5 16.5l14.5 14.5q6 8 11 16t14 15q8 6 8 16q0 6 6 10z" />
<glyph unicode="V" horiz-adv-x="1136" d="M930 1053l14 26q8 12 14 17q2 8 9 14l2 2q0 4 2 6l6 6q16 20 29.5 41t25.5 41q2 0 3 2t3 2q12 18 27.5 35t26.5 35q10 10 20 22.5t21 22.5q8 10 16 21.5t18 21.5q6 4 12.5 12.5t12.5 16.5q6 4 10 10t12 10l31 33q4 6 15 14q14 14 30 27q10 10 18.5 15t18.5 14 q29 23 62 22q10 -4 19 -7t17 -11q12 -8 12.5 -20.5t-3.5 -21.5t-13.5 -12.5t-15.5 9.5q0 6 -6 6h-6q-43 -20 -72 -51q-4 -4 -6 -8.5t-8 -6.5l-58 -61q-10 -14 -20 -23.5t-21 -19.5q-12 -14 -21 -27.5t-20 -23.5q-10 -16 -21 -29.5t-28 -26.5q-10 -14 -19 -29.5t-22 -31.5 q-25 -25 -35 -51l-20 -29h-2l-41 -68q-14 -23 -26.5 -45t-28.5 -45q-14 -18 -26.5 -37.5t-25.5 -40.5l-43 -69l-6 -12q-23 -29 -40 -61t-35 -62q-16 -23 -29.5 -48.5t-30.5 -48.5q-2 -2 -8 -12q-10 -20 -21.5 -39.5t-21.5 -38.5q-20 -33 -38.5 -65.5t-37.5 -65.5 q-6 -12 -12 -24.5t-14 -22.5l-11 -12l-61 -109q-4 -4 -5 -8t-5 -8l-76 -117q-16 -25 -45 -53q-14 -12 -35 -18q-37 -6 -61 12q-31 23 -52 59q-8 16 -13 31.5t-9 34.5q-12 86 -19 174q-2 33 -4 64.5t0 66.5q-4 23 0 45q2 4 1 8t-1 8q0 6 -1 12.5t1 10.5q0 14 2 26.5t0 24.5 q-2 6 -1 13.5t3 13.5q0 10 1 19t-1 20v16q6 43 7.5 88t9.5 88q6 29 4 51q0 10 1 19.5t3 19.5l10 74q2 10 4 17.5t6 15.5q4 16 5 24q8 41 14 84t12 84q2 4 2 13q4 8 12 10q10 4 23 -2q8 -4 16.5 -9.5t16.5 -11.5q16 -14 14 -35q-4 -23 -7 -45t-11 -45q-4 -10 -6.5 -22.5 t-4.5 -24.5q-4 -12 -6 -25.5t-6 -25.5q-4 -10 -5 -19.5t-3 -19.5l-18 -127q-4 -12 -4.5 -23.5t-0.5 -23.5q2 -6 1 -13t-1 -14l-8 -51q0 -4 -1 -9t-1 -9q4 -20 1 -39t-5 -39v-12q2 -18 -1 -38t-3 -38q-2 -18 -2 -36.5v-37.5q0 -4 1 -6t1 -6q-4 -29 -2 -58.5t2 -58.5 q0 -16 1 -30.5t3 -30.5l10 -93q4 -23 8.5 -45t14.5 -45q0 -2 4 -6q6 -6 10 -2l27 25q27 27 43 53l55 84q10 12 15.5 26.5t13.5 28.5q4 4 5 8.5t5 8.5q16 20 25 39l39 59q4 10 18 16q18 6 12 23v2q0 14 4 18q4 10 6 11q16 23 28.5 46t27.5 48l8 12q4 10 7 18.5t9 16.5 q4 10 10.5 16t10.5 17q0 2 1 2t1 2l20 22q4 6 6.5 14.5t6.5 14.5q10 16 19 32.5t22 33.5q4 8 9 14t9 16q8 18 19.5 33.5t21.5 32.5q4 4 7 6t7 6q10 6 13 14q4 16 12 28.5t18 25.5q4 6 6.5 12t6.5 12q4 10 7 18.5t13 12.5q4 4 8 14q2 14 17 29q2 4 4 5t4 3q8 20 14 29l21 22 q4 4 8 13v2h-4z" />
<glyph unicode="W" horiz-adv-x="1587" d="M700 569q2 14 4.5 23.5t4.5 19.5q0 10 -1 19.5t-1 19.5q2 18 1 36t9 34v4l12 149l-2 3q0 2 -2 2t-1 17t-1 15q-8 -6 -12 -1t-9 -1q-16 -25 -32.5 -50t-32.5 -48q-2 -4 -4 -6t-2 -6q-12 -29 -29.5 -58.5t-34.5 -58.5l-30 -57q-2 -4 -5.5 -8.5t-7.5 -8.5q0 -4 -2 -4t-2 -4 q-2 -10 -8 -20.5t-10 -20.5q-4 -8 -10.5 -16t-12.5 -19q-4 -8 -9 -15t-7 -15t-12 -21q-4 -4 -7.5 -11t-7.5 -16l-6 -18q-12 -29 -29 -51q-10 -18 -22 -35.5t-19 -40.5q-4 -6 -6 -11t-6 -9q-6 -8 -11 -13.5t-9 -13.5l-23 -39q-4 -10 -9 -20.5t-11 -20.5l-25 -35l-12 -16 q-12 -18 -33 -39q-29 -29 -65 -37q-4 -2 -13 -2q-41 4 -65.5 17.5t-38.5 54.5q-2 14 -4 29.5t-2 29.5q2 18 3 34.5t1 33.5q4 23 9 45t5 45q4 14 6 29.5t4 27.5l17 58q4 12 6 26t8 29q4 8 4 16t4 19q6 23 11.5 45t9.5 45q6 18 11 38.5t9 39.5q0 4 1 6t1 6q4 10 9.5 21.5 t7.5 21.5q0 10 4 18t6 21l6 12q4 4 4 8q0 10 2 23.5t6 23.5q4 18 9.5 38t15.5 40q2 12 3 24.5t5 26.5t8 26.5t8 27.5q6 23 13.5 41t11.5 41q2 16 6 33.5t8 33.5q6 20 11.5 36.5t5.5 37.5q0 2 1 6t1 8l8 40t8 38q0 14 21 18q20 4 43 -8l16 -12q4 -2 4 -12q-2 -10 -4 -19.5 t-6 -17.5q-2 -8 -2 -17.5t-4 -19.5q-2 -14 -5 -27.5t-6 -29.5q-8 -25 -15 -49.5t-13 -49.5l-21 -75q-8 -23 -11 -46.5t-11 -44.5l-41 -129q-14 -47 -27.5 -95t-32.5 -95q0 -10 -1 -17.5t-3 -15.5q-8 -25 -12 -46t-14 -48q-2 -2 -2 -6q0 -18 -4 -38t-9 -40q0 -6 -3 -16.5 t-7 -18.5l-6 -35l-4 -30q-2 -16 -3 -28.5t-7 -29.5q-2 -2 -2 -4t-2 -6q0 -27 -1 -51.5t-4 -48.5q-2 -16 0.5 -29.5t6.5 -24.5q4 -8 10 -4q20 10 29 21q20 23 34.5 41t26.5 41q6 10 14.5 19t14.5 20q10 14 17 29.5t15 29.5q8 16 16.5 28.5t18.5 26.5l6 15l11 20 q16 29 30.5 56.5t30.5 56.5l25 45q6 10 13 20.5t11 22.5q6 10 13 22q0 2 4 11q10 18 22 40.5t25 43.5q6 10 10 19t10 20q8 6 8 12q4 20 27 45q33 70 78 135q10 16 22.5 30.5t22.5 30.5q4 4 7 8.5t9 8.5q12 8 25 12q12 2 22.5 -5t19.5 -19.5t18 -25.5t20 -19q8 -16 8 -31 q0 -4 1 -11.5t1 -11.5q-4 -14 -3 -28.5t1 -26.5t-4 -25.5t-4 -27.5q0 -25 -2 -49.5t-6 -49.5q0 -8 -1.5 -16t-5.5 -16q-2 -10 -2 -17.5v-13.5q4 -10 3 -17.5t-3 -15.5q-4 -4 -4 -9t-2 -13l-4 -86q-2 -27 0 -52.5t0 -52.5q4 -14 3 -31.5t1 -31.5l8 -66q4 -29 11.5 -57.5 t17.5 -50.5q6 -47 33 -74q4 -4 4 -10q6 -16 18.5 -28.5t22.5 -25.5q10 -8 21.5 -7t21.5 5q20 6 35.5 14.5t27.5 24.5q29 29 45 60q10 12 21.5 26.5t17.5 30.5q14 23 23.5 44.5t17.5 43.5q4 16 14.5 29.5t12.5 31.5q10 18 17.5 40t17.5 42q0 4 2 9q23 49 39 108q8 20 18 33 q12 12 8 29q-2 4 2 14l7.5 15t5.5 18q0 2 2 4q4 10 6 20.5t6 20.5q6 10 7 19t7 16q2 2 2 8q0 8 3.5 16t5.5 17q6 10 10 22t8 25q6 6 6 14q2 16 5 29.5t14 29.5q4 12 4 17q4 10 7 18t9 15q4 8 4 12q0 12 1 20t3 17q4 12 8.5 27.5t12.5 29.5q4 12 6 25.5t6 27.5q6 12 10 23.5 t4 25.5q4 10 7.5 18.5t13.5 18.5q10 8 2 15q0 2 -1 4t-1 4q12 18 16 37.5t13 36.5q4 10 6 18t8 14q4 2 0 13q2 4 3 10t5 14q12 20 14 51q6 4 11 2q4 4 4 7q0 8 2 12t4 7t2 7v10.5t6 8.5q4 0 4 6q-2 10 2 16t8 14l8.5 25.5t14.5 24.5q0 8 4 12q8 6 16.5 10t18.5 8q2 -2 4 -2 h6q4 -2 8 -2q2 -4 6 -4t4 -4t4.5 -5t4.5 -5q6 -4 3 -13.5t-7 -15.5q-4 -10 -16.5 -20.5t-16.5 -20.5q-4 -6 -6 -14t-6 -12q-2 -10 -5.5 -19.5t-7.5 -19.5q0 -4 -1 -6.5t-3 -6.5q-4 -16 -11 -27.5t-9 -21.5q-4 -10 -8.5 -21.5t-8.5 -21.5q-6 -10 -6 -22q-10 -57 -33 -101 q-10 -16 -13 -26.5t-5 -20.5v-22q-6 -10 -6 -11l-15 -57q-8 -23 -18 -39q-8 -8 -4 -14q2 -4 -1 -7t-3 -7q-6 -20 -10 -40t-11 -40q-2 -8 -7 -16.5t-7 -18.5q0 -4 -2 -6q-6 -31 -15.5 -59.5t-19.5 -59.5q-6 -10 -7 -18.5t-5 -18.5q-8 -12 -8 -22q-6 -29 -15 -50 q-8 -16 -15 -30.5t-11 -34.5q-6 -27 -14.5 -51.5t-18.5 -49.5q-4 -12 -9 -25t-9 -30q0 -4 -2.5 -8t-4.5 -8q-10 -27 -22 -48.5t-21 -50.5v-4q-16 -16 -22 -36.5t-17 -40.5q-23 -53 -53 -93q-4 -12 -8 -18l-18 -23q-10 -18 -26.5 -32.5t-29.5 -26.5q-23 -16 -36 -24.5 t-31 -8.5q-4 0 -6 -3t-7 -3q-29 -6 -51 -1t-45 15q-33 20 -59 50q-16 16 -27.5 38.5t-21.5 45.5q-20 41 -30.5 84t-19.5 86q-2 27 -3 50t-5 52q0 4 -1 10t-1 15q0 8 -1 13t-1 9q4 20 4 39.5t2 38.5z" />
<glyph unicode="X" horiz-adv-x="1081" d="M1106 1346l-49 -72q-37 -45 -73 -88t-75 -84l-129 -144q-47 -53 -97 -103l-101 -101q-4 -2 -5.5 -4t-5.5 -7q-2 -2 -2 -10q0 -10 4 -26t10.5 -33t10.5 -33q4 -6 4 -14q10 -20 13 -39t7 -39q0 -10 7 -17l24 -90q4 -25 9.5 -47t13.5 -45q4 -14 5 -27.5t9 -25.5 q6 -27 15.5 -54.5t19.5 -54.5q29 -78 65 -147q12 -6 7 -16.5t-18 -15.5t-31.5 -1t-30.5 27q-12 16 -19.5 34.5t-17.5 34.5q-4 12 -11.5 23.5t-11.5 22.5q-4 8 -4 15t-4 15l-4 13q-8 14 -12 28.5t-8 30.5q-4 6 -4.5 12t-2.5 15q-2 8 -6 15t-4 17q-2 10 -6 17.5t-6 15.5 q0 10 -2 17.5t-4 15.5q-8 14 -11.5 27.5t-5.5 27.5q-10 41 -19 79t-22 77q-2 16 -8 29.5t-6 29.5l-12 25h-2q-6 -2 -13 -10q-29 -27 -55 -54.5t-55 -56.5q-12 -14 -25.5 -26.5t-25.5 -28.5q-10 -10 -20.5 -19.5t-20.5 -21.5q-8 -10 -16.5 -20.5t-22.5 -20.5 q-29 -33 -57.5 -68t-59.5 -70q-2 -6 -14 -14q-23 -29 -46.5 -54.5t-45.5 -53.5q-23 -27 -43.5 -51.5t-36.5 -49.5q-6 -8 -11.5 -13t-9.5 -13q-8 -8 -24 -9q-8 4 -15 5q-16 2 -25.5 11t-13.5 19q-2 2 2 10q6 14 16.5 26.5t20.5 25.5l6 6h2q14 2 17 10l14 16q2 8 7 13.5 t5 11.5l5 8q43 29 63 66q8 8 12 10q14 12 24.5 26.5t20.5 28.5q10 16 21.5 28.5t23.5 27.5q10 8 17.5 16t15.5 16q10 10 17.5 21.5t17.5 21.5q6 8 15.5 16.5t15.5 16.5q10 4 12 10q2 4 3 8.5t11 6.5q8 10 13 14q12 8 21 17.5t16 19.5q12 20 27.5 35.5l31.5 31.5q20 20 43 37 l20.5 20.5l20.5 20.5l18 19q16 8 19 18q2 8 16 19q6 2 2 10q0 14 -2 20q-4 10 -8 21.5t-8 21.5q-8 10 -10.5 22.5t-6.5 24.5q-6 10 -9 20.5t-9 20.5q-4 12 -9 23.5t-9 24.5q-23 47 -43.5 94t-47.5 94l-36 70q-16 29 -26.5 55t-21.5 55q-10 29 -6 51q0 10 8 6q31 0 48 -10 l25 -15t9 -30q0 -29 21 -63q10 -29 21.5 -55.5t27.5 -53.5l64 -127q6 -10 12 -21.5t10 -23.5q14 -27 23.5 -55.5t25.5 -54.5q2 -6 3 -13.5t5 -15.5q2 -4 2 -12.5t9 -8.5q10 -2 14 4.5t10 12.5q4 6 10.5 11t12.5 11q10 6 18 14.5t17 16.5q6 10 15 19.5t15 19.5q10 12 27 20 l19.5 19.5t15.5 21.5l14 17l8 8t2 10q0 2 4 6q12 4 20.5 14.5t18.5 18.5l33 43q4 2 4 4t4 4q16 12 27.5 27.5t25.5 28.5q8 8 14.5 15t8.5 17q4 4 6 8.5t6 10.5q27 29 47.5 60.5t44.5 62.5q4 8 9.5 15t9.5 17q4 16 20 13q8 -2 12.5 -1t8.5 -3q27 -10 43 -33q0 -4 2 -6v-8z " />
<glyph unicode="Y" horiz-adv-x="1064" d="M535 -94q2 10 2 21.5v21.5q2 10 3 18t5 19q0 16 6 32.5t6 32.5q0 4 4 12q4 14 8 26.5t6 27.5q2 20 13 43q8 20 10 30q2 6 3 12.5t5 10.5q2 0 2 6q-2 12 4 27l15 49q-4 14 12 24q4 4 4 8.5t4 8.5t3 8t-1 8q-2 4 0 9.5t0 9.5q0 6 6 16q8 10 11 23q2 14 10 32q10 20 14 45 q0 10 5 16.5t12 12.5q6 8 6 21q2 10 4 18t6 16q4 14 10 26.5t6 27.5q0 6 4 10q10 18 16.5 37.5t16.5 38.5q4 6 8 18q6 18 12.5 35.5t16.5 34.5q4 8 4 12q2 8 5 15.5t7 15.5t5 14q2 10 7 19.5t9 17.5q4 12 11 23.5t7 25.5q0 6 4 14q12 18 21.5 36t15.5 40q8 27 19 43 q4 4 5 9.5t3 9.5l16 43q10 10 19 26q4 8 6 15.5t6 15.5t7 13t7 14l-2 2q-2 -2 -4 -1t-4 -3q-16 -16 -33.5 -33t-33.5 -35q-23 -23 -44.5 -42t-44.5 -40q-29 -27 -57.5 -53.5t-56.5 -48.5q-27 -20 -50.5 -42t-50.5 -44q-10 -4 -17 -11.5t-15 -15.5q-20 -20 -41 -31l-4 -4 q-23 -20 -45.5 -38.5t-44.5 -35.5l-58 -43q-10 -6 -22.5 -14t-22.5 -16q-39 -25 -90 -41q-41 -14 -90 -8q-14 0 -25 8q-18 10 -35.5 22.5t-33.5 26.5q-31 31 -25 72q0 16 2 24l17 72q2 10 10 31q6 14 11 27.5t13 27.5q14 33 26.5 65.5t29.5 63.5q25 47 47 95t47 95 q10 25 20.5 51.5t22.5 53.5q4 8 6 15t6 11q6 8 17 9h4q6 -2 23.5 -11.5t21.5 -13.5q14 -14 6 -31l-8 -22q-31 -59 -60.5 -119.5t-58.5 -124.5q-23 -39 -41.5 -79t-34.5 -81q-25 -61 -43 -123q-8 -43 -6 -81q-2 -10 2 -16.5t8 -12.5q10 -10 21 -8q47 8 100 35l27 16 q18 6 35.5 16.5t33.5 20.5q4 0 8 6q14 12 31 22.5t31 24.5q23 16 43 31.5t41 34.5l39 34q12 10 22.5 16.5t20.5 16.5q4 4 6 4q8 10 18.5 18.5t20.5 16.5l16 18q8 12 15 13q10 6 18 15t18 18q2 4 13 8q8 10 19 15t18 17q6 10 16 17.5t18 17.5q12 12 21 17q4 2 7 5l7 7 q14 14 27.5 28.5t27.5 30.5q4 4 13 9q6 4 12 9t10 13q10 16 25 29q16 6 22 22q4 10 11.5 17.5l15.5 15.5t15.5 13t11.5 16q2 4 10 12q18 16 31 37q4 10 13 17t17 16q4 4 9 0q14 4 26 -2q10 -4 21.5 -10.5t17.5 -10.5q6 -2 10 -14v-13.5t-4 -13.5q-25 -43 -43 -86 q-6 -8 -9 -15t-7 -14q0 -8 -2 -10q-10 -16 -16.5 -29.5t-14.5 -29.5l-43 -86q-2 -4 -5 -8t-5 -9q-4 -12 -9.5 -24t-11.5 -25q-8 -20 -20 -43q-4 -10 -9 -21t-12 -22q-4 -12 -8 -23.5t-10 -21.5l-6 -16q-4 -12 -10.5 -23.5t-8.5 -23.5q-8 -27 -18 -43q-2 -2 -2 -6 q-6 -23 -15.5 -42.5t-19.5 -39.5q-4 -8 -4 -11q-4 -16 -9 -27t-9 -28q-4 -10 -9.5 -19.5t-7.5 -19.5t-6 -19t-8 -20l-21 -59q-6 -14 -11 -28.5t-11 -30.5q-4 -16 -9.5 -29.5t-9.5 -30.5q-10 -20 -15 -43.5t-15 -46.5q-2 -14 -8.5 -27.5t-10.5 -29.5l-37 -133 q-6 -23 -10 -43.5t-12 -40.5q-4 -20 -7 -39t-8 -39q-2 -6 -2 -21q-2 -18 -3 -35.5t-1 -35.5q-2 -4 -1 -9.5t1 -9.5q2 -6 7.5 -12t15.5 -2q12 4 22 -6q4 -4 10.5 -1t10.5 3q6 0 6 -11q0 -4 -4 -4q-6 -20 -27 -26q-12 -4 -18 -2q-10 2 -24.5 5t-24.5 9l-23 12q-10 6 -16 16.5 t-10 20.5q-4 12 -5 17l5 51h-2z" />
<glyph unicode="Z" horiz-adv-x="1243" d="M1348 1413q-35 -4 -67 -7t-62 -11q-39 -8 -77 -18.5t-79 -20.5l-150 -51q-23 -8 -44 -17.5t-44 -17.5l-77 -37q-53 -23 -101.5 -49.5t-95.5 -55.5q-12 -8 -23.5 -16t-21.5 -18q-4 -4 -8 -5.5t-9 -5.5q-10 -4 -16 0l-6 7q-16 16 -29 34q-8 12 2 23q8 6 15.5 12t17.5 10 q16 10 31.5 20.5t34.5 20.5q39 20 77.5 39t79.5 35q4 2 7.5 4t7.5 2q12 12 37 23l61 24q47 18 94 37t96 33q37 12 76 23.5t78 21.5q29 6 54.5 11t52.5 10q16 4 31.5 6t31.5 2q41 6 74 -4q25 -10 33 -31q4 -4 6 -9t6 -12q10 -14 10 -30q-2 -6 -3 -13.5t-5 -13.5 q-8 -10 -14.5 -18.5t-14.5 -16.5l-39 -35q-23 -18 -46 -36.5t-46 -34.5q-41 -31 -81 -61.5t-79 -61.5q-57 -39 -106 -76l-131 -98q-27 -23 -53.5 -42.5t-55.5 -41.5l-59 -51q-12 -10 -25.5 -19.5t-25.5 -19.5q-14 -10 -26.5 -21.5t-25.5 -21.5l-90 -80q-23 -18 -41 -38 t-41 -38q-31 -31 -62.5 -63.5t-64.5 -63.5q-20 -23 -40.5 -44t-38.5 -44l-48 -53q-18 -18 -33.5 -38t-31.5 -40q-16 -18 -30.5 -36.5t-28.5 -39.5q-41 -57 -72 -115q-8 -14 -12.5 -28.5t-8.5 -28.5v-4q0 -14 15 -18q29 -4 51 2q20 4 38.5 4t39.5 6q6 0 10 2q23 8 44.5 12 t43.5 10q14 4 27.5 7.5t27.5 7.5q25 10 54 14h2q27 14 54.5 19.5t55.5 17.5l37 10l27 8q8 4 14 5q6 2 12 1t13 1q31 8 69 22q35 12 64 19q10 -4 16 2q16 14 39 14q14 2 25.5 6t23.5 4q6 0 10 4q6 6 16.5 8.5t20.5 6.5l113 28q8 4 16.5 3t18.5 3t16 7.5t17 5.5q20 4 38.5 8 t40.5 4q4 0 17 4l26 10q16 -2 28.5 2t27.5 9h4q23 2 46 7t48 7q10 2 20.5 4t20.5 2q10 2 21.5 2t23.5 4q4 2 16 2q20 -2 40 -2h40q23 0 54 -10q8 -2 13 -6t11 -8q12 -12 19 -29q4 -12 -9 -12h-14q-10 4 -22.5 3t-22.5 3h-33.5t-34.5 -2l-28 -4q-27 4 -49 -2 q-35 -4 -68 -10.5t-68 -12.5q-4 0 -20 -4q-12 -4 -25.5 -6t-25.5 -2q-10 0 -17.5 -2t-15.5 -4q-35 -10 -68 -17l-53 -14q-37 -6 -74 -19q-23 -4 -45 -9t-45 -15l-16 -4t-17 -2q-23 -6 -43 -12.5t-43 -14.5q-41 -10 -84 -23.5t-83 -23.5q-27 -8 -50.5 -14t-46.5 -15l-61 -18 l-137 -41q-23 -6 -47.5 -11t-49.5 -9q-16 -4 -34.5 -8.5t-36.5 -6.5q-25 -6 -49 0q-4 0 -9.5 1t-9.5 1q-29 0 -53 29q-12 10 -21 27q-35 45 -14 96q10 23 20.5 43t24.5 41q16 27 34.5 53.5t41.5 52.5q20 31 51 66l12 10q6 8 13.5 14t11.5 17l18 20q14 12 24.5 25.5 t25.5 25.5l9 13.5t11 11.5q12 10 23.5 22.5t23.5 24.5l12 12q8 14 25 25q10 6 18 20q4 8 21 21q16 6 29 24l12 9l26 28q4 6 11.5 11.5t13.5 11.5q6 4 12 11t13 13l20 21q2 6 12 6q8 0 21 12q4 6 10 11q6 6 10 20q12 10 20.5 21.5t24.5 15.5q4 0 8.5 5t8.5 3l12 10 q10 10 19.5 20.5t21.5 18.5q8 4 13 10.5t10 12.5q4 4 9 7t9 7q12 4 27 17l32 26q4 4 7 4q10 10 19 20.5t24 14.5q10 12 28 21q4 4 12.5 9t14.5 9l18 16q4 4 9.5 8.5t9.5 6.5q10 4 18 12t19 16q8 6 13 13.5t13 11.5q10 4 16.5 11t14.5 11q4 4 9 6.5t9 6.5q10 6 18.5 11 t18.5 9q4 4 4 6q2 6 11 7q6 -6 6 0q10 6 18 20q4 8 12.5 14.5t16.5 10.5q20 8 24 20q10 6 15.5 12.5t15.5 10.5q12 2 19 12q4 6 12 11t14 11q10 8 18.5 15.5t18.5 13.5t17.5 14.5t17.5 16.5l26 16q6 0 15 8q14 16 30.5 33t28.5 35q4 4 -2 4q-8 2 -13 2h-9z" />
<glyph unicode="[" horiz-adv-x="561" d="M115 -164l-37 10q-14 4 -22.5 19.5t-4.5 32.5l17 90q4 23 7 45t9 41q6 25 11 50.5t9 51.5q0 6 2 10q10 33 16.5 65t16.5 62q8 29 14.5 56.5t16.5 52.5q4 20 9 36.5t9 33.5q2 16 5.5 29.5t7.5 25.5q4 16 9 32.5t11 32.5q10 43 21.5 83t21.5 81l31 101v2l2 4 q6 31 15.5 61.5t19.5 65.5q0 4 2 8t2 10q2 12 6 27.5t8 27.5q6 23 11.5 42.5t9.5 43.5q2 14 6 29.5t8 32.5q4 23 8 45t8 45l7 57q0 12 3 24.5t5 29.5q2 18 5 35.5t7 33.5q0 18 2 25q0 18 19 28q6 2 12 4.5t12 2.5q55 12 113 12q20 -4 28 -19q6 -16 -6 -26q-20 -8 -35 -8 q-16 0 -31.5 -3.5t-31.5 -5.5q-6 0 -14 -8q-10 -6 -11 -12q0 -14 -2 -21q0 -8 1 -15t-1 -11q-10 -29 -8 -51q-6 -18 -5 -36t-5 -34q-10 -59 -23.5 -119.5t-29.5 -122.5q-8 -35 -18.5 -68.5t-20.5 -68.5l-31 -115l-29 -106q-8 -25 -13 -50.5t-15 -47.5q-12 -35 -20.5 -70 t-18.5 -72q-10 -29 -17.5 -60.5t-15.5 -60.5q-4 -23 -10 -42t-10 -39q0 -10 -1.5 -16.5t-3.5 -14.5q-16 -45 -27 -93l-22 -96q-14 -53 -20 -120q0 -12 -2 -19q0 -4 -1 -8t-1 -8q0 -12 8 -12q10 4 18.5 7t18.5 7q43 14 96 41q25 12 50.5 21.5t49.5 19.5q27 12 52 12 q18 0 26 2q4 0 8 -3t4 -7l-4 -12q-2 -4 -4 -5.5t-4 -3.5l-28 -14q-41 -16 -78 -33.5t-76 -40.5q-51 -29 -100 -43z" />
<glyph unicode="\" horiz-adv-x="657" d="M2 1432q4 8 8 14t13 10q8 4 21 9t19 8q14 6 19 -7v-6q-4 -25 2 -41q4 -16 8 -33.5t10 -33.5q8 -29 19.5 -57.5t17.5 -59.5q4 -8 4 -12q8 -16 13.5 -32.5t17.5 -31.5v-4q4 -20 14.5 -35.5t8.5 -38.5l6 -12q4 -10 9 -19.5t9 -19.5q4 -8 6 -15t6 -16q10 -12 15.5 -26.5 t9.5 -30.5q4 -12 8 -16q4 -6 7 -13.5t6 -15.5q0 -12 6 -16q4 -4 4 -12.5t4 -14.5q4 -8 8 -14t8 -15q4 -16 10.5 -31.5t12.5 -31.5q14 -18 16 -29q4 -10 6 -18t6 -17q18 -45 39 -88t37 -90q0 -6 4 -11t9 -9q12 -16 17 -33.5t15 -34.5v-10q0 -12 5.5 -21.5t13.5 -19.5 q4 -4 7 -10t3 -13q4 -12 10 -16q8 -16 8 -25q4 -8 4 -16t3 -14q4 -10 9 -16.5t9 -14.5q8 -12 8 -18q8 -18 16.5 -37t14.5 -37q10 -23 19.5 -45.5t17.5 -46.5q-2 -2 2 -17q-4 -4 -4 -6t-4 -6q-6 -4 -18.5 -8t-18.5 -6q-12 0 -19 4q-8 10 -13 22.5t-9 24.5q-2 8 -5 15t-8 18 q-8 23 -17 43t-17 43q-12 29 -23.5 55.5t-21.5 54.5q-12 18 -19 41q-2 4 -3 9.5t-5 9.5q-6 10 -10 20t-10 21q2 6 -1.5 11t-5.5 11q-4 6 -6 11.5t-6 9.5q-10 27 -19.5 53t-23.5 51q-16 25 -25 55q-10 18 -16 36t-16 34l-6 12q2 8 -5 19l-28 67q-16 29 -25 58 q-16 35 -30.5 71.5t-28.5 73.5q-14 29 -24.5 56.5t-22.5 56.5q-18 49 -38 97t-38 95l-35 88q0 14 -3 27t-1 29z" />
<glyph unicode="]" horiz-adv-x="649" d="M559 1524h-37q-23 0 -32 3t-27 19l-4 6q-6 6 -4 15.5t10 13.5q4 0 6 1t6 1q10 0 12 -2q12 -4 20.5 -4t18.5 4q12 4 24.5 4t29.5 2q18 0 32.5 -6t30.5 -16q18 -16 23 -47q2 -23 -2 -41.5t-11 -38.5q-16 -59 -29.5 -120t-25.5 -122q-18 -90 -41.5 -175t-44.5 -173l-27 -117 q-4 -18 -9 -37.5t-11 -40.5l-7 -24.5t-5 -24.5q0 -10 -2 -17t-4 -12q-35 -117 -64 -239q-6 -23 -14.5 -47.5t-16.5 -46.5q-14 -55 -29.5 -111.5t-25.5 -116.5q-8 -35 -13 -68.5t-10 -68.5q-4 -27 -26 -18q-2 0 -3 1t-3 1q-10 6 -17.5 10t-13.5 12q-10 10 -18 11 q-23 0 -43.5 -4.5t-38.5 -10.5q-16 -6 -31.5 -12t-32.5 -17l-57 -22q-25 -6 -49 8q-2 0 -3 3t1 5q8 10 16 19.5t25 13.5q8 4 10 8q25 20 52.5 30.5t53.5 21.5q23 6 43.5 7t42.5 1q4 0 8.5 -1t6.5 -1q10 0 12 3t6 15l14 53q8 35 15.5 70t17.5 70q10 39 20.5 75.5t20.5 75.5 q14 53 27.5 107.5t29.5 107.5q8 25 15.5 48.5t13.5 49.5q10 35 18.5 70t16.5 72q8 41 18.5 79t20.5 74l12 54q2 16 6 29.5t9 29.5q2 14 6 29.5t8 29.5l24 107q4 16 7.5 32.5t5.5 32.5q4 33 12 65t18 64q6 31 13.5 60t13.5 57q0 10 2 15q0 12 -12 12z" />
<glyph unicode="^" horiz-adv-x="376" d="M317 1174q0 -16 -10 -23q-10 -4 -16 4l-4 4q-8 12 -15 29q-6 20 -12 40.5t-10 41.5l-6 51q-2 12 -3 24.5t-5 24.5v2q-2 2 -5 2q-4 0 -8 -4q-10 -10 -17 -20.5t-18 -22.5q-31 -47 -53 -90q-4 -10 -8 -18.5t-8 -16.5l-15 -35q-4 -6 -7 -14t-7 -14q-8 -10 -20.5 -12.5 t-22.5 8.5q-4 4 -4 8v4q8 16 14 31.5t17 31.5q14 25 22 47q16 29 33.5 55.5t38.5 55.5q4 8 12 15.5t15 13.5q6 6 12 8t12 6q25 12 45 -8l15 -12q4 -8 4 -17q2 -14 5 -28.5t3 -30.5q0 -6 2 -10q2 -6 2 -23q0 -4 1 -9t1 -9q0 -2 1 -3t1 -4q2 -18 6 -36.5t8 -34.5z" />
<glyph unicode="_" horiz-adv-x="573" d="M440 369q10 -2 22.5 -2h24.5q6 -2 12.5 -4.5t14.5 -6.5q12 -10 6 -28q-2 -6 -10 -9q-12 0 -18 3q-18 0 -35 1t-35 -4q-4 -2 -12.5 -1t-14.5 1h-11t-11 -2q-10 -2 -21.5 -2h-21.5q-12 -4 -26.5 -4t-24.5 -2q-25 -4 -40.5 -4t-37.5 -4q-14 -2 -34 -6t-34 -6q-18 0 -30.5 -1 t-19.5 2t-13.5 9t-12.5 20t6 19q8 2 13.5 3t9.5 1q20 4 38.5 5t37.5 5q10 2 16 2h12h28.5t27.5 4q12 2 20 0q12 2 21.5 4.5t21.5 2.5q4 -2 10.5 -1t12.5 1h27.5t27.5 2q12 2 26.5 1t26.5 1z" />
<glyph unicode="`" horiz-adv-x="329" d="M248 1184q-6 0 -8 2q-35 14 -56 26q-55 39 -100 88q-8 8 -14.5 15.5t-12.5 15.5q-6 14 0 25l17 16q18 14 28 -4q4 -2 5.5 -4t5.5 -6q16 -18 30.5 -38t30.5 -36t32.5 -31.5t35.5 -31.5q14 -10 16 -23q4 -10 -10 -14z" />
<glyph unicode="a" horiz-adv-x="692" d="M471 412q-18 0 -33 6q-16 8 -32.5 19.5t-26.5 27.5q-27 35 -39 80q0 6 -6 6l-35 -35q-31 -25 -60.5 -49.5t-60.5 -44.5q-20 -12 -39.5 -22.5t-42.5 -14.5q-23 -8 -51 -8q-37 -4 -53 37l-17 30q-12 25 -2 54q4 16 13.5 30.5t15.5 28.5l23 29q29 33 60.5 62.5t66.5 51.5 l34 21q29 16 62 16q18 0 26 -10q27 -25 35 -59q0 -4 -4 -13q-6 -4 -8 0l-14 13q-10 10 -19 4q-16 -4 -32.5 -7t-32.5 -14q-37 -18 -68 -49q-8 -4 -14 -12q-43 -33 -76 -90q-16 -18 -23 -47q-4 -8 5 -9q6 -2 12 -2h10q14 4 29.5 6.5t27.5 10.5q59 25 107 69l49 41q6 4 11 7.5 t10 7.5q16 18 31.5 34.5t31.5 38.5q10 14 25 7q8 -4 18 -9.5t14 -13.5q2 -8 3 -13t-1 -14q-2 -12 -3 -26.5t-1 -28.5q0 -35 15 -63q4 -4 9 -5.5t9 -5.5q29 -18 59.5 -17t61.5 13q16 6 28.5 9.5t28.5 13.5q27 20 45.5 30.5t40.5 36.5q6 6 22.5 25.5t20.5 28.5l6 4q0 2 9.5 2 t9.5 -2l8 -13q6 -14 -9.5 -37.5t-23.5 -33.5q-43 -61 -107.5 -96t-121.5 -37q-4 0 -18.5 -2t-18.5 2z" />
<glyph unicode="b" horiz-adv-x="559" d="M90 598q-4 -8 -4 -13t-4 -10l-6 -14q10 6 35.5 20.5t33.5 20.5v2q18 12 36 18.5t34 10.5q37 12 74 16q12 2 34.5 -2t41.5 -16q16 -4 29.5 -17.5l27.5 -27.5q4 -10 5 -20.5t5 -20.5q0 -16 -2 -28.5t-6 -29.5q-8 -18 -20.5 -33.5t-28.5 -31.5l-33 -33l-18.5 -18.5 t-18.5 -12.5q-16 -10 -30.5 -16t-28.5 -14q-23 -10 -45.5 -18.5t-50.5 -12.5q-31 -10 -54 -2q-37 6 -53 16q-8 0 -10 6q-2 0 -2 9v8h6q16 -4 33.5 -2t38.5 6l10 2q16 4 19 7t20 9q20 6 41.5 16.5t40.5 24.5l18 13q18 10 33.5 27.5t32.5 33.5q8 12 15 23.5t13 23.5 q4 10 6 19.5t0 19.5l2 18q-4 18 -20 25q-8 4 -15.5 3t-15.5 1q-29 -2 -51 -13t-51 -24q-31 -12 -51 -32l-23 -17q-23 -23 -46.5 -50.5t-39.5 -64.5l-16 -45q0 -2 -2 -4q-10 -23 -27 -8q-10 4 -23.5 13.5t-21.5 15.5q-6 6 -2 12l10 37q16 37 26.5 76t20.5 78l2 14h2l2 8 q2 8 2 15.5t5 13.5q8 8 9 17t3 18q4 14 8 31.5t8 29.5q2 10 10 18q4 8 9.5 14.5t5.5 22.5q4 12 7 23.5t9 19.5l6 17q2 16 6.5 31.5t16.5 31.5v4q10 14 14 35t19 41q6 18 12 36.5t12 35.5q4 4 4 6q-4 4 4.5 20.5t12.5 26.5q0 2 6 20.5t13 39t14.5 38t9.5 21.5q4 10 4 22.5 v22.5q6 23 2 39q4 29 37 20q4 -2 7 -3t11 -1q14 -6 17 -16q4 -6 6 -11.5t6 -9.5q0 -4 -1 -8t-1 -6q-4 -23 -9.5 -41t-15.5 -35l-14 -49l-8 -18q-2 -10 -1 -12.5t1 -3.5t-3 -6t-12 -21l-2 -13q-29 -66 -53.5 -131t-46.5 -133q-23 -47 -42.5 -99t-31.5 -104l-6 -12h2z" />
<glyph unicode="c" horiz-adv-x="598" d="M141 373q-10 4 -20 6t-21 2q-6 0 -11 1t-11 3q-25 8 -40 22.5t-30 36.5q-12 16 -16 33q-6 27 -2 47q4 18 11 36t17 34q10 14 21.5 27.5t26.5 25.5q6 4 14 10.5t12 16.5q20 20 42 36.5t46 26.5q12 4 29 8q12 0 23.5 -4t19.5 -18q8 -10 16 -20.5t15 -22.5q6 -10 2 -25 q-4 -14 -15 -16q-14 -4 -20 6l-17 23q-4 6 -10 6l-20 -4l-29 -17q-16 -12 -33.5 -26.5t-34.5 -30.5l-14 -18q-14 -14 -23.5 -31t-19.5 -35l-10 -39q-2 -8 7 -15t20 -12q8 -4 21 -8t24 -4q23 -2 35 -3t32 3q16 4 26.5 3t26.5 1q4 0 9.5 2t9.5 4q31 10 64.5 18.5t64.5 24.5 q2 0 4 3.5t6 3.5q10 2 28.5 12t26.5 16l72 39q8 4 14.5 11.5t16.5 11.5q20 16 33.5 22t35.5 27l17 14q2 2 4 2q4 0 4 2q6 4 12 2q12 -4 13 -26q0 -2 1 -6.5t-3 -6.5q-4 -12 -22.5 -27.5t-29.5 -21.5q-6 -6 -7 -8l-1 -2l-1 -1t-9 -7q-2 0 -3 -2t-3 -2q-33 -23 -72 -47.5 t-94 -44.5q-4 -2 -8 -5.5t-11 -7.5q-8 -4 -19 -7t-22 -7q-12 -6 -24 -11t-25 -7q-10 -2 -18 -6.5t-19 -8.5q-29 -10 -63 -10q-18 -4 -37 -5t-35 -3z" />
<glyph unicode="d" horiz-adv-x="661" d="M348 207q-2 4 -4 7t-2 9q4 12 -1 29.5t1 26.5q-2 10 -1 20t-1 20q2 4 0 9.5t2 9.5q0 2 1 3t1 3q-4 10 -1 23.5t3 23.5q4 12 6 23.5t4 23.5q0 8 4.5 26.5t8.5 41t9 46t7 42.5q2 4 -7 -11.5t-9 -19.5q-6 -4 -17.5 -21.5t-19.5 -21.5q-23 -29 -48.5 -51.5t-52.5 -48.5 q-18 -20 -36.5 -34.5t-36.5 -31.5l-11 -8q-37 -29 -77 -35q-25 -6 -56 -2q-18 4 -29.5 9.5t-19.5 21.5q-20 16 -22 39q-2 4 -2 10l4 47q0 8 4 13q8 8 8 28q0 2 2 4t4 6q6 10 10 24.5t9 25.5q10 14 17 26t17 25q8 12 18.5 24.5t16.5 22.5q4 4 9.5 10t9.5 14l4 3 q14 14 27.5 28.5t29.5 22.5q8 4 14.5 6t12.5 4q2 4 10 4h27q10 0 22 -6t23 -10q16 -10 25 -27.5t14 -36.5l10 -24q4 -4 -2 -9.5t-13 -7.5q-8 -4 -16 -4q-16 0 -22 6q-4 10 -6.5 13.5t-2.5 9.5q-4 10 -8 21.5t-14 19.5q-2 6 0 6t-2 4q-8 6 -19.5 1t-15.5 -9l-25 -25 q-23 -29 -45 -58.5t-43 -60.5q-10 -23 -20 -50t-17 -54q0 -8 -2 -16.5t-2 -18.5q-4 -10 0 -19.5t9 -17.5q4 -6 8 -4t10 2h6q18 4 27.5 11.5t25.5 15.5q68 49 121 104q10 10 19.5 22.5t21.5 24.5q10 6 20.5 18.5t20.5 26.5q4 6 10 11.5t13 11.5q4 8 15 21.5t15 25.5 q4 4 8.5 7t6.5 10q6 10 10 18t10 16q12 23 19 47q8 37 18 74t23 76l12 41q4 12 9 27.5t11 31.5q0 4 4 13q6 37 19.5 71.5t30.5 63.5q10 23 18 42t14 42q6 6 6 14q18 27 25 49q16 29 33.5 56.5t36.5 56.5q8 12 24 22q0 2 4 2q16 -2 29.5 -3t30.5 -5q4 -2 10 -3t8 -3 q35 -27 29 -68q-4 -29 -10.5 -60.5t-18.5 -59.5q-2 -4 -2 -13q-8 -23 -17 -43t-20 -41q-10 -20 -20 -38.5t-21 -36.5q-12 -25 -23 -45.5t-26 -42.5q-20 -37 -41.5 -75t-50.5 -75q-14 -23 -31.5 -46.5t-36.5 -49.5q-6 -12 -13 -22.5t-7 -22.5l-21 -92q-14 -51 -23 -126 t-15 -163q-2 -4 0 -8t2 -9q2 -23 4 -36t4 -25q2 -10 3 -18.5t9 -18.5q10 -16 12 -21t21 -16q12 -4 11 -2t9 -2q8 -4 3 -13t-11 -13q-10 -2 -7 -1t-3 -2q-23 -6 -41 0.5t-31 18.5q-8 10 -17 18.5t-14 16.5q6 6 0 6q-10 14 -10 31q0 2 -2 4t-2 6zM489 821q16 27 32 49.5 t32 47.5q4 8 9 15t11 13q4 10 6.5 17.5t6.5 15.5q10 18 16 28.5t16 20.5q4 4 4.5 8t0.5 6q20 39 38.5 79t38.5 85q6 27 12.5 53.5t16.5 55.5q4 23 -2 35q0 2 -2 2h-6q-6 -4 -14 -23q-12 -18 -23.5 -39.5t-22.5 -40.5q-29 -55 -53 -104t-45 -109q-10 -14 -14 -24.5t-6 -22.5 q-14 -37 -28.5 -76t-23.5 -73q-8 -6 -4 -21h2z" />
<glyph unicode="e" horiz-adv-x="567" d="M96 342q-23 4 -46 7t-40 18q-23 23 -42 49t-15 59q0 4 1 17.5t5 17.5l4 12q10 25 14.5 33t18.5 31q35 53 90 98q16 14 36.5 27.5t45.5 25.5q6 0 16 6q16 6 34 -2t28 -18l8 -21q6 -49 -25 -79q-23 -27 -48 -51.5t-54 -47.5q-4 -4 -11 -8t-12 -8q-6 -6 -15 -7t-19 -3 q-16 -10 -29 6l-8 6h-4q-2 0 -2 -2q-10 -14 -11.5 -32.5t-1.5 -33.5q2 -10 15 -22q8 -10 19 -14.5t22 -4.5q8 -2 22 -2q16 2 35.5 2t40.5 9q76 18 137.5 44.5t124.5 55.5q33 16 60.5 31.5t56.5 29.5q18 10 22 13.5t25 17.5q10 10 11 9t18 5q4 4 3 1t1 -9q2 -8 5 -19t-5 -18 q-14 -14 -12.5 -15t-12.5 -13q-31 -23 -61.5 -39.5t-63.5 -36.5q-23 -10 -42 -20.5t-38 -18.5q-41 -16 -83 -33.5t-87 -27.5l-59 -17q-23 -6 -35 -7t-37 -1zM70 561q35 20 65.5 49t59.5 64q-2 0 -4.5 -1t-4.5 -1q-39 -16 -66.5 -39t-43.5 -58q-2 0 -6 -14z" />
<glyph unicode="f" horiz-adv-x="389" d="M401 811q2 -4 4.5 -11t1.5 -14.5t-5.5 -11.5t-14.5 -2q-2 0 -6 1t-4 -3q-12 -4 -38 -4t-36 -2q-29 -4 -69.5 -11.5t-77.5 -17.5q-10 -2 -16.5 -9t-12.5 -15l-4 -15q-14 -39 -26.5 -77.5t-22.5 -77.5q-10 -43 -20.5 -85t-20.5 -85q-2 -10 -2 -18.5t-4 -18.5 q-4 -16 -7.5 -33.5t-9.5 -34.5q0 -16 -3 -31.5t-5 -31.5v-17q4 -12 -2 -20q-4 -16 -3 -34.5t1 -37.5l2 -14q2 -16 5 -32.5t11 -33.5q2 0 2 -2q2 -4 0 -8t-6 -4q-6 -2 -22 -2q-18 0 -31 14l-18 37l-4 12q2 16 -5 35q2 16 2 31.5v32.5l13 102q-4 14 4 25q0 14 5 26.5t1 28.5 q0 4 3 6t1 6l25 97q0 23 10 49v18t2 19q2 10 6 16l8 12q4 16 9.5 36t9.5 38q2 10 4 19.5t10 19.5v2q4 4 5 14.5t-1 10.5h-8t-8 -3q-25 -4 -50.5 -10t-43.5 -12q-10 -4 -13.5 -3t-6.5 2t-7 1t-12 -6l-25 -8q-14 -4 -18 2q-6 6 -3 11t-1 15q-4 20 6 27q2 0 2 1t2 1q23 6 33 6 t32 10q14 2 14.5 3t16.5 6q14 4 35.5 10t42.5 8q8 8 14 8h15q4 4 10 8t6 13l4 4q2 10 4 21t12 22q4 10 7.5 20t5.5 23q4 4 4 7t2 7q4 6 9 15.5t9 19.5l17 35q4 14 10 27.5t10 25.5q10 23 20.5 46.5t24.5 47.5q8 16 16.5 32.5t16.5 35.5q12 23 25.5 46t29.5 44l13 24 q12 18 25 34t30 32l22 14q8 6 19.5 10.5t27.5 0.5h3q41 -8 65.5 -30t40.5 -56q12 -25 12 -48q6 -16 -6 -30t-29 -11q-16 10 -26 19.5t-10 30.5q-2 20 -21 45q-4 8 -14 12q-20 0 -37 -16q-20 -14 -33 -37q-63 -82 -98 -162q-14 -29 -29.5 -57.5t-27.5 -59.5 q-4 -14 -10.5 -30.5t-14.5 -30.5q-8 -16 -16.5 -36t-14.5 -38l-12 -39q-2 -4 -8 -9t-2 -7l116 20h46t47 -2q10 0 18 -2z" />
<glyph unicode="g" horiz-adv-x="673" d="M-369 -428q-4 27 1.5 50.5t13.5 45.5q10 35 24.5 67t30.5 64q20 33 40.5 62.5t43.5 60.5q10 14 20.5 26.5t22.5 24.5q4 6 10 10.5t10 10.5l17 22q4 2 5 5.5t5 5.5q16 12 28.5 27.5t26.5 29.5q14 12 27.5 26.5t26.5 28.5l18 15q10 10 22.5 19t22.5 22q2 4 10 8 q16 12 25 20q10 16 31 27q23 12 37 31l8 4l108 80q16 8 30.5 18t31.5 20q8 8 8 17q0 10 4 26q2 10 7 29l10 38t9.5 36.5t4.5 28.5q2 8 0 20q0 2 -1 9t-1 5q-20 -10 -41 -30q-8 -10 -16.5 -16.5t-18.5 -14.5l-35 -31q-6 -4 -10 -10t-10 -12l-43 -41q-18 -12 -34 -25.5 t-32 -23.5t-32.5 -19.5t-33.5 -17.5q-10 -6 -22 -6t-25 -5q-8 4 -16 5.5t-14 7.5l-21 24q-23 29 -12 58q6 27 20 55l37 53q6 8 15.5 16.5t13.5 16.5q2 6 8 8l45.5 45.5t48.5 40.5l66 41l53 21q27 8 55 -11q10 -6 15.5 -13t11.5 -15q4 -4 5 -7.5t3 -7.5q4 -4 5 -9t5 -9 t8.5 -7t8.5 -5q10 -6 22.5 -12.5t20.5 -14.5q14 -16 16 -35q0 -23 -2 -33q-2 -8 -6 -23t-8 -33.5t-7 -35t-3 -24.5v-4l8 4q20 10 38.5 20t37.5 19q12 8 26.5 13t26.5 11q27 12 40 16.5t42 14.5q6 2 7 2h1h1t9 2q16 4 30.5 11t31.5 7q8 -2 11 -8t11 -10l-2 -16q0 -6 -2 -7 q-4 -4 -16 -8q-20 -4 -57.5 -19.5t-55.5 -23.5q-10 -4 -14 -5t-6.5 -3t-5.5 -3t-13 -5l-18 -10q-37 -18 -74 -38t-72 -42q-8 -6 -12 -23q-4 -16 -7 -28.5t-5 -28.5q-2 -10 -4 -20.5t-5 -22.5l-20 -82l-8 -37q-2 -10 -5 -18.5t-5 -18.5q-6 -29 -19 -55q-6 -12 -11 -23.5 t-5 -27.5q0 -4 -4 -13q-16 -33 -27.5 -65.5t-28.5 -63.5l-4 -6q-6 -20 -14 -37.5t-21 -33.5q-10 -25 -23 -46.5t-28 -43.5q-10 -16 -19 -32t-24 -30q-4 0 -4 -4q-23 -35 -52.5 -61.5t-62.5 -53.5q-16 -16 -34.5 -27.5t-40.5 -21.5l-41 -18q-10 -6 -23.5 -11.5t-27.5 -5.5h-3 q-16 -6 -32.5 -5t-32.5 5q-51 12 -90 60l-8 16q-8 20 -12.5 40t-0.5 40zM-236 -528q10 0 34 3t34 7l10 6q16 10 34 19.5t32 19.5q8 2 22 12q2 2 5.5 3t7.5 5l45 41q12 10 20 20.5t19 22.5q10 14 19 26.5t20 23.5q18 23 34 53q8 18 23 35q6 14 12 30.5t17 32.5q4 4 4 6t2 6 t3 10.5t5 12.5q10 18 18.5 39.5t18.5 44.5q4 12 8 25.5t10 23.5t8 21.5t9 23.5l8 31l8 35q8 18 12 37.5t10 37.5q4 12 5 21l8 47l10 43v8l-4 4q-2 -2 -4 -2t-2 -2l-47 -33q-27 -18 -54.5 -38.5t-54.5 -45.5l-39 -32q-23 -18 -43 -36t-41 -38l-39 -41l-41 -37l-36 -41 q-16 -23 -35 -43t-35 -43q-14 -23 -29.5 -45t-27.5 -45q-20 -27 -33 -54.5t-27 -58.5l-4 -12q-4 -14 -6 -28.5t-4 -26.5q-6 -25 -2 -56q2 -4 2 -14q-6 -10 4 -20q6 -10 14 -19.5t19 -19.5q4 -2 9 -4t11 -2h14zM272 668q-12 2 -20 0t-19 -6l-22 -11q-6 0 -6 -2 q-23 -14 -47.5 -30.5t-40.5 -38.5l-45 -39q-12 -16 -20.5 -29.5t-18.5 -28.5l-13 -22q-6 -8 -2 -23q0 -4 5 -4q18 0 26 6q33 12 57 31q10 6 18.5 13.5t18.5 15.5q10 6 15 10q12 8 18 15t17 18q12 8 23 17t24 20q8 10 15 18t17 14q8 4 14.5 13.5t12.5 15.5q6 0 0 6 q-4 8 -16 17l-9 4h-2z" />
<glyph unicode="h" horiz-adv-x="751" d="M340 1446q0 -33 -2 -43q-4 -20 -7 -43t-12 -43l-38 -129q-10 -37 -21.5 -74t-23.5 -74l-37 -108q-6 -23 -12.5 -41.5t-14.5 -40.5q-18 -45 -34.5 -88t-37.5 -86q-10 -27 -19 -53.5t-18 -55.5q-2 -12 -6 -22t-4 -21q0 -2 2 -4h2l13 12q10 14 21 28.5t24 27.5l32.5 32.5 t32.5 30.5q10 10 19.5 15.5t19.5 13.5q47 20 88 -6q10 -6 17.5 -13.5l15.5 -15.5q16 -14 22 -33q6 -16 7.5 -31.5t5.5 -31.5q4 -29 15 -50.5t28 -43.5q23 -23 45 -25q53 2 86 12.5t74 32.5q39 23 60.5 36t53.5 42q10 4 14.5 13t14.5 14q8 6 13 12t12 14q4 6 16 7t16 -5 t8.5 -4t8.5 -8q4 -4 0 -12l-15 -23q-14 -16 -23 -26.5t-19.5 -19.5t-21.5 -18.5t-30 -21.5q-14 -10 -26.5 -19.5t-26.5 -17.5q-23 -12 -40 -22t-40 -17q-51 -14 -97 -14t-91 23q-4 2 -7.5 5t-7.5 5q-35 23 -52 51.5t-26 67.5q-4 16 -8 30.5t-8 30.5q-2 8 -5 15.5t-7 13.5 q-6 10 -17 4l-12 -6q-18 -16 -35.5 -28.5t-29.5 -29.5q-12 -16 -25.5 -29.5t-24.5 -27.5q-18 -25 -34.5 -48.5t-32.5 -49.5q-4 -10 -11.5 -19.5t-13.5 -19.5q-4 -6 -9 -9.5t-9 -7.5q-8 -8 -17 -4q-10 4 -19 6t-17 11l-13 8q-23 14 -18 43q0 6 2 13t4 13q4 25 9 50.5t16 50.5 q8 29 16 55.5t20 50.5q23 59 44.5 117.5t43.5 118.5q10 23 18.5 48.5t16.5 47.5q10 29 17.5 55.5t17.5 53.5q10 35 20.5 71.5t20.5 71.5q8 31 17.5 61.5t19.5 61.5q2 20 6 39.5t4 42.5q-2 16 1 30.5t5 30.5q4 8 13 8q14 0 18 -4l16 -14q14 -10 20.5 -23.5t2.5 -23.5z" />
<glyph unicode="i" horiz-adv-x="503" d="M143 360q-10 0 -22 4.5t-29 8.5q-31 16 -45 29.5t-24 48.5q-16 37 -9 75l19 66q10 18 20 38.5t17 39.5q2 0 0 2t0 4q2 4 8 6t10 0q8 -4 14.5 -7t12.5 -7q2 -2 2 -3t4 -3q12 -12 13 -22.5t-9 -27.5l-35 -80q-6 -18 -11 -36.5t-1 -36.5q2 -35 35.5 -40t62.5 -1t63.5 15 t68.5 26.5t63.5 33t50.5 33.5q12 10 14 12.5t4 2.5t6.5 3t20.5 15q6 6 18.5 15.5t18.5 15.5q8 4 19.5 13t22.5 17.5t20 10.5t16 -6q4 -8 -2.5 -19.5t0.5 -21.5l-5 -13q-4 -10 -10 -12t-16 -4q-14 -12 -26.5 -22.5t-24.5 -24.5q-20 -16 -32.5 -24.5t-22 -15.5t-19.5 -13 t-25 -17q0 -2 -10 -4t-12 -4q-14 -16 -32.5 -22.5t-49.5 -20.5q-31 -8 -71 -20.5t-81 -6.5zM162 825q-8 4 -10 4q-4 2 -6.5 4.5l-6.5 6.5q-10 16 -6 37q4 16 8 32.5t17 32.5q0 10 4 6q12 6 20 6q18 -6 35 -22q10 -6 9 -13.5t-3 -17.5q0 -4 -2 -7t-4 -7q-14 -16 -24 -39 q6 -4 -3 -6q-10 -17 -28 -17z" />
<glyph unicode="j" horiz-adv-x="415" d="M-41 414q8 4 16 16l5 12q4 27 9 54.5t5 56.5v25q2 16 4 31.5t0 31.5v6q4 20 3 40t-3 40q0 10 12 10q8 0 25 -6l12 -6q27 -14 27 -43q0 -4 1 -7t1 -7q-4 -29 -4 -58.5t-9 -60.5l-10 -82q0 -2 4 -3t6 1q4 2 8.5 4t8.5 6q23 16 45 25.5t47 23.5q23 12 52.5 26.5t60 27 t61.5 21.5t53 13q10 2 25.5 -4t15.5 -22q0 -4 -2 -8.5t-8 -4.5q-12 -4 -16 -6t-19 -6q-12 -4 -26 -10q-10 0 -16.5 -3t-14.5 -7q-18 -6 -26.5 -9.5t-14.5 -6.5t-13.5 -6t-21.5 -9q-14 -4 -26 -14q-33 -16 -65 -35t-69 -35q-10 -6 -12 -8q-16 -12 -26.5 -16.5t-15.5 -9.5 t-8 -15t-5 -31q-4 -14 -5 -28.5t-5 -26.5q-4 -20 -9 -33q-4 -4 -4 -11t-2 -14l-6 -36q-2 -10 -4 -22.5t-8 -22.5q-4 -18 -10.5 -36t-10.5 -38q-2 -10 -7 -22.5t-7 -24.5q-8 -8 -10 -19.5t-6 -21.5l-56 -129q-4 -16 -14 -27q-12 -23 -24.5 -45t-26.5 -45q-10 -18 -21 -33 q-4 -10 -9 -16t-9 -12q-4 -16 -12.5 -26.5t-18.5 -23.5l-10 -14q-4 -4 -6 -7t-4 -7q-16 -23 -34 -39.5t-36 -36.5q-23 -23 -46.5 -38t-49.5 -28q-37 -14 -68 -10q-6 0 -12 1t-10 1q-27 4 -46.5 16.5t-35.5 28.5q-10 16 -19.5 31.5t-9.5 38.5l-2 2q-10 33 -8 64.5t8 64.5 q6 35 16 63q6 16 12.5 32t14.5 36.5t22.5 46t36.5 62.5q4 4 7.5 8t5.5 10q4 12 10 21q10 29 33.5 53t36.5 43q8 14 22 24q8 8 15.5 16.5t15.5 18.5q8 12 16 22.5t25 18.5v2q0 2 1 2t1 2q2 2 2 4t4 4q4 4 10 8.5t15 10.5q8 4 22 18q27 27 63.5 54.5t74.5 53t70 46.5t46 33z M-39 326q0 10 -6 12q-2 2 -5 1t-5 -1q-8 -4 -21 -16q-23 -12 -42 -29t-42 -27q-4 -2 -12 -10q-33 -33 -66 -59q-16 -10 -28.5 -23.5t-26.5 -23.5q-14 -14 -28.5 -26.5t-24.5 -27.5q-23 -25 -42.5 -48t-35.5 -50l-27 -37q-31 -41 -54 -85t-42 -89q-4 -10 -8 -21.5t-8 -21.5 l-12 -51q-6 -18 -7 -39q0 -18 -1 -39t1 -41q2 -4 2 -9t5 -9q2 -16 10 -31l14 -21q6 -6 21 -10q16 0 22 2l33 8l6 3t6 6q10 8 23.5 14t23.5 16q53 51 92 107q10 12 18.5 23.5t16.5 21.5l35 53q4 4 5 7t3 7q14 23 26.5 45.5t26.5 45.5q12 25 23.5 50t24.5 48v4q4 14 10 27.5 t12 25.5q4 14 8 27.5t9 27.5q14 39 21 59.5t11 51.5l6 25l11 39l6 28q8 14 12 41v19zM39 885q-16 0 -31 10q-16 10 -10 27q4 6 4 13t4 15q2 6 5 11.5t5 11.5q4 4 13 0q10 -4 19 -12.5t20 -18.5q14 -12 6 -29l-6 -16q-13 -14 -29 -12z" />
<glyph unicode="k" horiz-adv-x="634" d="M231 463q16 2 35 4t35 6q12 4 25.5 6t27.5 6q25 4 45 13q41 14 82 28.5t80 32.5l23 12q-2 0 3 2t11 5.5t11 6.5l5 3q10 0 20.5 7t20.5 9q6 2 13.5 -5t5.5 -11q-2 -10 -2 -16.5t-6 -12.5q-2 -4 -6.5 -8t-8.5 -6q-12 -8 -25.5 -14.5t-25.5 -12.5q-16 -10 -26.5 -15 t-20.5 -9.5t-20.5 -8.5t-26.5 -12t-25 -10q-23 -8 -43 -14.5t-43 -12.5q-10 -4 -18 -4t-19 -4q-14 -4 -27.5 -5t-29.5 -5q-10 -2 -22.5 -4t-22.5 -2q-10 -2 -22.5 -1t-22.5 1t-19.5 1t-19.5 1q-59 6 -109 37q-4 4 -12 8l-4 -2q0 -2 -2 -2q-10 -27 -17.5 -51.5t-13.5 -51.5 l-32 -110q-4 -14 -8.5 -27.5t-8.5 -26.5l-6 -22q-4 -4 -6 -4q-10 4 -22.5 7t-20.5 9t-8 17q2 10 3 18t5 18q6 25 12 49.5t15 49.5l18 63q6 25 14 50.5t17 50.5q4 10 6 18t2 18q0 33 14 60l15 33q4 12 9 24t9 27q6 18 16 41q6 14 10.5 27.5t8.5 27.5q6 27 14 52.5t19 51.5 l10 31l6 23q4 12 12 22.5t6 24.5l15 49l35 104q6 18 11 38t9 38v4q12 35 17.5 70t11.5 70l6 57q0 12 2 23.5t4 21.5q0 4 4 8t10 4q10 -4 21.5 -7t21.5 -9q16 -14 15 -29l-9 -45q-2 -14 -4 -27.5t-2 -29.5q0 -10 -2 -17q-10 -47 -21.5 -94t-27.5 -94q-4 -12 -7 -24.5 t-7 -24.5q-6 -12 -10.5 -25.5l-8.5 -25.5t-8 -24.5t-8 -24.5q-10 -35 -22.5 -69t-24.5 -69l-14 -49q0 -2 1 -3t1 -3l4 2l28 21l68 47q18 12 37.5 22t38.5 27l8 4q39 20 72 -4q2 -2 4 -3t4 -5q18 -16 -4 -27q-16 -6 -30.5 -14.5t-29.5 -18.5l-30 -18q-20 -10 -38 -22.5 t-36 -24.5q-16 -10 -29.5 -21.5t-30.5 -23.5q-45 -41 -84 -95q-12 -16 -14 -24q-6 -16 -11 -32.5t-11 -33.5q-4 -14 2 -28q8 -20 30 -27q8 -2 16.5 -4t16.5 -2q25 0 49 -2t49 2z" />
<glyph unicode="l" horiz-adv-x="294" d="M-31 270q-4 12 2 19q4 10 4 21.5v23.5q-2 14 3.5 29.5t7.5 31.5q0 14 4 26.5t8 29.5l6 47q8 20 11 39.5t12 42.5v4q4 10 17 51t28.5 87t29 83t15.5 39q8 23 13 42t15 42q2 10 8.5 22.5t10.5 24.5q12 23 18 43t17 41q4 2 4 4q12 35 23.5 67.5t27.5 65.5q12 29 23.5 56.5 t19.5 60.5l4 18q0 6 2 11.5t0 13.5q0 10 21 16q16 2 30.5 -4t26.5 -12q4 -4 6 -9.5t-2 -11.5q-12 -41 -27.5 -78.5t-31.5 -80.5l-47 -113q-2 -4 -2.5 -7t-4.5 -7q-8 -20 -14 -38t-16 -36q-14 -29 -22.5 -58.5t-24.5 -58.5q-4 -14 -10.5 -27.5t-10.5 -29.5q-4 -10 -13 -36 t-19.5 -58.5t-20.5 -65.5t-17 -55q-4 -14 -9 -30.5t-7 -31.5q-4 -18 -7 -34.5t-11 -32.5q-8 -35 -14.5 -62.5t-4.5 -52.5q0 -18 -4 -36.5t-2 -39.5q2 -6 0 -10t-4 -10q-4 -16 -1 -36t9 -38l4 -4q0 -4 2 -6t4 0q10 6 17.5 0t6.5 -15.5t-10.5 -17.5t-31.5 -8q-25 0 -43 18 q-14 10 -18.5 23.5t-8.5 30.5q4 20 1 39.5t-3 37.5z" />
<glyph unicode="m" horiz-adv-x="933" d="M139 674q12 16 29.5 28.5t34.5 26.5q8 6 20 6q2 -2 13 -2q12 -4 22 -8t16 -8q20 -8 21 -29q14 -25 4 -51q-4 -16 -5 -30.5t-5 -28.5l-17 -58l-6 -35h2q4 0 8 2q8 6 13.5 10.5t13.5 8.5q14 8 28.5 25.5t37.5 39.5l22 23l23 27q2 2 8 9t12 15t11.5 15.5t7.5 9.5q4 6 10 11 t10 13q18 20 47 35q23 10 43 6q10 -4 20.5 -7t20.5 -7q14 -4 23.5 -12.5t11.5 -24.5q4 -12 9 -33.5t5 -38.5q2 -18 6.5 -33.5t6.5 -31.5q10 -35 32 -55q6 -14 27 -19q12 0 25.5 1t23.5 5q18 4 23.5 6t21.5 7q10 4 22.5 12t22.5 14q10 8 18.5 14.5t16.5 14.5l14 8q10 8 11 8 l10 10q6 2 11 9.5t18 17.5q2 2 9 7t15 9.5t17.5 3t15.5 -13.5v-8q-10 -10 -13 -16.5t-6.5 -11.5t-8.5 -10t-15 -13q-12 -12 -20.5 -19.5t-14.5 -13.5t-15 -12t-24 -17q-18 -12 -37.5 -20t-36.5 -16q-23 -10 -44 -15.5t-50 -3.5q-35 6 -60.5 19.5t-41.5 46.5q-12 23 -20.5 38 t-10.5 37l-14 74l-8 29q0 8 -6.5 7t-15.5 -4t-17.5 -8t-10.5 -7q-8 -8 -15 -15.5t-17 -17.5q-10 -6 -16.5 -13.5t-12.5 -15.5q-4 -4 -13.5 -14.5t-19.5 -22.5t-18 -23.5t-12 -17.5q-20 -18 -31 -33q-25 -27 -47 -47q-14 -16 -41 -26q-6 -2 -23 -2l-31 14q-18 12 -26 33 q-4 12 -4 16q0 14 4 31l14 65q4 23 8 43.5t4 45.5l-2 4v2q-8 0 -10 -2q-4 -4 -9 -9.5t-9 -9.5q-31 -33 -59.5 -66.5t-57.5 -70.5q-20 -29 -34.5 -56.5t-31.5 -58.5q0 -4 -4 -12q-4 -6 -14 -6q-12 2 -23.5 8t-21.5 12q-14 14 -8 29l8 20q10 18 19.5 39t15.5 39q14 51 31 88 q2 4 2 13q8 37 24 67q6 23 8 50.5t6 50.5q4 27 9 34q0 12 10 9q10 -2 22.5 -9.5t20.5 -15.5q2 -2 5 -6t3 -8v-18.5t-4 -20.5q-2 -20 -3 -44t-11 -40q-4 -4 -4 -10.5t-2 -12.5v-4q2 2 5 1t5 -1z" />
<glyph unicode="n" horiz-adv-x="700" d="M532 420q16 10 27.5 15t28.5 18q49 33 92 71q8 10 15 13.5t16 13.5l16 18q4 8 6 8.5t8 12.5v4q0 2 9 2q4 4 11 2t11 -7t6 -11.5t-2 -12.5q-2 -12 -2 -10t-8 -8q-4 -10 -7 -13.5t-14 -17.5l-39 -39t-42 -39q-10 -10 -23.5 -18t-26.5 -19q-18 -12 -38.5 -22t-43.5 -14 q-12 -4 -24 -4.5t-23 -2.5q-33 -2 -69.5 12.5t-57.5 30.5q-18 20 -34.5 40t-28.5 44q-10 14 -16.5 39t-9.5 52.5t-5 55.5t-2 46q2 2 0 4t-4 0q-12 -4 -21.5 -11t-17.5 -14q-29 -23 -54.5 -47t-47.5 -55q-18 -18 -33 -39q-4 -6 -9 -17.5t-10.5 -24.5t-10.5 -26.5t-11 -19.5 q-4 -6 -10 -11t-13 -11q-4 -6 -18 -7q-8 0 -4 2.5t0 6.5l-27 18q-10 12 -2 25q0 12 4 16q8 14 14.5 35.5t11.5 45t11 45t15 38.5l8 22q2 4 5 15.5t6 24t6 22.5t5 16q-2 12 17 17q29 4 47 -13q2 -2 1 -11t-3 -20.5t-3 -20.5t1 -11q4 -6 8 -2q14 12 30.5 28.5t30.5 26.5 q16 10 32.5 13t33.5 5h10q29 -6 53 -26q8 -4 13 -21q4 -14 6 -26.5t0 -24.5q0 -12 -2 -21.5t0 -25.5v-14q-2 -23 5 -41.5t11 -38.5q4 -8 8 -17.5t11 -13.5q8 -12 14 -21.5t16 -17.5q29 -29 68.5 -28.5t68.5 12.5z" />
<glyph unicode="o" horiz-adv-x="565" d="M307 666q4 -29 0 -42.5t-10 -29.5q-8 -23 -11 -34t-14 -34q0 -2 -2 -6t0 -6q45 6 79 12t62.5 13.5t54.5 17.5t56 25q14 8 19.5 11t9.5 7l11 11t28 24q2 0 3 2t3 2q4 4 15.5 6t17.5 -2q2 -4 0 -4t2 -2q0 -2 7 -2t5 -2q-6 -31 -33 -41q-12 -10 -17 -12t-20 -11 q-27 -18 -38 -25t-18 -11.5t-17.5 -8.5t-34.5 -14q-31 -14 -88.5 -28.5t-104.5 -14.5h-9t-9 -2q-8 -2 -9 -6t-3 -13q-10 -16 -21.5 -24t-21.5 -25l-17 -18q-16 -18 -38.5 -28.5t-45.5 -10.5q-10 -2 -26.5 1t-20.5 7q-23 12 -35 35t-12 45q-6 61 19 111q4 16 9 29.5t11 29.5 q4 8 5 13t5 10q12 14 19 34q14 27 27.5 36t33.5 32l21 14q29 16 49 19q16 2 30.5 2t20.5 -2q10 -2 20.5 -8.5t14.5 -16.5q10 -10 13 -22.5t5 -22.5q2 -8 0 -20zM248 678q6 16 -14.5 22.5t-28.5 -2.5q-8 -6 -19 -8q-25 -18 -40 -40.5t-25 -45.5q-10 -16 -10 -37 q-4 -18 18 -28q0 -2 5 -5.5t7 -7.5q6 -4 25.5 -11t23.5 -3q16 20 28.5 55t25.5 60q8 24 4 51zM66 406q-4 -47 47 -9q16 16 30.5 28.5t24.5 39.5l2 2t3 5t0 5t-9 0q-10 4 -35 15.5t-37 29.5q-2 4 -6 -3t-6 -13q-12 -23 -13 -47.5t-1 -46.5v-6z" />
<glyph unicode="p" horiz-adv-x="528" d="M88 690q2 -14 1 -28.5t-3 -28.5q-4 -10 -4 -19.5t-2 -19.5l2 -2q2 0 0 -3t0 -3l37 28l22 27l6 6q14 18 25.5 29.5t34.5 25.5l18 17q10 4 19.5 9t17.5 11q12 4 23 4l14 5q12 2 25 -3l14 -2l12 -6l15 -6q16 -6 26 -19.5t19 -27.5v-6q8 -10 9 -25.5t-3 -25.5q0 -10 -1 -19.5 t-5 -21.5q-10 -25 -21.5 -48.5t-32.5 -48.5q-14 -16 -28.5 -29.5t-32.5 -29.5q-10 -6 -21.5 -10t-21.5 -10q-10 -4 -19.5 -5.5t-17.5 -3.5q-8 -4 -26.5 -1t-28.5 8q-12 2 -16.5 9t-2.5 13t9.5 9t15.5 -3q4 4 2 3t2 3q23 8 41 17.5t31 25.5q2 -2 8 4q6 8 8 8.5t14 16.5 q10 12 19.5 24.5t19.5 24.5q8 16 14.5 34.5t8.5 37.5q8 20 -2 57l2 4q0 10 -8 11l-17 2q-10 -2 -7 -1t-7 -6q-16 -8 -29.5 -18t-27.5 -18q-6 -8 -14.5 -14.5t-14.5 -14.5l-43 -41q-8 -14 -23 -25q-10 -23 -26 -39q-4 -12 -22.5 -38.5t-26.5 -38.5q-4 -10 -9.5 -20.5 t-9.5 -22.5t-9 -33t-12.5 -42.5t-14.5 -43t-11 -35.5q-8 -35 -17.5 -67.5t-21.5 -67.5q-10 -43 -24.5 -86t-28.5 -86l-16 -37q-8 -27 -16.5 -51.5t-18.5 -46.5l-15 -33q-12 -8 -18 -4q-8 4 -18.5 10t-18.5 12q-10 8 -6 19v8q-2 10 1 19.5t5 19.5q2 12 3 22.5t5 20.5 q2 10 2 18.5t4 18.5q10 31 18.5 62.5t22.5 60.5q4 10 2 16q4 16 10.5 30.5t10.5 28.5v5q4 8 10 13t6 17q0 6 2 13.5t4 15.5q4 12 11 22q14 25 24 60q4 14 9.5 25.5t9.5 21.5l10 12q4 16 16.5 45t18.5 43q6 10 8 18.5t6 18.5q2 6 4 13.5t4 17.5l6 35l4 39q4 29 6.5 53t4.5 51 v61l6 17q0 4 8 4q4 -2 6 -2t4 -2q8 0 13 -4q16 -14 19 -18.5t3 -30.5z" />
<glyph unicode="q" horiz-adv-x="593" d="M164 -211q2 10 0 22.5t2 22.5t3 21.5t3 21.5q4 6 1 11.5t-1 9.5q-2 10 1 20t3 21q2 10 1 7t3 5q2 4 2 10q-4 8 -2 14.5t4 12.5q4 12 6.5 16t3.5 6t1 4v11q-2 6 2 18q4 10 2 7t2 9q-2 6 0 12.5t4 10.5q6 10 7 31.5t7 25.5q0 8 6 19q14 12 15 35q0 4 -2 5t0 5q8 8 7 17 t5 18q6 6 10 16q-2 16 8 37v8q6 14 12.5 28.5t8.5 30.5q10 25 18 49.5t17 49.5l22 71v4q-4 0 -8 -2q-12 -6 -23 -16q-35 -29 -73.5 -55.5t-79.5 -50.5q-14 -8 -27.5 -15.5t-30.5 -13.5q-10 -4 -22 -8t-25 -4q-20 -6 -49 2q-49 12 -74 49q-14 18 -8 45q8 23 15.5 42t21.5 36 q14 18 27.5 33.5t29.5 33.5q8 8 25.5 21.5t36 28t37 25.5t28.5 17q10 4 18.5 10.5t18.5 14.5l29 14q27 12 49 -2q14 -8 23.5 -15t19.5 -17t7 -18.5t-21 -4.5q-10 2 -15.5 2t-21.5 -4q-10 -6 -25 -10q-23 -12 -43 -22.5t-36 -26.5q-27 -16 -47.5 -37t-45.5 -39 q-4 0 -19 -18.5t-20 -22.5q-16 -27 -23 -41t-7 -35q2 -14 18 -12q33 0 70 20q23 10 46 23.5t46 29.5q41 29 81 59t81 62q4 2 6 5t6 8q18 12 49 6q10 -2 15.5 -5t15.5 -10l10 -12q8 -12 6 -22q-4 -12 -6 -23.5t-6 -26.5q-6 -18 -13 -38.5t-18 -40.5q-2 -4 -4 -9.5t-2 -9.5 l-16 -49q-10 -18 -16.5 -37.5t-12.5 -38.5q-10 -37 -22.5 -69.5t-22.5 -69.5q-6 -12 -8 -15t-2 -6.5t-1 -7.5t-3 -16q-6 -25 -8.5 -29t-2.5 -5t-2 -6t-8 -30q-4 -16 -4 -18t1 -1t1 -1t-2 -19q-2 -4 -2 -9t-4 -9q-4 -20 -4 -29.5t-4 -27.5q0 -10 -4 -27q-4 -33 -6.5 -53.5 t-4.5 -51.5q0 -6 -1 -13t-1 -13t4 -14q4 -4 7 -5q4 -2 3 -2t5 -2q8 0 8 -8q4 -4 3 -7t3 -9q0 -10 -6 -17l-10 -5t-13 1q-37 8 -55 31q-6 6 -6 14q-4 21 -8 31z" />
<glyph unicode="r" horiz-adv-x="413" d="M367 688q-2 2 -5.5 1t-9.5 1q-12 4 -35 -2q-10 -4 -21 -10l-22 -12q-18 -10 -33.5 -25.5t-31.5 -30.5q-14 -10 -28.5 -25.5t-37.5 -43.5q-6 -12 -15 -25.5t-17 -26.5q-4 -10 -11 -14q-12 -20 -18 -41.5t-14 -44.5q0 -4 -1 -8t-1 -8q-4 -8 -13.5 -12.5t-15.5 -0.5 q-23 6 -39 21q-12 8 -6 22q4 10 8 21.5t10 21.5q12 23 19 58q10 37 17 74.5t17 74.5q4 10 4.5 20.5t2.5 20.5q8 31 8 64q0 12 12 16t21 -2q14 -6 28 -16q16 -10 13 -23q-2 -23 -5.5 -43t-7.5 -43v-4h2q12 10 18.5 14.5t14.5 14.5q18 20 47 31.5t55 19.5q23 10 54 4 q12 -4 23.5 -8t21.5 -14q2 -2 2 -4.5t2 -6.5q2 -2 -1 -4t-7 -2h-4z" />
<glyph unicode="s" horiz-adv-x="575" d="M303 694q0 -4 -2 -11t-8 -7t-17.5 5t-21.5 5q-18 0 -48 -9t-59.5 -21.5t-50 -27t-20.5 -22.5q0 -10 23.5 -16t41.5 -10q16 -4 39 -12.5t43.5 -16.5t35.5 -13.5t20 -5.5q27 6 59.5 12.5l62.5 12.5q12 2 31 6t39.5 9.5t35.5 8.5t21 3q4 0 15.5 2t24 3t22.5 3t14 2 q16 0 21.5 -8t5.5 -13q0 -6 -15.5 -12t-35 -10t-38 -7t-24.5 -5l-117 -27q-12 -4 -26.5 -7t-28.5 -8t-23.5 -9.5t-9.5 -8.5q0 -10 7.5 -20t7.5 -21q0 -14 -11.5 -46t-46 -68.5t-103.5 -70.5t-181 -48q-25 -4 -44.5 9t-29.5 36l-6 31q0 27 26.5 53t59.5 49t61.5 38t32.5 19 q8 6 28.5 15.5t41 18.5t36 16.5t15.5 9.5h-2l-2 -2q-18 6 -38 13t-38 11l-39 10q-41 10 -58.5 30t-17.5 56q0 27 29 51.5t69 44t83 31t69 11.5q14 0 28.5 -16.5t14.5 -34.5q0 -4 -1 -5.5t-1 -5.5zM-20 258l17 3t43 9t55.5 16.5t51.5 22.5l60 35q27 18 45 43t24 53 q0 6 -5 15.5t-9 9.5q-33 -6 -63.5 -24.5t-73.5 -45.5l-55 -30q-29 -18 -62 -41t-51 -58l2 -4q17 -4 21 -4z" />
<glyph unicode="t" horiz-adv-x="342" d="M45 688q2 12 5 22.5t5 20.5q0 -2 4 11.5t10.5 34t12.5 42t12 35.5q10 23 12.5 32t12.5 32q4 6 10 18t12 26.5t10.5 26.5t4.5 19l-2 -2h-2q-4 4 -7 -2l-36 -13l-58 -20q-10 -4 -13 -4h-4t-3 -1t-11 -5q-10 -4 -23 -7.5t-30 -7.5q-8 0 -18 8q-8 4 -3 13.5t3 11.5l-2 2 q-2 14 7 16t17 2l41 15q2 2 4 5t9 -1q16 8 26 10q8 4 12 4q12 8 25.5 11.5t26.5 5.5l8 4t8 2q10 2 18.5 5t18.5 7q14 6 14 10q0 2 2 4v2l13 31l90 229q2 4 4 11.5t6 17.5l6 10q4 10 24.5 10.5t30.5 -8.5q2 -4 5.5 -10t7.5 -12q2 -4 4 -12.5t-2 -14.5q-35 -61 -59.5 -118.5 t-53.5 -120.5q-4 -4 1 -3t7 -1q43 10 66.5 14t62.5 14q12 0 22.5 5t20.5 -1q4 2 10.5 1t10.5 3q18 6 37 -2q8 4 12 2q12 6 23.5 1t25.5 -5q4 2 3 -2t1 -4q6 0 7 -3t-3 -3q-10 -4 -8 -9t0 -5q-16 -4 -30.5 -5t-30.5 -8q-10 0 -19.5 -1t-19.5 -5l-8 -4q-23 2 -48.5 -5 t-50.5 -11q-12 -4 -19 -7t-18 -8l-34 -6l-31 -10q-10 0 -11 -4t-6 -8q-2 -2 -7 -16.5t-10 -31t-11 -30.5t-8 -18q-25 -72 -49.5 -135.5t-43 -130t-31 -140.5t-12.5 -164q0 -49 2.5 -70.5t5.5 -29.5t6 -10t7 -11q12 -2 21.5 -9t11.5 -15t-5.5 -15.5t-27.5 -7.5q-4 0 -8 4 q-29 10 -36 15.5t-15 25.5q-16 29 -19.5 78t-3.5 86l4 76q0 20 2 28.5t6 28.5q2 27 11.5 73t17.5 73z" />
<glyph unicode="u" horiz-adv-x="737" d="M418 322q-31 6 -46.5 16t-37.5 37q-14 16 -20.5 37.5t-10.5 46.5q-4 20 -6 40.5t0 43.5l8 63l-2 4v2h-2h-4q-16 -20 -38.5 -44.5t-39.5 -45.5q-4 -6 -7 -8t-7 -6l-27 -25q-18 -23 -51 -45q-10 -6 -20.5 -15t-24.5 -13q-33 -6 -57 4q-16 8 -25.5 14t-19.5 18 q-12 14 -13 29v22.5t2 26.5q6 29 19.5 73t17.5 73q4 8 11.5 11t11.5 -1l39 -31q6 -4 7 -12t1 -16l-2 -17q-4 -10 -9.5 -26.5t-9.5 -35t-9 -34.5t-7 -29q-2 -4 -1 -7t1 -7q0 -6 8 -6q6 0 10 2l33 22q12 10 24.5 20.5t22.5 22.5q10 10 22.5 21.5t22.5 21.5q10 14 20.5 25.5 t20.5 21.5q14 12 32.5 41t29.5 43l37 39q12 14 32 9q10 -4 19.5 -9.5t17.5 -13.5q10 -14 10 -23q2 -20 -4 -45q-8 -18 -16 -50l-12 -48q-6 -20 -9.5 -47t0.5 -55q0 -4 3.5 -16.5t5.5 -16.5q6 -29 22.5 -50.5t46.5 -17.5q23 4 43.5 12.5t40.5 18.5q16 10 40 26.5t38 26.5 q39 33 66.5 58.5t54.5 54.5q8 12 19.5 19.5t21.5 17.5q10 14 25.5 -0.5t7.5 -28.5q-16 -18 -28.5 -35.5t-33.5 -31.5l-43 -41q-53 -49 -85 -71t-66 -38q-29 -16 -57.5 -23t-63.5 1z" />
<glyph unicode="v" horiz-adv-x="481" d="M-18 444q0 4 1 10.5t1 10.5q6 12 6 31q-2 4 0 8t2 8q6 25 13 50.5t11 47.5l19 56q4 8 8 10q2 2 6 0q27 -6 43 -31q4 -10 2 -14q-12 -33 -22.5 -66t-20.5 -65q-4 -20 -8 -43t-6 -45q0 -2 2 -2l2 -2l4 -2q2 0 2 2q39 29 70 65q10 10 18 20.5t21 18.5l41 51q8 10 14 19.5 t12 15.5q0 2 2 4q8 10 17.5 20.5t17.5 20.5q4 6 9 15.5t16 15.5q10 8 14 16t12 17q6 10 14.5 19t12.5 19q0 4 3 4.5t5 4.5q18 14 29.5 29.5t27.5 31.5q10 8 22.5 16.5t27.5 12.5q2 0 8 1t4 -3q2 -6 8 -8q4 -4 2 -11.5t-6 -11.5q-6 -6 -11 -14.5t-12 -14.5q-14 -16 -25 -31.5 t-24 -31.5l-37 -47l-67 -86q-31 -41 -60.5 -79t-62.5 -77q-10 -10 -17.5 -20.5t-17.5 -20.5q-10 -12 -23.5 -21.5t-27.5 -19.5q-23 -8 -43 0q-10 4 -19.5 12.5t-15.5 14.5q-12 16 -20 32.5t-4 36.5z" />
<glyph unicode="w" horiz-adv-x="1011" d="M930 520q-12 0 -27.5 -5t-32.5 -3q-35 -4 -64.5 5t-60.5 26q-6 2 -14 15t-18 17q-4 2 -9.5 4.5t-5.5 -1.5q2 -4 -3 -9.5t-11 -21.5q-20 -43 -39.5 -72t-58.5 -69q-10 -6 -16.5 -13.5t-14.5 -13.5q-16 -16 -36.5 -26.5t-51.5 -14.5q-41 -10 -76 14q-6 -2 -10 0l-8 4 q-20 18 -34.5 35t-19.5 39q-4 16 -3 45t1 47l-2 4q-10 4 -10 -4q-16 -20 -37.5 -51t-42.5 -47q-8 -8 -17 -17.5t-15 -17.5q-16 -14 -31 -20q-27 -10 -46.5 -15.5t-52.5 4.5q-6 4 -15 7.5t-13 11.5q-20 4 -27 24q-4 16 -2 29.5t4 30.5q8 31 13.5 60.5t15.5 58.5q8 23 12 43 t12 43q2 8 4.5 16t0.5 14q8 27 38 27q29 6 31 -4t10 -31q2 -2 -2 -8t-2 -10q-6 -16 -5 -32.5t-9 -31.5q-10 -33 -21.5 -63.5t-21.5 -61.5q-2 -10 -5 -28.5t-7 -28.5q4 -25 13 -28t30 7q29 18 53.5 46t52.5 69q6 6 13.5 12.5t11.5 12.5q23 33 38 56.5t40 55.5q8 8 11 15.5 t9 13.5q8 16 13.5 16t27.5 -4q6 -4 6 -7t4 -7q14 -4 13 -16q-6 -23 -7.5 -38.5t-5.5 -37.5q-4 -14 -3 -28.5t-1 -29.5q-10 -31 -5 -55t9 -51q0 -6 11.5 -14.5t17.5 -12.5q12 -14 31.5 -9t39 18.5t36 32t22.5 30.5q10 8 16.5 18.5t14.5 20.5q16 20 24 33.5t14.5 25t11.5 25.5 t15 39q14 20 14.5 33.5t-6.5 35.5q-4 16 -3 29.5t-1 30.5q-6 25 25 31q10 2 10 0t4 -5q12 -16 20.5 -19t18.5 -15q0 -16 -1 -28.5t-1 -25.5q0 -8 1 -22t3 -28.5t7.5 -26t11.5 -13.5q8 -14 18 -24.5t21 -20.5q18 -6 36.5 -9t38.5 1q37 4 54.5 6t50.5 19q16 6 27.5 9t20.5 8 t20.5 13.5t29.5 20.5q4 4 6 7t6 5q12 4 23 0q2 -2 4 -6t-2 -6q2 -12 -1 -16.5t-11 -8.5q-18 -10 -23.5 -19t-23.5 -20q-12 -8 -24.5 -15t-29.5 -11q-12 -4 -19 -7.5t-13.5 -5.5t-13.5 -5t-19 -5z" />
<glyph unicode="x" horiz-adv-x="397" d="M-119 262q0 10 2 14q4 10 8.5 18.5t12.5 18.5q6 2 6 9q4 10 9 17t13 17q6 8 11.5 13.5t9.5 13.5q6 10 10 13t6 4t4 1t7 7q0 4 8 12l39 43q6 10 16 16q12 8 20 21q10 12 10.5 14t-7.5 16q-12 23 -19.5 40.5t-21.5 39.5q-6 10 -13.5 21.5t-9.5 23.5q-4 16 -8 30.5t0 29.5 q0 14 18 14l27 -10q12 -6 16 -17l8 -32q0 -10 5.5 -21.5t9.5 -21.5q12 -20 16 -31.5t17 -32.5q4 -8 12 2q2 4 3 4t5 4q2 4 4 6.5t6 6.5t9.5 9t9.5 9q14 14 27.5 26.5t23.5 26.5q14 20 33 39l10 13q10 12 19.5 25.5t21.5 27.5q2 0 3 1t3 1q4 4 14.5 9t16.5 1q10 -4 16 -5 t14 -7q4 -4 6.5 -14.5t-1.5 -14.5q-20 -18 -39 -37.5t-37 -42.5q-12 -16 -26.5 -29.5t-26.5 -25.5l-74 -76l-8 -10q-4 -4 -7.5 -8t1.5 -8l22 -37q14 -29 28.5 -53.5t30.5 -49.5q8 -20 23 -43q4 -4 4 -7t2 -7q0 -8 -10 -8q-10 -2 -20.5 0t-16.5 10q-10 16 -21.5 32.5 t-21.5 33.5q-8 10 -15.5 21t-15.5 26q-4 6 -9 16t-10 18.5t-10.5 12.5t-11.5 0q-14 -14 -33.5 -40t-21.5 -30q-12 -16 -16 -19t-6.5 -4t-5.5 -5.5t-15 -20.5q-10 -16 -22.5 -31.5t-24.5 -29.5l-8 -15l-19 -20q-4 -4 -8 -4t-11 2t-13 2q-13 2 -13 16z" />
<glyph unicode="y" horiz-adv-x="706" d="M406 584q-4 -23 -7.5 -45.5t-11.5 -44.5q-2 -10 -5 -26.5t7 -4.5q18 10 31.5 17t30.5 18q25 8 49 24q14 4 27.5 10.5t27.5 12.5t28.5 11t28.5 9q35 12 50.5 16.5t42.5 8.5q6 0 9 1t7 1q14 0 29.5 2t15.5 -12q4 0 4 -7.5t-6 -11.5q-8 0 -12 -4l-72 -20q-16 -4 -34.5 -11.5 t-35.5 -13.5l-16 -8q-51 -23 -99.5 -47.5t-95.5 -55.5q-4 0 -10 -5t-8 -9q-14 -6 -14 -20l-7 -25q-2 -14 -4 -25.5t-6 -21.5q-4 -12 -4 -25.5t-6 -23.5q-2 -2 -2 -6q0 -23 -6 -40.5t-10 -35.5l-11 -31q-10 -35 -21 -68.5t-26 -68.5q-10 -23 -19 -46.5t-22 -45.5 q-18 -39 -38.5 -77t-41.5 -73q-16 -18 -31.5 -39.5t-33.5 -42.5q-37 -49 -96 -92q-14 -10 -32 -21.5t-38 -17.5q-53 -20 -98 -8l-39 14q-2 0 -2 1t-2 1q-10 10 -20.5 21.5t-18.5 26.5q-4 16 -8.5 36.5t-4.5 38.5q2 6 1 12.5t-1 14.5q2 16 3.5 33.5t7.5 34.5q0 4 2 7t2 7 q2 16 8 34.5t12 35.5q16 35 36 69.5t42 63.5q16 23 32.5 42t33.5 42q12 12 22 26.5t25 26.5q4 4 5 7t5 5q18 14 33.5 29.5t31.5 30.5q18 23 42 40t47 37q33 23 62.5 46.5t64.5 46.5q14 10 29.5 22t29.5 23q6 4 12 9t6 15q4 16 4 29.5t7 32.5q0 4 1 10t1 12l12 98v5 q-2 0 -3 -1.5t-3 -1.5l-25 -28q-25 -27 -47 -53.5t-51 -51.5q-2 -2 -4 -3t-4 -5q-18 -16 -34.5 -27.5t-37.5 -21.5q-27 -14 -59 -12q-4 0 -8.5 1t-8.5 1q-25 0 -39 22q-14 20 -15 39t3 41q4 14 7 27.5t7 25.5q8 18 18.5 45t18.5 44q10 14 29 10q4 -4 10 -5t10 -3 q8 -4 12.5 -15.5t0.5 -21.5l-25 -58q-4 -12 -8 -23l-8 -22q-6 -10 -7 -24.5t-4 -24.5q0 -4 3.5 -6t7.5 0l28 14q25 18 47.5 38t45.5 46l75 84l21 31q10 10 19 21.5t20 21.5q12 16 35 4q6 0 11 -2t9 -4q23 -14 25 -35q0 -14 1 -27.5t-1 -29.5q-4 -10 -3 -21.5t-1 -25.5z M-215 -283q-10 -45 -4 -71q2 -25 12 -43q2 -10 23 -27q8 -6 22 -6q16 4 27 8l53 27q25 16 44.5 35.5t41.5 42.5q23 25 44.5 55.5t41.5 62.5q16 27 29.5 52.5t25.5 50.5q29 47 46.5 95t33.5 97q29 68 41 131q0 2 2 4t2 7q8 16 12.5 40.5t8.5 40.5q2 4 4 11.5t2 11.5t-4 4 q0 2 -2 0l-25 -24q-23 -14 -43 -33t-41 -33l-26 -20q-2 -6 -15 -15q-23 -16 -42 -34.5t-36 -34.5q-23 -20 -41 -37t-36 -37q-45 -47 -82 -99.5t-72 -111.5q-18 -35 -31.5 -73t-15.5 -77z" />
<glyph unicode="z" horiz-adv-x="866" d="M401 631q37 14 74 12l27 -4q25 -10 47 -24.5t39 -36.5q4 -6 6 -11.5t6 -9.5t10 0l12 4q11 4 24 9t24 10l10 6q16 10 34.5 15t35.5 9q18 6 37.5 7t35.5 6q8 2 16.5 1t16.5 -1q4 0 17.5 -1t17.5 -4q10 -4 19.5 -6t21.5 -12l6 -8q2 -4 0 -10.5t-4 -6.5t-3 -1t-3 -1 q-8 4 -21 5q-47 10 -104 -3q-49 -12 -90 -30l-99 -41q-8 -4 -4 -12q-4 -53 -28 -101l-15 -29l-8 -18q-10 -16 -19.5 -32.5t-21.5 -32.5q-16 -25 -33.5 -48.5t-33.5 -46.5l-58 -71l-14 -11q-16 -23 -35.5 -42t-38.5 -37q-29 -33 -62.5 -58.5t-68.5 -48.5q-10 -8 -20.5 -12 t-20.5 -8q-23 -10 -43 -5q-12 0 -16 3q-10 6 -18.5 12t-18.5 14t-10 27q-4 6 2 12l14 57l8 11q10 10 12 20q6 35 29 51l19 33q6 16 18 33q14 18 28.5 35.5t30.5 36.5l13 14q8 8 14 10q12 2 23 21q8 18 26 32q6 16 18.5 22.5t26.5 10.5q4 0 4 4q0 10 5.5 15.5l11.5 11.5 q4 4 7 3t7 -1q2 0 8 6q12 12 17 14q4 2 6 5.5t4 5.5q8 16 21.5 25t27.5 16q4 4 8 6t8 6q6 4 13.5 8t15.5 10q8 0 10 4q10 10 20.5 14.5t18.5 14.5q4 4 9.5 3t9.5 1q12 4 8 12q0 10 -2 19.5t-6 19.5q0 18 -19 23q-12 4 -24.5 3t-22.5 -3q-6 0 -12 -2t-10 -2q-86 -29 -154 -80 q-18 -14 -36.5 -27.5t-35.5 -27.5q-14 -10 -22 -13q-8 -4 -15 2q-20 14 -32 35q-4 8 0 12q10 10 20 18.5t21 18.5l10 9q4 4 7 6t5 6l45 53q12 14 22.5 26.5t20.5 28.5q4 4 4 9q16 27 25 51q0 2 -2 4t-8 2q-6 -2 -14.5 -3t-16.5 -5q-16 -8 -53 -31t-72 -45l-31 -23 q-10 -10 -26.5 -20t-20.5 -14q-6 -4 -6 -5q-6 -4 -21.5 -13t-19.5 -5t-10 4t-10 2q-4 0 -4 14.5t-3 18.5q-2 2 3.5 11t9.5 20l16 32l14 33q4 8 11.5 33t7.5 31v12v6q0 2 6 10.5t14 8.5q10 0 16.5 -1t12.5 -1l6 -7q2 -4 6 -6q4 6 7.5 -1t3.5 -17l-29 -70q-4 -10 8 -1t19 13 q8 6 10 6.5t12 8.5q16 12 29.5 20t23.5 13q16 6 44 14t46 8q8 -2 15.5 -2t13.5 -4l41 -29q16 -10 20.5 -28.5t-4.5 -34.5l-18 -33q-2 -4 -4 -7t-2 -7q6 0 22 4zM86 -41l-2 -8q0 -4 4 -7t8 -1l19 8q12 2 28 14q16 10 33 22.5t33 26.5l27 25q10 10 22 21.5t23 21.5 q23 25 45 48.5t43 47.5q4 10 12 16.5t16 12.5q6 8 13.5 13t7.5 16q0 4 4 8q12 12 20.5 24.5t16.5 26.5q12 16 21 36.5t24 39.5q6 16 14 33.5t17 33.5q2 2 2 11l-2 2q-2 0 -3.5 1t-3.5 1l-32 -19q-2 -2 -4.5 -2t-4.5 -4q-4 -6 -11 -10t-15 -8q-10 -8 -17.5 -13.5t-15.5 -13.5 l-19.5 -19.5t-21.5 -15.5q-6 -4 -13 -9t-14 -13q-4 -6 -12 -11.5t-14 -13.5q-12 -18 -35 -31q-4 -4 -7 -6t-5 -6l-31 -33q-10 -6 -15 -15t-16 -15q-4 -4 -5 -7.5t-3 -5.5l-14 -20q-16 -16 -28.5 -36t-24.5 -36q-6 -10 -10.5 -19.5t-14.5 -15.5q-2 -2 -2 -4t-2 -6l-31 -72z " />
<glyph unicode="{" horiz-adv-x="655" d="M324 -141q14 0 12 -6q0 -6 -2 -9q-20 -18 -55 -18q-27 0 -46 8q-49 23 -77 57q-6 10 -13.5 16.5t-13.5 14.5q-8 10 -13 19.5t-10 19.5q-10 23 -13 44.5t-7 43.5q-6 31 2 60l10 57q4 20 9.5 40.5t15.5 39.5q20 49 42.5 93t49.5 91q10 16 20.5 35.5t20.5 38.5 q12 23 25.5 48.5t23.5 49.5q6 14 11.5 30.5t9.5 35.5q6 16 0 37q-6 37 -45 43q-16 4 -34 8t-36 6q-23 0 -37 12q-8 6 -8 19q-2 6 3 11t11 5h29q27 0 49 8q23 8 41 15.5t41 17.5q4 2 6 5t6 5q29 18 53.5 41t47.5 49q0 2 2 2q18 35 29.5 72t7.5 80q-2 2 -3 6q-10 25 -17 52.5 t-21 51.5q-16 31 -27.5 58.5t-17.5 56.5q-4 20 0 37q12 53 51 92q37 47 94 74q63 39 145 49q14 2 29.5 -1t28.5 -13q4 -2 5 -4t5 -7q4 -4 -1 -10t-11 -6q-2 0 -3 -1t-4 -1q-16 2 -34.5 -2t-34.5 -8q-10 -4 -21.5 -7t-21.5 -8q-33 -14 -59.5 -30.5t-53.5 -34.5 q-35 -33 -53 -74q0 -4 -2 -6t-2 -6q-2 -16 -1 -35.5t5 -36.5q6 -14 11 -29.5t14 -29.5q14 -27 26 -56.5t21 -56.5q6 -16 6 -28v-19q4 -47 -12.5 -88t-49.5 -80q-49 -59 -127 -96l-43 -19q-4 -4 0 -4q14 -10 24.5 -16t20.5 -16q14 -16 21.5 -33t9.5 -39q2 -53 -24 -111 q-16 -37 -36 -68.5t-38 -66.5q-10 -16 -21.5 -36.5t-21.5 -39.5q-4 -6 -7 -13t-8 -13q-2 -4 -4 -8.5t-6 -8.5q-23 -41 -39 -83t-26 -85q-2 -10 -4 -23t-2 -24q-8 -25 -6.5 -48t6.5 -48q10 -63 57 -108q6 -8 22 -17q27 -23 58 -20h35z" />
<glyph unicode="|" horiz-adv-x="368" d="M303 1468q-4 -20 -4 -39.5t-4 -37.5q-2 -16 -5 -33t-3 -33q0 -10 -3 -18.5t-3 -18.5q-4 -16 -5.5 -32.5t-3.5 -32.5q-4 -16 -6 -31.5t-4 -32.5q-4 -10 -4 -21.5t-4 -21.5q-4 -35 -11 -66.5t-14 -66.5l-14 -84q-6 -27 -11 -52.5t-9 -53.5q-4 -18 -7.5 -38t-7.5 -40 q-4 -27 -7 -52.5t-9 -52.5q0 -16 -3 -32.5t-3 -32.5q0 -4 -4 -21q0 -4 -1 -9t-1 -9q0 -20 -2 -31q-2 -4 -3 -16q-2 -12 -2 -23.5t-4 -21.5q-2 -4 -2 -17v-22.5t-2 -22.5t-2 -18v-19q0 -10 -1 -21t-3 -22q-2 -12 -1 -25.5t1 -27.5l4 -26q2 -16 4 -31t8 -29l13 -27q2 -6 0 -10 q-4 -12 -15 -8q-43 20 -55 74q-4 14 -6 27.5t-6 27.5q0 8 2 12q2 6 1 12.5t1 12.5q0 4 -1 9t-1 9q-2 6 -2 21q4 23 5 46t1 46q0 10 2 16q0 4 4 17q6 14 2 37q-2 8 0 20q4 12 6 25.5t2 29.5q0 6 2 9q4 10 4 20v21q0 16 3 24q4 14 6 26.5t4 26.5q2 8 2 25q2 8 2 14t4 13 q0 4 1 5t1 5q0 14 2 26.5t6 24.5q2 4 2 10q-4 12 -1 23.5t7 21.5q6 14 7 33v19.5t4 19.5q4 16 8 34.5t6 37.5l6 45q4 10 6 19t2 20v2q10 23 11.5 47t5.5 47q0 4 2 8l8 37q2 8 2 16.5t4 18.5q0 4 2 6q0 27 4 51.5t6 50.5q4 16 5.5 32.5t5.5 33.5q2 6 2 20v21.5t2 21.5 q4 16 -2 33v8q0 16 10 17q12 4 20 -2l13 -9q18 -12 18 -40v-5z" />
<glyph unicode="}" horiz-adv-x="442" d="M-57 -195q-12 0 -26.5 2.5t-29.5 6.5q-4 2 -7 5t-7 5t-3 6t5 6q6 2 14.5 5t18.5 3q29 2 53.5 10.5t46.5 22.5q27 16 52.5 33.5t48.5 40.5q37 35 63.5 72.5t40.5 85.5q4 16 4 28q0 14 1 25.5t1 23.5q0 51 -18 99q-10 25 -18.5 51t-18.5 49q-4 10 -8 22.5t-13 22.5 q-10 16 -11 36.5t-5 41.5q-4 2 0 6q4 27 11 52.5t26 47.5q16 18 30.5 37t32.5 35q12 8 20.5 16.5t18.5 14.5q8 8 -2 14l-26 14q-29 18 -42.5 41t-19.5 54q-10 29 -4 59q4 14 6 29.5t4 29.5q4 10 6 19.5t7 19.5q4 8 7 16.5t7 14.5q6 20 14 38.5t23 37.5l24 39q23 41 48.5 79 t50.5 78q10 12 19 24.5t22 27.5q16 23 27.5 48t21.5 50q6 12 7 23.5t-1 23.5q-10 10 -16 12h-11q-16 0 -32.5 4.5t-32.5 8.5q-25 4 -37 26q-8 12 4 21l25 6q18 0 38.5 -2t40.5 -6q33 -10 58 -33q10 -16 19 -31.5t14 -32.5q2 -12 0 -30q-14 -49 -48 -97l-59 -81 q-27 -33 -48.5 -67t-43.5 -69q-27 -41 -47.5 -81.5t-36.5 -83.5q-4 -10 -6 -20.5t-4 -22.5q-4 -10 -6.5 -18.5t-6.5 -16.5q0 -10 1 -19.5t6 -19.5q0 -10 4 -27q6 -37 39 -49q10 -4 20 -7t25 -3h13t15 2q10 4 18.5 4t18.5 2q27 2 43 -10l17 -23q2 -4 -2.5 -10t-8.5 -6t-6 -1 t-4 -1q-29 0 -50.5 -8.5t-41.5 -22.5q-66 -41 -109 -92q-10 -14 -16 -26.5t-12 -26.5q-4 -8 -4 -19v-59q0 -10 4 -23q10 -23 19 -46t22 -48q12 -33 22 -65.5t17 -67.5q2 -6 2 -18t1 -26.5t-1 -31.5q0 -74 -41 -131q-23 -37 -51.5 -67.5t-65.5 -53.5q-29 -25 -60.5 -40 t-62.5 -29q-14 -4 -27.5 -7.5t-29.5 -1.5z" />
<glyph unicode="~" horiz-adv-x="485" d="M326 496q-2 0 -5.5 1t-7.5 -1q-8 0 -14 2t-14 6q-23 12 -43.5 26.5t-36.5 34.5q-4 6 -6 6q-4 6 -17 7q-6 0 -11 -2.5l-9 -4.5q-10 -8 -17.5 -13t-15.5 -13q-8 -6 -14 -13.5t-15 -15.5q-8 -8 -12 -10q-18 -14 -33 4q-8 14 0 22q18 23 39 44.5t45 35.5q4 2 9.5 5.5 t11.5 3.5q37 6 59 -23q6 -4 19 -20q8 -10 18 -19q39 -29 88 -12q14 4 25.5 12t21.5 19l7 7t8 7q10 6 14 2q12 -8 12 -19q-4 -27 -20 -38q-8 -8 -15.5 -13.5t-15.5 -11.5q-22 -18 -55 -16z" />
<glyph unicode="&#xa1;" horiz-adv-x="380" d="M203 502q-4 -16 -4 -29.5t-4 -30.5q0 -16 -5.5 -33.5t-9.5 -31.5q-10 -29 -17 -54.5t-16 -54.5q-18 -86 -45 -153q-6 -10 -7 -22.5t-5 -20.5q-6 -12 -9 -23.5t-9 -23.5q-4 -10 -6.5 -21.5t-8.5 -21.5q-18 -59 -37.5 -120t-35.5 -124q-8 -20 -11.5 -42t-7.5 -44 q-4 -2 -3 -6t-3 -8q-2 -4 -8 -7.5t-10 0.5q-16 4 -29 29q-16 12 -8 33q10 35 17 67.5t20 67.5q18 59 38.5 118.5t43.5 119.5q4 23 13 45t15 45q4 23 11.5 39t11.5 34q20 61 36.5 122t26.5 124q4 14 7 26.5t8 28.5q2 10 10 12.5t12 0.5q6 -8 16 -8q4 -6 7.5 -15.5t5.5 -17.5z M233 856q4 -2 7.5 -1t7.5 -1q2 -2 8 -12q8 -12 11 -17.5t3 -21.5q-2 -10 -3 -14.5t-3 -7.5t-5 -8l-9 -15q-35 -31 -60.5 -11.5t-15.5 62.5l8 16q10 14 20.5 24.5t30.5 6.5z" />
<glyph unicode="&#xa2;" horiz-adv-x="643" d="M475 1135q10 -4 14 4q10 6 20.5 8t22.5 6q8 4 16.5 6t12.5 4q10 2 21 -4q27 -16 28 -37q0 -2 1 -2t1 -2v-2q0 -2 6.5 -5t4.5 -3h-2q-29 12 -52 0l-61 -25q-41 -23 -77 -44t-71 -48t-65.5 -55.5t-61.5 -58.5q-23 -23 -40 -48q-33 -37 -61 -76.5t-50 -80.5q-16 -31 -25 -54 v-12q-4 -14 -6 -26.5t-4 -26.5q-4 -18 -5 -29.5t11 -27.5q4 -8 8.5 -8.5t8.5 -4.5q25 -18 51 -20q27 -6 55 -6h21q10 0 22 1t25 -1q8 4 28 4q23 8 39 10q29 4 55.5 11t53.5 12q6 2 11 4t13 4q6 4 13.5 -5.5t17.5 -7.5l4 -4v-2q-18 -18 -40.5 -29.5t-45.5 -17.5 q-23 -10 -46 -14l-46 -8q-4 -2 -8 -2t-6 -2q-6 -2 -6 -9v-8t-2 -8q-4 -6 -5.5 -12t-5.5 -15q0 -2 -4 -13t-7 -24.5t-7 -26.5t-4 -18q-4 -6 -6 -12t-4 -16l-7 -12q0 -6 -4 -7q-8 -6 -19 -5t-18 7q-6 8 -6 21q0 10 2 14q0 16 7.5 39t11.5 35q4 6 4 12t4 13q2 6 2 13t4 15 q0 2 -6 8q-23 -4 -43 0q-2 0 -4 -2h-18.5t-18.5 2q-16 6 -32.5 12.5t-31.5 16.5q-8 4 -17 12.5t-15 14.5q-35 31 -41 75q-6 31 -2 54l4 22q0 4 1 8.5t1 8.5q8 23 16 47t25 47q4 4 4 10q18 31 38.5 60.5t47.5 58.5q4 0 6 2q16 27 39 49.5t45 42.5l55 53q12 12 26.5 22.5 t27.5 20.5q4 4 9 8.5t11 6.5q10 8 21.5 14t21.5 16q8 4 25 17q8 2 8 14q2 14 5 25.5t7 25.5q2 18 9.5 48t15.5 40q6 6 10 7q0 8 10 2q8 -2 12.5 -3.5t8.5 -9.5q10 -6 8 -14q-2 -4 -2 -10t-4 -11q-4 -12 -5 -14l-2 -4l-2.5 -5t-5.5 -15q-4 -8 -5 -19.5t-5 -21.5z" />
<glyph unicode="&#xa3;" horiz-adv-x="712" d="M475 791q6 0 13.5 1t11.5 9l4 -2h2l6 -11q6 -10 2 -20t-14 -14q-43 -16 -88 -19q-16 -4 -35 -6t-37 -4q-2 0 -8 -6q-2 -8 -5 -15.5t-5 -17.5q-16 -59 -36 -117.5t-42 -115.5q-16 -41 -35 -81t-41 -81q-10 -20 -21.5 -40t-23.5 -38q0 -4 2 -4h2q20 4 29 8q23 10 45 16.5 t45 14.5l90 22q23 4 45 9.5t45 3.5q16 4 33.5 2t34.5 2h8q10 -4 20 -4t21 -2q8 0 12 -7q4 -2 4 -9t-6 -11q-6 -6 -23 -10q-20 0 -30 -2q-23 0 -47 -6q-10 -4 -23.5 -5.5t-26.5 -3.5l-49 -12q-72 -16 -140.5 -40.5t-133.5 -57.5l-70 -31q-14 -8 -24 -2l-21 12q-10 6 -12 19 q-4 6 0 14l6 6q18 12 25 29q4 8 8 10l12 6q14 -8 29 10q16 20 29.5 40t27.5 40q41 70 70 136q16 35 29.5 68.5t27.5 68.5q4 10 7 18t5 19q4 16 10.5 31.5t12.5 31.5l18 68v4q0 2 -2 2q-16 -4 -34.5 -5t-34.5 -5l-76 -17q-18 -4 -31 4q-16 8 -29 27q-4 8 0.5 17.5t14.5 11.5 q27 4 52.5 9t53.5 9l78 8q6 0 11.5 2t11.5 4q6 0 10 11q4 10 6 20t4 21q4 10 6 20t6 20q2 18 7.5 36t9.5 36l20 68q12 41 26.5 80t31.5 77q18 37 40.5 70t51.5 62q18 16 37.5 29.5t42.5 19.5q8 4 12 4q23 10 44.5 10t43.5 -4q57 -18 86 -72l8 -18q4 -8 6 -16.5t-2 -16.5 q0 -16 -2 -25q0 -14 -8 -24q-14 -25 -35 -10q-6 4 -12 6t-10 8q-2 4 -4 9t2 11l6 9q8 10 9 21t-1 22q0 27 -16 41q-10 12 -25 12h-27q-16 -2 -30.5 -5t-24.5 -14q-4 -4 -8 -6t-10 -6q-63 -37 -103 -112q-16 -29 -30.5 -60t-24.5 -61q-8 -18 -14 -37t-13 -39q-4 -14 -7 -27.5 t-7 -27.5l-18 -68l-4 -18q-2 -6 -2.5 -12.5t-4.5 -12.5q-4 -18 -2 -21.5t23 -0.5h96z" />
<glyph unicode="&#xa4;" horiz-adv-x="532" d="M197 770q10 6 12 8q10 6 17 12.5t18 10.5q20 12 41 0q18 -12 28 -37q0 -6 9 -2l10 6q4 4 6 8l4 8q12 16 23.5 30.5t25.5 31.5q8 8 14.5 16t12.5 19q4 8 10 14l12 12q8 4 13 2q8 0 12 -2q6 -2 8 -8q6 -14 0 -27q-6 -10 -11 -18t-11 -16l-52 -74l-8 -12q-4 -4 0 -9 q10 -14 19 -32q4 -12 2 -19q-6 -20 -15 -33q-10 -16 -19 -30.5t-24 -28.5l-25.5 -25.5t-29.5 -23.5q-6 -6 -4 -14q4 -8 4 -15q0 -12 2 -23.5t4 -21.5q2 -14 5 -27.5t7 -27.5t7.5 -26.5t9.5 -26.5q2 -2 2 -7q0 -4 -6 -10h-6q-20 4 -31 17q-20 31 -29 59l-14 51l-4 29 q0 8 -6 2h-4q-12 -6 -24.5 -12t-27.5 -11q-10 -2 -16 -14q-10 -16 -21.5 -33.5t-23.5 -33.5q-6 -8 -10 -16.5t-9 -16.5q-6 -8 -14 -25q-2 -6 -10 -10q-12 -8 -27 2q-6 6 -4 12q2 16 4 30.5t10 29.5q16 35 41 71l7 15v6q-4 4 -6.5 5t-4.5 5q-18 18 -18 43q0 33 12 64 q10 20 19.5 38.5t23.5 34.5l19 27v6q0 2 -1 4t-1 4q-4 10 -6.5 21.5t-2.5 21.5q0 6 -2 10q-4 23 -4 44.5v44.5l2 2q0 8 13 12q20 0 32 -17q6 -6 7 -12v-18v-18.5t2 -18.5t2 -18.5v-18.5zM129 539q0 -8 8 -9q4 0 8.5 -1t8.5 1q39 10 65 27q33 20 60.5 42t52.5 50 q14 14 21 30.5t14 35.5q0 4 -5 8l-16 6q-8 4 -14 6t-15 2q-6 0 -18 8q-4 0 0 5q0 4 -2 4q-14 6 -27 -4q-35 -25 -65 -60q-23 -25 -41.5 -52.5t-30.5 -59.5q-4 -16 -4 -33v-6z" />
<glyph unicode="&#xa5;" horiz-adv-x="1054" d="M543 578q-39 -2 -43 22q0 10 8 12l12 6l55 5h27l4 4q4 12 4 14q0 16 4 25q-6 -2 -13 -2h-13q-10 -2 -20.5 -2t-20.5 -5q-20 0 -29 5q0 2 -2 4t-4 6q-14 20 16 26q18 2 39 4.5t41 -0.5h10q4 0 6.5 1.5t4.5 1.5q2 2 2 8q0 4 4 8q4 16 10 31.5t14 27.5q4 4 5.5 7.5t3.5 7.5 q2 14 7 28.5t11 28.5q4 4 4 8q6 10 10 25q2 2 2 12q0 6 5.5 13.5t7.5 15.5q4 10 9 18t5 21q0 6 4 10q10 14 17.5 28.5t11.5 30.5q2 10 5 19.5t7 15.5q8 4 8 14q4 10 6.5 18.5t8.5 16.5l22 45l10 23h-2q-4 0 -6 -2l-27.5 -27.5t-25.5 -30.5l-68 -63q-23 -23 -45 -44.5 t-45 -39.5q-20 -16 -37.5 -35.5t-37.5 -36.5q-10 -4 -14.5 -9t-12.5 -13l-13.5 -13.5t-17.5 -11.5l-4 -4q-16 -16 -34.5 -30.5t-35.5 -28.5q-12 -10 -22 -18.5t-21 -14.5q-10 -8 -18 -15.5t-20 -13.5q-31 -20 -68 -33q-16 -10 -34.5 -12t-35.5 0q-8 0 -20 6 q-14 6 -27.5 15.5t-25.5 19.5q-25 25 -19 55q0 14 2 21q4 12 5 26.5t3 30.5q6 8 11 23q4 10 9 21.5t9 21.5q10 27 20.5 53.5t24.5 48.5q16 39 33.5 77t36.5 77q10 18 17 39.5t16 42.5q4 4 6 11t6 11q0 4 10 4h4q4 -2 18.5 -7t16.5 -9q12 -12 6 -25q-2 -4 -4 -7t-2 -9 l-94 -193q-14 -31 -28.5 -63.5t-27.5 -65.5q-10 -23 -18 -47t-16 -49q-6 -37 -4 -63q0 -8 2 -13.5t4 -11.5q10 -6 18 -4q18 4 40 12.5t38 20.5q4 4 10 5t12 5q27 12 52 35q6 0 8 2q10 12 22.5 20.5t22.5 18.5l65 53l33 29q8 10 15.5 14t17.5 14q2 2 6 2q8 18 27 29 q10 6 16 17q0 8 8 10q10 4 15.5 11t15.5 13q2 6 8 9q6 8 14.5 12t16.5 14q4 8 11 14.5t14 14.5l7 7t11 7q2 2 3 4t5 4q10 10 21.5 22.5t21.5 24.5l10 9q4 4 9.5 8t7.5 12q6 10 20 21q8 4 19 20q6 14 20 25q4 6 10.5 11t10.5 13l6 8q8 6 14 14.5t10 16.5q8 14 23 25q2 2 6 2 q14 4 23 -2q6 -4 13 -7.5t11 -7.5q8 -2 8 -10q0 -14 -4 -22q-8 -14 -16 -32t-14 -34q-6 -8 -8.5 -13t-6.5 -11q0 -6 -2 -9q-6 -10 -11 -22t-11 -25l-35 -67q0 -4 -1 -7.5t-3 -7.5l-19 -37q-4 -10 -8 -18t-8 -18l-14 -33q-4 -10 -7.5 -19.5t-7.5 -15.5q-4 -12 -4 -14 q-4 -10 -9 -18.5t-7 -18.5q0 -14 -15 -33v-4q-4 -20 -12 -35.5t-16 -32.5v-6q-2 -10 -7.5 -22.5t-7.5 -22.5l-14 -22q4 0 8 2q14 4 25.5 4h23.5q12 -2 15.5 -1t15.5 -3v-4v-9q-2 -4 -2 -6t-4 -4q-8 -2 -9 -4t-9 -2q-10 0 -17.5 -1t-15.5 -3q-12 -4 -21 -4q-14 0 -20 -2 q-4 -10 -7 -21.5t-7 -21.5q6 0 8 2q4 0 10 1t14 1l51 6h17q8 0 20 -6q8 -8 0 -12q-8 -14 -28 -19q-8 -2 -13.5 -4t-11.5 -2q-23 0 -31 -2h-16h-18.5t-16.5 -4l-6 -12q-2 -12 -6 -23.5t-8 -24.5q-6 -18 -9.5 -35.5t-11.5 -33.5q-4 -12 -8 -23.5t-8 -21.5q-6 -29 -12.5 -55.5 t-16.5 -51.5q-4 -16 -7 -33.5t-9 -33.5l-10 -62v-16q-2 -14 -3.5 -26.5t-1.5 -26.5q0 -4 1 -8.5t1 -6.5q0 -6 3.5 -12t11.5 -2q12 8 16 -2q4 -2 9.5 0t9.5 2q2 0 2 -6v-6q-4 -14 -23 -19q-4 -4 -14 -4l-31 10q-10 2 -18 11q-14 6 -21 26q-4 8 -4 12q0 10 1 19.5t1 19.5h-2 l4 33v16.5t4 12.5q0 14 5.5 27.5t5.5 25.5q0 2 4 10q4 16 8 41q2 10 4 17.5t8 15.5q2 8 3 13t1 14q4 4 5 8t5 8q2 0 2 6q-4 8 3 23q4 8 5 17t3 20q0 8 3 11l7 7t4 7t4 7v27q0 8 4 12q8 12 10 19l7 24l6 15q-8 0 -14.5 -1t-12.5 -1q-6 -2 -12 -2h-6v0z" />
<glyph unicode="&#xa6;" horiz-adv-x="237" d="M-98 -131q0 6 11 54t25.5 104.5t25.5 104.5t11 54q0 4 9.5 45t20.5 89.5t21.5 89.5t12.5 45l8 53q6 8 6 20q4 14 10.5 19.5t22.5 3.5q4 -4 10 -6t10 -6t11 -15q0 -20 -4 -30q-2 -6 -7.5 -30t-13.5 -55.5t-17 -68.5t-17.5 -68.5t-14.5 -55t-8 -30.5q0 -4 -12.5 -51 t-25.5 -103.5t-24.5 -103.5t-11.5 -53q-2 -10 -4 -18.5t-6 -14.5q-2 -10 -8 -18q-4 -4 -8.5 -4t-8.5 -2q-14 0 -14 10q-10 18 -10 37v4zM115 705q4 12 5 26t5 31q2 12 16.5 64.5t33 111.5t32.5 111.5t16 66.5q2 2 2 8l7 22q8 21 17 53t20.5 69t21.5 67.5t17 51t9 20.5 q18 -4 27 -16q14 -10 10 -33q-2 -4 -4 -11.5t-6 -13.5q-2 -2 -8 -25.5t-14.5 -56t-18.5 -70.5t-19.5 -71t-15.5 -56.5t-6 -25.5q-2 -8 -16.5 -55t-31.5 -100.5t-32.5 -99.5t-17.5 -54q-2 -10 -12 -27l-11 -8q-8 -8 -16 -4q-6 4 -10 16v9z" />
<glyph unicode="&#xa7;" horiz-adv-x="1335" d="M772 682q8 0 24.5 -4t20.5 -8q31 -31 39 -66q2 -12 -2 -29q27 -12 47 -26q31 -20 60.5 -42t56.5 -46q27 -27 49.5 -54.5t40.5 -62.5q14 -27 20.5 -55.5t16.5 -57.5q-2 -16 -3 -31.5t-1 -31.5q-2 -8 -3 -10t-8 -13q-4 -4 -4 -14q-4 -16 -13 -30.5t-21 -30.5 q-23 -27 -46.5 -48.5t-56.5 -41.5l-71 -43q-55 -29 -112.5 -48.5t-117.5 -38.5q-23 -6 -39 -10t-31.5 -7t-33 -7t-41.5 -10q-31 -6 -60.5 -9.5t-58.5 -9.5q-18 -2 -34.5 -1t-37.5 3q-8 0 -10 -2q-16 -2 -20.5 -2t-6.5 1t-6 2t-22 3q-12 -2 -29.5 0t-36 5.5t-34 6.5t-21.5 5 q-29 10 -61.5 25.5t-57.5 37.5q-31 27 -41 51q-4 8 -6 23.5t-2 30t2 26t4 13.5l8 4h4q2 0 3 1t6 1h6q16 0 16 -4q-2 -2 3 -9.5t-1 -17.5q-4 -6 -2 -21.5t8 -19.5t12.5 -9t10.5 -9q12 -14 32.5 -22.5t39.5 -18.5q8 -2 13 -4t13 -5q8 -4 17.5 -9t23.5 -1q12 -10 17.5 -10 t8.5 2t7 2t14 -8q4 -2 17 2q29 4 42 1t23 -3q8 -4 15.5 0t17.5 8q12 2 20 0q8 -12 25 0q12 6 22 6q6 0 10.5 1t10.5 1q20 -4 37 6l4 2q2 0 2 3q10 -4 18.5 -1t16.5 5q8 0 16 2t14 2q16 0 31 2t29 14q8 8 14 0q10 -4 17 4q6 6 12 7t12 1q8 2 15.5 6.5t15.5 6.5l33 10 q6 0 12 3l10 5q6 2 13.5 2h13.5q4 4 11 9t17 10q4 2 7.5 1t7.5 1l20 10t17 4q8 6 15 8t13 8l33 21q20 10 38.5 22.5t39.5 28.5q23 20 37 36.5t22.5 33t9.5 35t-4 45.5q-4 23 -12 33t-20 26q-29 49 -71 87t-91 67q-27 14 -50.5 27t-45.5 24q-29 -27 -62 -35q-37 -10 -69 10 q-16 12 -29 29q-16 35 -8 65q-29 12 -61.5 26.5t-61.5 25.5q-31 12 -59.5 32.5t-57.5 36.5q-20 16 -41.5 35.5t-34.5 44.5q-27 43 -22 109q2 8 0 17t0 19q4 14 8 27.5t14 30.5q31 61 86 110q53 51 119 101q23 18 47 33q29 14 53.5 29.5t53.5 29.5q35 16 67.5 30.5t67.5 24.5 q29 12 58.5 18.5t60.5 14.5q6 2 18 2q4 2 9 1t10 1q23 2 45 2t43 -4q14 0 25 -4t24 -8q14 -2 22 -19l39 -63q4 -12 6 -25.5t-2 -29.5q-4 -10 1 -2t5 -3q-4 -14 -6 -27.5t-10 -29.5q-4 -14 -17.5 -19.5t-21.5 5.5q-23 23 -14 65q2 6 2 8v3v2t2 10q6 10 4 14q2 8 -6 21 q-10 8 -25 12q-25 10 -51.5 14t-56.5 -2q-35 0 -74 -6q-84 -16 -162 -59l-94 -49q-117 -68 -217 -168q-20 -16 -37.5 -40t-32.5 -48q-10 -23 -11 -45.5t9 -45.5q8 -16 22.5 -28.5t26.5 -20.5q23 -14 42.5 -26.5t41.5 -22.5q6 -2 12.5 -5t14.5 -7q25 -12 49.5 -19.5 t46.5 -17.5q2 -2 8 -2q16 -10 29.5 -15.5t30.5 -13.5l20 23q4 6 11.5 9t11.5 7q8 4 14 1t12 -7q4 -4 5 -4q8 -25 -5 -41q-10 -6 -19 -13.5t-13 -17.5q-6 -8 -11.5 -18t-11.5 -21l-14 -28q-6 -6 -4 -13q4 -10 14 -10q16 0 25 2q59 23 90 80q6 8 6 23q0 10 -6 14 q-6 8 -21.5 13t-23.5 16q0 8 2 12l2 4q4 0 7 1t5 1z" />
<glyph unicode="&#xa8;" horiz-adv-x="430" d="M254 1214q-4 2 -6 4.5t-6 6.5q-6 8 -9.5 13t-3.5 15q2 25 18.5 37.5t33 13.5t27.5 -11.5t7 -37.5q0 -4 -2 -6t-4 -6q-8 -12 -17 -20.5t-28 -8.5h-10zM96 1212q-6 2 -10 11q-6 6 -9 11t-3 15q2 14 3 16.5t11 18.5q25 23 48.5 10.5t17.5 -43.5q0 -4 -2 -6t-5 -6 q-6 -10 -15 -18.5t-26 -8.5h-10z" />
<glyph unicode="&#xa9;" horiz-adv-x="894" d="M111 856q-4 20 -1 35.5t1 32.5q0 2 1 2t1 2q4 18 10 35.5t12 35.5l12 39l13 29l35 51q8 10 15 21.5t13 21.5q8 10 16.5 19.5t16.5 19.5q20 23 39.5 42.5t42.5 37.5q18 18 47 33q10 4 18.5 11t16.5 11l35 15q18 4 33.5 5t31.5 -5q10 -4 19 2q10 4 18 7t18 9q6 4 13.5 5 t13.5 3q8 2 19 0l24 -4q10 -4 19.5 -6t17.5 -12l14 -8q41 -20 62 -70l2 -4q10 -23 16 -41.5t10 -38.5q0 -6 1 -11t-1 -14q0 -10 -1 -22t-1 -25q2 -14 0 -28.5t-6 -28.5q-6 -16 -11 -35.5t-13 -36.5q-10 -20 -18.5 -32.5t-30.5 -40.5q0 -2 -3 -3q-20 -35 -45.5 -61.5 t-54.5 -54.5q-10 -12 -23.5 -22.5t-25.5 -20.5q-2 0 -2 -2q-12 -10 -24.5 -14.5t-22.5 -12.5q-10 -6 -18.5 -14t-24.5 -13q-25 -12 -48.5 -21t-52.5 -13q-23 -4 -30 -9q-12 -2 -22.5 -3t-20.5 3q-23 2 -43.5 11.5t-38.5 19.5q-23 10 -39 27.5t-29 38.5q-27 41 -26 92v10z M584 1346q-14 0 -21 -3h-10q-4 -2 -7 -5t-1 -5q8 -8 16 -24q2 -4 2 -17q0 -12 -12 -8q-4 4 -9 6t-10 6q-10 8 -28 9l-23 -7q-41 -16 -74.5 -40.5t-62.5 -51.5l-12 -12l-21 -18q-23 -23 -43 -50.5t-39 -56.5q-14 -20 -24 -42.5t-19 -43.5q-23 -57 -32 -127q0 -6 1 -11t1 -11 q0 -4 1 -9.5t1 -9.5q2 -12 7 -24.5t9 -24.5q18 -35 59 -51q10 -4 19.5 -5t19.5 -5q20 -2 35 0q4 2 19 2q16 2 30.5 7t28.5 11l53 20q10 6 22.5 14.5t28.5 12.5q2 0 7 8q14 12 27.5 22.5t27.5 20.5q10 10 19.5 18.5t19.5 18.5l14 17.5t17 13.5l12 12t10 15l31 45 q23 33 39 67.5t24 75.5q4 16 8.5 34.5t4.5 39.5l-9 57q0 4 -4 6q-6 14 -10 25.5t-12 21.5q-25 29 -49 39q-20 8 -41 13.5t-41 3.5zM381 866q-14 0 -29 8l-22 15q-10 8 -19 24q-8 23 -2 41q4 12 9.5 25.5t13.5 24.5q14 29 31.5 52t35.5 46q16 23 45 41q4 4 10.5 4t10.5 2 q27 4 31 -19v-16l-4 -8l-5 -4q-18 -10 -29.5 -21.5t-21.5 -25.5q-10 -12 -20 -23.5t-21 -27.5l-10 -9q-8 -6 -12 -16q-4 -14 -9.5 -27.5t-15.5 -27.5q0 -6 4 -6q12 -4 22.5 -3.5t20.5 5.5q29 10 54.5 21t54.5 26q8 4 14 8t14 8q6 4 13.5 3t13.5 -3q0 -2 1 -3t1 -5 q-4 -16 -12 -31q-4 -6 -12 -10q-49 -31 -103 -57q-30 -11 -53 -11z" />
<glyph unicode="&#xaa;" horiz-adv-x="763" d="M508 1056q-14 0 -26 6q-13 8 -26 19.5t-21 27.5q-22 35 -32 80q0 6 -4 6l-28 -35q-25 -25 -49 -49.5t-48 -44.5q-16 -12 -32 -23t-34 -15q-18 -8 -41 -8q-30 -4 -42 38l-14 30q-10 25 -2 54q4 16 11.5 30.5t12.5 29.5l18 29q23 33 48.5 62.5t53.5 51.5l27 22q23 16 50 16 q14 0 21 -10q21 -26 28 -60q0 -4 -4 -13q-4 -4 -6 0l-11 13q-8 10 -15 4q-13 -4 -26.5 -7t-26.5 -14q-29 -18 -54 -49q-6 -4 -11 -12q-35 -33 -61 -91q-13 -18 -19 -47q-3 -8 4 -9q5 -2 10 -2h8q11 4 23.5 6.5t22.5 10.5q47 25 85 69l40 42q5 4 9 7.5t8 7.5q12 18 24.5 34.5 t25.5 38.5q8 14 20 7q7 -4 15 -9.5t11 -13.5q1 -8 2 -13t-1 -14q-1 -12 -2 -26.5t-1 -28.5q0 -36 12 -64q3 -4 7 -5.5t8 -5.5q23 -18 47.5 -17t49.5 13q12 6 22 9.5t23 13.5q22 20 37 30.5t32 37.5q5 6 18 25.5t17 28.5l4 4q0 2 8 2t8 -2l6 -13q5 -14 -7.5 -38t-18.5 -34 q-35 -61 -86.5 -96t-97.5 -37q-3 0 -14.5 -2t-15.5 2z" />
<glyph unicode="&#xab;" horiz-adv-x="428" d="M27 518q6 29 20 43l18.5 18.5t18.5 16.5l12 12t15 10l18 17q16 12 30.5 24.5t28.5 22.5l72 70q10 10 23 0q14 -8 18 -27q2 -14 -4 -25q-10 -10 -16.5 -16t-16.5 -12q-20 -16 -40.5 -33.5t-41.5 -34.5q-18 -14 -36.5 -30.5t-36.5 -32.5q-8 -8 -14.5 -15.5t-12.5 -15.5 l-4 -4q-4 -4 -3 -12.5t5 -12.5q4 -6 10 -10l55 -41q20 -16 39 -32.5t39 -35.5q8 -8 14.5 -16t12.5 -18q4 -8 4 -11v-8q-4 -4 -12 -4l-9 4q-16 8 -24 19q-41 41 -84 69q-14 10 -25.5 20.5t-23.5 20.5q-18 12 -28.5 28.5t-18.5 37.5q-2 4 -1 7t-1 7zM193 530q4 18 10 27l39 37 q20 14 39.5 29.5t35.5 35.5q10 10 23 0l10 -8q10 -12 10 -26.5t-12 -24.5l-47 -39q-10 -6 -18.5 -11t-16.5 -13q-6 -4 -13 -10.5t-11 -14.5q-4 -6 2 -14q10 -12 22.5 -21.5t22.5 -17.5q33 -23 67 -53q20 -12 35 -41v-7q4 -8 -4 -12q-6 -4 -12 0l-4 4q-23 20 -44.5 34.5 t-43.5 31.5q-14 10 -26.5 22.5t-25.5 22.5q-18 18 -28 37q-6 8 -7 16t-3 16z" />
<glyph unicode="&#xac;" horiz-adv-x="514" d="M324 535q-10 -2 -23.5 -3.5t-28.5 -5.5l-39 -6q-29 -4 -55 -12q-16 -4 -29.5 -3t-27.5 3q-4 2 -6 2t-4 2l-35 27q-4 2 -4 12t8 14h12q10 0 27 -4q20 -2 41 0l30 4l25 4q10 0 17.5 1t15.5 3q4 0 7 -1t7 1q16 6 34.5 6.5t37.5 4.5q23 4 45 -6q29 -10 39 -39q8 -27 -6 -52 q-23 -41 -54 -71q-4 -4 -12 -8q-2 -2 -6 -2q-8 2 -15.5 8t-7.5 12q-4 6 0 10q6 16 13.5 32.5t17.5 33.5q8 8 14 20q4 10 -4 10t-16 1.5t-18 1.5z" />
<glyph unicode="&#xad;" horiz-adv-x="516" d="M252 522q-4 2 -8 0l-8 -4q-10 -2 -18.5 -2h-18.5q-8 -4 -15.5 -4t-15.5 -2q-8 0 -17.5 -1t-17.5 -1q-16 -4 -27.5 4t-21.5 20q-2 4 -3 8.5t-1 10.5q0 8 10 8q4 -2 6 -1t6 1q66 0 134.5 6t136.5 10h12q8 -4 11 -12t-3 -16q-10 -14 -26 -17q-29 -4 -57.5 -3t-57.5 -5z" />
<glyph unicode="&#xae;" horiz-adv-x="917" d="M514 745q0 2 -1 2.5t-1 2.5l-23 -11q-6 -4 -12 -7l-10 -5q-16 -4 -25.5 -8t-19.5 -8q-25 -10 -57 -15q-4 -2 -10.5 -2t-10.5 -4q-43 -10 -86 6q-12 4 -20 9q-49 20 -82 65q-8 4 -13 14q-25 51 -24 107v19.5t4 19.5t3 20.5t3 20.5q4 18 10 36.5t11 41.5q8 16 14 30.5 t14 28.5q10 20 21.5 37.5t23.5 34.5q23 33 46.5 60.5t52.5 55.5q10 10 22 18.5t23 18.5l22 13q18 12 45 4q6 -4 12.5 -3t16.5 3q8 4 15 6t16 6q8 6 22 6q10 2 19.5 5t19.5 5t20.5 5t20.5 1h13t12 2q18 2 36.5 -3t34.5 -9q37 -8 70 -35q29 -23 45 -49q14 -29 24 -63 q2 -2 3 -4q0 -16 5 -30.5t5 -31.5q-2 -10 -3 -19t-5 -20q-4 -10 -5.5 -19t-5.5 -18q-4 -10 -7 -18t-7 -16q-2 -4 -4 -11.5t-6 -11.5q-14 -25 -30.5 -49.5t-33.5 -46.5q-10 -12 -19 -21.5t-20 -19.5l-65 -62l-53 -41q-16 -10 -30.5 -18t-31.5 -16q2 -2 2 -6q0 -3 -6 -3z M166 840q4 -16 9 -34t20 -30q25 -29 65 -35q10 0 14 -2q8 -2 16.5 -2h18.5q16 4 33.5 7.5t34.5 7.5q37 10 65 24l17 6q12 6 23.5 13.5t23.5 15.5q16 8 30.5 16.5t26.5 20.5q33 23 61.5 48.5t57.5 53.5l10 13l49 65q10 18 19.5 34.5t15.5 33.5q4 8 5 16t5 14q6 14 11 41 q2 10 2 33q-4 16 -7.5 34.5t-13.5 35.5q-16 25 -36.5 42t-49.5 23l-37 11q-47 12 -100 2q-12 -2 -25.5 -6.5t-27.5 -6.5q-10 0 -18.5 -4t-16.5 -8q-2 0 -2 -4l6 -23q2 -6 0 -12q-4 -4 -6 -2q-10 0 -15.5 3t-9.5 7q-10 8 -26 2l-19 -12q-16 -10 -29.5 -22.5t-27.5 -24.5 q-4 -6 -16.5 -21.5t-25.5 -32t-25.5 -31.5t-14.5 -20q-18 -33 -36.5 -65.5t-29.5 -71.5q-12 -31 -17 -61.5t-7 -61.5v-30zM547 928q-12 2 -19.5 1t-15.5 -3q-33 -8 -76 -2q-4 0 -20 4q-12 0 -13 -10l-4 -13q0 -8 -10 -18q-8 -10 -16 -8q-8 6 -13 16q-4 27 2 43q4 18 0 29 q-8 14 5 26q10 10 16 27q4 23 8 41t8 37v22q0 4 -6 4l-45 -8q-27 -6 -51 2q-6 0 -10 4q-10 4 -2 13q4 6 10 10t13 6t14 6q20 6 38.5 10t40.5 9q8 0 13 6l8 10q10 4 16 0l2 -2q0 -2 2 -2q8 -6 25 -6h74q10 0 20 -2t21 -6q8 -4 13 -8.5t11 -8.5q14 -14 15 -33v-18q0 -6 -9 -12 q-14 -10 -27.5 -20.5t-29.5 -20.5l-51 -35q-10 -4 -17.5 -10.5t-15.5 -12.5q-10 -4 -19.5 -9t-15.5 -9q-2 0 -2 -2l4 -4h41q4 -2 8.5 -1t8.5 -1q16 -4 33.5 -4h33.5q33 0 60 -9l8 -4q2 -2 2 -6v-2l-12 -6q-16 -2 -29.5 -6t-30.5 -4h-14zM510 1139h-13.5t-15.5 -2 q-10 -2 -16 -4.5t-6 -14.5q0 -6 -3 -10t-5 -8l-9 -41q0 -6 2 -6q0 -6 7 0q12 0 16 4l65 39q10 6 18.5 14t16.5 16q0 4 -2 7q-20 10 -55 6z" />
<glyph unicode="&#xaf;" horiz-adv-x="409" d="M530 1430q-2 -2 -6 -1t-10 -4h-19.5t-19.5 -2q-49 -2 -98 -1t-98 -1h-45.5t-47.5 -2q-29 -2 -54.5 -4t-55.5 -6q-14 0 -25 2q-6 0 -11 5l-7 7q-4 4 -2 9.5t4 5.5q2 2 4 2q14 8 20.5 12t11.5 5t12 1t21 4q35 6 73 10.5t77 4.5q53 2 106.5 4t106.5 6h72q6 0 14 -17 q4 -10 -2.5 -22t-20.5 -18z" />
<glyph unicode="&#xb0;" horiz-adv-x="462" d="M262 1360q16 0 23 -6q31 -27 39 -58q6 -25 -13 -49l-20 -20t-25 -21q-27 -23 -61 -32q-33 -8 -68 8q-14 12 -26 26q-16 33 -7 62q8 23 29 51l35 35q4 4 11 7t11 7q10 4 25 -6l4 -4q8 -23 -4 -35q-10 -6 -18.5 -12t-12.5 -15q-6 -8 -11 -16t-11 -18l-15 -25q-6 -6 -4 -12 q6 -8 15 -8q16 0 24 2q59 20 86 69q6 8 6 21q0 8 -6 12l-22 20q0 8 2 11l2 4q4 0 7 1t5 1z" />
<glyph unicode="&#xb1;" horiz-adv-x="530" d="M207 512h-18.5t-20.5 -2q-12 -4 -27.5 -3t-29.5 1q-33 4 -62 22q-12 8 -12 21q0 20 12 16q16 0 27 -2q25 -6 47 -4q12 4 27.5 3t31.5 1q12 2 25.5 3t28.5 5q10 0 10 15q4 23 10 46l12 46q4 16 10.5 33.5t12.5 36.5q4 18 26 10l15 -6q23 -16 14 -49q-6 -23 -13 -45.5 t-11 -47.5q-2 -6 -3 -16q0 -6 7 -6l100 12q12 2 20.5 2h14.5q8 0 12 -8q2 -2 2 -12q-18 -18 -33 -21q-35 -10 -66.5 -17t-62.5 -11q-12 -2 -14 -15q-6 -23 -11 -47t-9 -49l-17 -68q-4 -8 -8 -12q-6 -8 -16 -8q-16 0 -19 12q-14 29 -8 55q4 12 5 24.5t3 29.5q2 12 4 23.5 t6 21.5q0 8 -8 8q-4 2 -14 2zM231 236q-4 2 -8 -0.5t-8 -4.5q-10 -2 -18.5 -2h-18.5q-8 -4 -15 -4t-16 -2q-8 0 -17 -1t-17 -1q-16 -4 -27.5 4t-22.5 21q-2 4 -3 8t-1 10q0 8 11 8q4 -2 6 -1t6 1q66 0 134.5 6.5t135.5 10.5h13q8 -4 11 -12.5t-3 -16.5q-10 -14 -27 -16 q-29 -4 -57.5 -3t-57.5 -5z" />
</font>
</defs>
</svg>
