<svg width="215" height="213" viewBox="0 0 215 213" fill="none" xmlns="http://www.w3.org/2000/svg">
<mask id="path-1-inside-1" fill="white">
<path fill-rule="evenodd" clip-rule="evenodd" d="M26.5923 157.985C10.5592 141.237 0.709335 118.522 0.709335 93.5057C0.709335 42.002 42.4613 0.25 93.965 0.25C145.469 0.25 187.221 42.002 187.221 93.5057C187.221 145.009 145.469 186.761 93.965 186.761C78.1836 186.761 63.3177 182.841 50.288 175.922C43.948 179.464 36.6409 181.483 28.8622 181.483C17.8181 181.483 7.72469 177.413 -0.000106812 170.692C10.3507 169.623 19.6367 164.966 26.5923 157.985Z"/>
</mask>
<path d="M26.5923 157.985L28.037 156.602L29.3877 158.013L28.0091 159.396L26.5923 157.985ZM50.288 175.922L49.3125 174.176L50.2637 173.644L51.2261 174.155L50.288 175.922ZM-0.000106812 170.692L-1.31299 172.2L-4.78941 169.175L-0.205429 168.702L-0.000106812 170.692ZM2.70934 93.5057C2.70934 117.986 12.346 140.211 28.037 156.602L25.1476 159.368C8.77248 142.263 -1.29066 119.057 -1.29066 93.5057H2.70934ZM93.965 2.25C43.5659 2.25 2.70934 43.1066 2.70934 93.5057H-1.29066C-1.29066 40.8974 41.3568 -1.75 93.965 -1.75V2.25ZM185.221 93.5057C185.221 43.1066 144.364 2.25 93.965 2.25V-1.75C146.573 -1.75 189.221 40.8974 189.221 93.5057H185.221ZM93.965 184.761C144.364 184.761 185.221 143.905 185.221 93.5057H189.221C189.221 146.114 146.573 188.761 93.965 188.761V184.761ZM51.2261 174.155C63.9739 180.925 78.5185 184.761 93.965 184.761V188.761C77.8486 188.761 62.6615 184.757 49.35 177.688L51.2261 174.155ZM51.2636 177.668C44.6331 181.373 36.9911 183.483 28.8622 183.483V179.483C36.2906 179.483 43.2629 177.556 49.3125 174.176L51.2636 177.668ZM28.8622 183.483C17.3175 183.483 6.76193 179.227 -1.31299 172.2L1.31277 169.183C8.68744 175.6 18.3188 179.483 28.8622 179.483V183.483ZM-0.205429 168.702C9.67114 167.683 18.5337 163.239 25.1755 156.573L28.0091 159.396C20.7398 166.692 11.0303 171.564 0.205215 172.681L-0.205429 168.702Z" fill="#767779" mask="url(#path-1-inside-1)"/>
<path fill-rule="evenodd" clip-rule="evenodd" d="M201.755 198.467C209.741 190.125 214.647 178.81 214.647 166.35C214.647 140.695 193.85 119.898 168.196 119.898C142.542 119.898 121.745 140.695 121.745 166.35C121.745 192.004 142.542 212.801 168.196 212.801C176.057 212.801 183.462 210.848 189.952 207.401C193.11 209.166 196.75 210.171 200.624 210.171C206.125 210.171 211.153 208.144 215.001 204.796C209.845 204.264 205.219 201.944 201.755 198.467Z" fill="white"/>
<circle cx="58.1834" cy="93.522" r="7.20363" fill="white"/>
<ellipse cx="93.0931" cy="93.522" rx="6.6495" ry="7.20363" fill="white"/>
<ellipse cx="128.557" cy="93.522" rx="6.6495" ry="7.20363" fill="white"/>
</svg>
